<?xml version="1.0" standalone="no"?>
<!DOCTYPE svg PUBLIC "-//W3C//DTD SVG 1.1//EN" "http://www.w3.org/Graphics/SVG/1.1/DTD/svg11.dtd" >
<svg>
<metadata>
Created by FontForge 20090914 at Fri Sep 17 14:38:45 2021
 By www-data
Copyright (c) ParaGraph Intl., 1990-1995. All Rights Reserved. ITC Franklin Gothic is a registered trade mark of International Typeface Corporation.
</metadata>
<defs>
<font id="FranklinGothic" horiz-adv-x="1229" >
  <font-face 
    font-family="Franklin Gothic"
    font-weight="400"
    font-stretch="normal"
    units-per-em="2048"
    panose-1="2 11 5 0 0 0 0 0 0 0"
    ascent="1638"
    descent="-410"
    x-height="1044"
    cap-height="1405"
    bbox="-131 -392.999 2132 1841"
    underline-thickness="50"
    underline-position="-75"
    unicode-range="U+0020-U+2219"
  />
<missing-glyph horiz-adv-x="1536" 
d="M256 0v1280h1024v-1280h-1024zM1247 33v1214h-958v-1214h958z" />
    <glyph glyph-name=".notdef" horiz-adv-x="1536" 
d="M256 0v1280h1024v-1280h-1024zM1247 33v1214h-958v-1214h958z" />
    <glyph glyph-name="space" unicode=" " horiz-adv-x="477" 
 />
    <glyph glyph-name="exclam" unicode="!" horiz-adv-x="614" 
d="M408 219v-219h-218v219h218zM420 1405l-74 -1055h-94l-74 1055h242z" />
    <glyph glyph-name="quotedbl" unicode="&#x22;" horiz-adv-x="739" 
d="M111 1405h192l-55 -504h-82zM436 1405h193l-56 -504h-81z" />
    <glyph glyph-name="numbersign" unicode="#" 
d="M758 0h-140l82 424h-270l-82 -424h-139l82 424h-217v129h241l60 326h-225v129h251l74 397h139l-73 -397h270l74 397h139l-74 -397h205v-129h-231l-60 -326h223v-129h-247zM725 553l59 326h-270l-59 -326h270z" />
    <glyph glyph-name="dollar" unicode="$" horiz-adv-x="1194" 
d="M686 1550l-0.00195312 -170.001c88.667 -2 168.834 -25.833 240.501 -71.5s123.834 -111.834 156.501 -198.501l-139 -47c-8 28 -21.5 53.833 -40.5 77.5s-39.667 42.5 -62 56.5s-47.166 25.333 -74.499 34s-54.333 13.334 -81 14.001v-440
c136.667 -22.667 242.5 -65 317.5 -127s112.5 -148 112.5 -258c0 -95.333 -36.167 -178.666 -108.5 -249.999s-178.833 -113.666 -319.5 -126.999v-197h-127v197c-48.667 3.33301 -95.334 12.333 -140.001 27s-86.667 35.834 -126 63.501s-73.666 61 -102.999 100
s-53 83.5 -71 133.5l139 53c24.667 -69.333 63.167 -126.333 115.5 -171s114.166 -68.334 185.499 -71.001v486c-119.333 26 -213.333 65 -282 117s-103 129.667 -103 233c0 64 15.667 123.167 47 177.5s76.5 98.666 135.5 132.999s126.5 52.833 202.5 55.5v170h125z
M685.998 634.999l0.000976562 -456.999c50 0 95.667 10.167 137 30.5s73.166 47.5 95.499 81.5s33.5 70.333 33.5 109c0 51.333 -14.667 94 -44 128s-64.5 59.667 -105.5 77s-79.833 27.666 -116.5 30.999zM560.999 823v422.003
c-45.333 -0.666992 -85.833 -10.834 -121.5 -30.501s-63.167 -45.334 -82.5 -77.001s-29 -64.834 -29 -99.501c0 -56 21.167 -104.333 63.5 -145s98.833 -64 169.5 -70z" />
    <glyph glyph-name="percent" unicode="%" horiz-adv-x="1487" 
d="M80 1057c0 68.667 10.8311 131.165 32.498 187.498s54.334 100.5 98.001 132.5s95.834 48 156.501 48c61.333 0 113.5 -16 156.5 -48s75.333 -76.167 97 -132.5s32.5 -118.833 32.5 -187.5s-10.833 -131.167 -32.5 -187.5s-54 -100.666 -97 -132.999
s-95.167 -48.5 -156.5 -48.5c-91.333 0 -162 34.333 -212 103s-75 157.334 -75 266.001zM525.998 1057c0 174.667 -52.999 262 -158.999 262c-106.667 0 -160 -87.333 -160 -262s53.333 -262 160 -262c47.333 0 85.666 19.667 114.999 59s44 107 44 203zM1243 1405
l-850 -1405h-149l850 1405h149zM833.999 347.998c0 52.667 5.99902 101.168 17.999 145.501s29.833 83.166 53.5 116.499s53.834 59.5 90.501 78.5s78 28.5 124 28.5c60.667 0 112.834 -16.167 156.501 -48.5s76.334 -76.666 98.001 -132.999s32.5 -118.833 32.5 -187.5
s-10.833 -131.167 -32.5 -187.5s-54.334 -100.5 -98.001 -132.5s-95.834 -48 -156.501 -48c-46 0 -87.167 9.5 -123.5 28.5s-66.5 45.167 -90.5 78.5s-42 72.166 -54 116.499s-18 92.5 -18 144.5zM960.998 347.999c0 -96 14.668 -163.667 44.001 -203
s67.666 -59 114.999 -59c106.667 0 160 87.333 160 262s-53.333 262 -160 262c-106 0 -159 -87.333 -159 -262z" />
    <glyph glyph-name="ampersand" unicode="&#x26;" horiz-adv-x="1415" 
d="M1159 768l152.003 -30.9971c-46.667 -204.667 -131.334 -374.667 -254.001 -510c16.667 -23.333 33.334 -40.833 50.001 -52.5s34 -19.167 52 -22.5s38.667 -5 62 -5c34.667 0 72.667 3.66699 114 11v-148c-32.667 -2.66699 -61.834 -5.66699 -87.501 -9
s-48.167 -5 -67.5 -5c-28 0 -51.833 2.83301 -71.5 8.5s-38 13.667 -55 24s-30.5 20.333 -40.5 30l-40 37.5l-25 23c-42.667 -38 -87.334 -67.333 -134.001 -88s-90.834 -34.334 -132.501 -41.001s-79.834 -10 -114.501 -10c-100.667 0 -186.5 19.833 -257.5 59.5
s-124.667 91.167 -161 154.5s-54.5 129.666 -54.5 198.999c0 72 23.833 148.167 71.5 228.5s142.167 144.833 283.5 193.5l-29 41c-37.333 53.333 -66.166 101.5 -86.499 144.5s-30.5 85.5 -30.5 127.5c0 79.333 28.667 148.666 86 207.999s141.333 89 252 89
c82 0 151 -13.833 207 -41.5s97.333 -64 124 -109s40 -93.833 40 -146.5c0 -164 -114.667 -285.333 -344 -364l288 -432c101.333 110.667 169 256 203 436zM852.003 225.003l-327.999 477c-42.667 -10.667 -84.334 -31 -125.001 -61c-77.333 -58 -116 -133 -116 -225
c0 -78 27.333 -145 82 -201s131 -84 229 -84c98.667 0 184.667 31.333 258 94zM602.004 868.003l41 22.999c20 11.333 39.833 22 59.5 32s37 20.5 52 31.5s29.833 25.833 44.5 44.5c24.667 36 37 74.333 37 115c0 48 -17.833 86.667 -53.5 116s-81.5 44 -137.5 44
c-48.667 0 -88.5 -13.667 -119.5 -41s-46.5 -63.666 -46.5 -108.999c0 -25.333 4.5 -49.833 13.5 -73.5s21.333 -47.667 37 -72l45.5 -69.5z" />
    <glyph glyph-name="quotesingle" unicode="'" horiz-adv-x="614" 
d="M211 1405h192l-55 -504h-82z" />
    <glyph glyph-name="parenleft" unicode="(" horiz-adv-x="569" 
d="M389 1405l106.998 0.000976562c-70 -108 -123.833 -214.5 -161.5 -319.5s-63.167 -203.5 -76.5 -295.5s-20 -175.667 -20 -251c0 -58 3.5 -119.5 10.5 -184.5s19.833 -136.5 38.5 -214.5s45 -157.833 79 -239.5s78 -165.167 132 -250.5h-107
c-78 96 -139.667 196.333 -185 301s-76.666 205.167 -93.999 301.5s-26 188.833 -26 277.5c0 67.333 5.5 136.666 16.5 207.999s28.5 144.5 52.5 219.5s55.333 150.333 94 226s85.334 149.5 140.001 221.5z" />
    <glyph glyph-name="parenright" unicode=")" horiz-adv-x="569" 
d="M74 1405l106 0.000976562c55.333 -72.667 102.166 -146.667 140.499 -222s69.5 -150.5 93.5 -225.5s41.5 -148.167 52.5 -219.5s16.5 -140.666 16.5 -207.999c0 -142 -22.5 -289.333 -67.5 -442s-124.167 -298.667 -237.5 -438h-106c100.667 156 169.167 311 205.5 465
s54.5 295.333 54.5 424c0 56.667 -3.5 116.5 -10.5 179.5s-19.167 130.667 -36.5 203s-43.666 151.166 -78.999 236.499s-79.333 167.666 -132 246.999z" />
    <glyph glyph-name="asterisk" unicode="*" horiz-adv-x="1118" 
d="M500 1405h118l-14 -352l301 188l64 -104l-314 -164l314 -164l-64 -104l-301 188l14 -350h-118l14 350l-301 -188l-63 104l313 164l-313 164l63 104l301 -188z" />
    <glyph glyph-name="plus" unicode="+" horiz-adv-x="1317" 
d="M592 1120h133v-463h463v-133h-463v-463h-133v463h-463v133h463v463z" />
    <glyph glyph-name="comma" unicode="," horiz-adv-x="528" 
d="M377 203v-176l-164 -275h-78l121 248h-84v203h205z" />
    <glyph glyph-name="hyphenminus" unicode="-" horiz-adv-x="641" 
d="M539 590v-127h-437v127h437z" />
    <glyph glyph-name="period" unicode="." horiz-adv-x="530" 
d="M152 231h227v-231h-227v231z" />
    <glyph glyph-name="slash" unicode="/" horiz-adv-x="1067" 
d="M1030 1405l-848 -1755h-139l848 1755h139z" />
    <glyph glyph-name="zero" unicode="0" horiz-adv-x="1221" 
d="M610 -20c-42.667 0 -87.001 6.33105 -133.001 18.998s-92.833 36.5 -140.5 71.5s-90.167 83.167 -127.5 144.5c-28 46.667 -55.833 110.334 -83.5 191.001s-41.5 177.334 -41.5 290.001c0 79.333 9.5 162.833 28.5 250.5s49.833 166.167 92.5 235.5
c100 162 235 243 405 243c170.667 0 306 -81 406 -243c43.333 -70.667 74.333 -149.167 93 -235.5s28 -169.833 28 -250.5c0 -114.667 -14.167 -212.5 -42.5 -293.5s-55.833 -143.5 -82.5 -187.5c-53.333 -88.667 -116.166 -150 -188.499 -184s-143.5 -51 -213.5 -51z
M609.999 1282c-43.333 0 -85.6699 -11 -127.003 -33s-77.333 -52 -108 -90c-42 -52.667 -71.667 -119.834 -89 -201.501s-26 -164.5 -26 -248.5c0 -173.333 28 -312 84 -416c24.667 -43.333 56.834 -82.5 96.501 -117.5s96.167 -52.5 169.5 -52.5
c72.667 0 130.167 18.333 172.5 55s73.833 75 94.5 115c56 104 84 242.667 84 416c0 48 -3.5 100.667 -10.5 158s-19.333 111.833 -37 163.5s-40.167 94.5 -67.5 128.5c-31.333 38.667 -67.666 68.834 -108.999 90.501s-83.666 32.5 -126.999 32.5z" />
    <glyph glyph-name="one" unicode="1" 
d="M752 1405v-1253h387v-152h-983v152h419v1040c-70.667 -74.667 -137.167 -134.5 -199.5 -179.5s-124.833 -84.833 -187.5 -119.5v174c182.667 91.333 326 204 430 338h134z" />
    <glyph glyph-name="two" unicode="2" 
d="M283 965l-164.001 48.999c16 86 50 162.333 102 229c94.667 121.333 230 182 406 182c63.333 0 121 -6.33301 173 -19s104 -39 156 -79c58 -43.333 98.833 -93.166 122.5 -149.499s35.5 -113.5 35.5 -171.5c0 -45.333 -8 -93.666 -24 -144.999
s-46.833 -107.5 -92.5 -168.5s-109.167 -122.5 -190.5 -184.5l-465 -356h774v-152h-997v145l567 447c168 131.333 252 265.666 252 402.999c0 84.667 -32.667 153.667 -98 207c-60 48 -134 72 -222 72c-57.333 0 -109.833 -12.833 -157.5 -38.5s-86.5 -59.167 -116.5 -100.5
c-35.333 -50 -55.666 -106.667 -60.999 -170z" />
    <glyph glyph-name="three" unicode="3" 
d="M291 1061l-163.997 45.002c42 100 108.333 180 199 240c84.667 52.667 185 79 301 79c118.667 0 219 -27.333 301 -82c62 -40.667 104 -87.834 126 -141.501s33 -104.5 33 -152.5c0 -78 -25.333 -144.667 -76 -200s-115.334 -92.666 -194.001 -111.999
c49.333 -5.33301 94.666 -18.333 135.999 -39s76.166 -46.834 104.499 -78.501s49.666 -66.667 63.999 -105s21.5 -78.833 21.5 -121.5c0 -64.667 -15 -123.334 -45 -176.001s-68.333 -96.334 -115 -131.001c-94.667 -70.667 -221.667 -106 -381 -106
c-37.333 0 -71.666 2.66699 -102.999 8s-60.833 12.5 -88.5 21.5s-52.5 18.833 -74.5 29.5l-41 20c-102.667 60 -173.667 146.667 -213 260l164 56c18.667 -74.667 60.334 -134 125.001 -178c36 -25.333 73.167 -43.333 111.5 -54s81.5 -16 129.5 -16
c38 0 81.167 4.33301 129.5 13s90.5 25.334 126.5 50.001c66 46.667 99 112.334 99 197.001c0 89.333 -41 159 -123 209c-26.667 15.333 -62 29 -106 41s-102.333 18 -175 18h-135v144h135c103.333 0 178.333 12.333 225 37c25.333 12.667 52.833 35 82.5 67
s44.5 74.333 44.5 127c0 78 -30.667 139.333 -92 184c-56.667 40 -125 60 -205 60c-34.667 0 -69.334 -4.83301 -104.001 -14.5s-66.667 -24.834 -96 -45.501c-54.667 -37.333 -97 -88.333 -127 -153z" />
    <glyph glyph-name="four" unicode="4" 
d="M938 1405v-934h229v-143h-229v-328h-176v328h-692v116l643 961h225zM762 471v797l-514 -797h514z" />
    <glyph glyph-name="five" unicode="5" 
d="M1038 1405l-14 -152.001h-690l-31 -452c99.333 100.667 212 151 338 151c60 0 118.333 -9.5 175 -28.5s108.334 -48.833 155.001 -89.5c57.333 -48 98.166 -104.167 122.499 -168.5s36.5 -127.833 36.5 -190.5c0 -36.667 -3.83301 -74.167 -11.5 -112.5
s-22.167 -77.666 -43.5 -117.999s-50.666 -78.833 -87.999 -115.5c-102 -99.333 -234.333 -149 -397 -149c-139.333 0 -259 44.333 -359 133c-60.667 55.333 -105 121.333 -133 198l152 51c13.333 -42.667 40 -84 80 -124c70.667 -71.333 160 -107 268 -107
c118.667 0 210 39 274 117c26.667 32 47 66 61 102s21 75 21 117c0 46 -7.83301 89.833 -23.5 131.5s-40.5 78.5 -74.5 110.5c-27.333 27.333 -61 49.5 -101 66.5s-83.333 25.5 -130 25.5c-61.333 0 -121.333 -15.5 -180 -46.5s-107.334 -75.5 -146.001 -133.5l-139 28
l47 756h831z" />
    <glyph glyph-name="six" unicode="6" 
d="M1108 1114l-146.999 -43.001c-24.667 60.667 -62.5 109.667 -113.5 147s-115.167 56 -192.5 56c-37.333 0 -74.166 -5.5 -110.499 -16.5s-72.833 -32.167 -109.5 -63.5s-69 -74.333 -97 -129c-32 -62 -53.333 -129.167 -64 -201.5s-16 -148.5 -16 -228.5
c25.333 56 59.666 105.333 102.999 148s93.333 75.834 150 99.501s115.667 35.5 177 35.5c63.333 0 123.166 -11.833 179.499 -35.5s105.333 -56.334 147 -98.001s74.167 -90.334 97.5 -146.001s35 -115.5 35 -179.5c0 -90 -22.833 -171.667 -68.5 -245
s-107 -130.666 -184 -171.999s-162.167 -62 -255.5 -62c-72 0 -147.333 15.5 -226 46.5s-146.667 88.5 -204 172.5c-84.667 123.333 -127 279 -127 467c0 202 38.333 367.667 115 497c62.667 106.667 134.167 177 214.5 211s160.166 51 239.499 51
c102.667 0 186.334 -18.833 251.001 -56.5s112 -79.667 142 -126s51.333 -89.166 64 -128.499zM305.001 431.999c0 -42 9.33301 -83.501 28 -124.501s43.667 -74.5 75 -100.5c29.333 -23.333 65.166 -41.833 107.499 -55.5s83.5 -20.5 123.5 -20.5
c61.333 0 117.5 14 168.5 42s91 66.333 120 115s43.5 102.334 43.5 161.001c0 44.667 -8.16699 86.334 -24.5 125.001s-38.5 72.167 -66.5 100.5s-61.5 50.666 -100.5 66.999s-80.5 24.5 -124.5 24.5c-60 0 -117.167 -14.667 -171.5 -44s-97.666 -69.5 -129.999 -120.5
s-48.5 -107.5 -48.5 -169.5z" />
    <glyph glyph-name="seven" unicode="7" 
d="M1087 1405l0.000976562 -107.001c-150 -178.667 -267.333 -367.667 -352 -567c-50.667 -118.667 -87.834 -237.167 -111.501 -355.5s-35.5 -243.5 -35.5 -375.5h-180c1.33301 74.667 5.66602 143.667 12.999 207s20.333 133.833 39 211.5s41.334 151.334 68.001 221.001
s61 142.5 103 218.5c69.333 125.333 160 257 272 395h-762l19 152h927z" />
    <glyph glyph-name="eight" unicode="8" 
d="M406 729c-49.333 17.333 -94.1689 42.499 -134.502 75.499s-72.166 71.667 -95.499 116s-35 91.833 -35 142.5c0 40.667 9.16699 82.334 27.5 125.001s47.166 81.834 86.499 117.501s91 64.5 155 86.5s137 33 219 33c89.333 0 169.5 -14.167 240.5 -42.5
s126.5 -69 166.5 -122s60 -114.167 60 -183.5c0 -84.667 -26.167 -154 -78.5 -208s-117.166 -92.333 -194.499 -115c104.667 -41.333 186.5 -91.5 245.5 -150.5s88.5 -134.5 88.5 -226.5c0 -68.667 -19.667 -133.334 -59 -194.001s-99.333 -109.667 -180 -147
s-177.667 -56 -291 -56c-89.333 0 -168.666 10.667 -237.999 32s-127.833 50.333 -175.5 87s-83.167 77.5 -106.5 122.5s-35 91.167 -35 138.5c0 94 34.333 172.5 103 235.5s145.667 107.5 231 133.5zM564.997 828.999l47.0029 -13.998
c109.333 23.333 188.666 56.666 237.999 99.999s74 90.666 74 141.999c0 62 -25.333 115 -76 159s-129.334 66 -236.001 66c-102 0 -177.333 -21.833 -226 -65.5s-73 -93.5 -73 -149.5c0 -42 18.167 -84.833 54.5 -128.5s102.166 -80.167 197.499 -109.5zM657 641.001
l-57 18.001c-78 -16.667 -149.667 -43.667 -215 -81c-54 -32.667 -90.333 -67.167 -109 -103.5s-28 -69.5 -28 -99.5c0 -62.667 27.667 -120.334 83 -173.001s148.333 -79 279 -79c88 0 160.167 12.5 216.5 37.5s96.166 55.667 119.499 92s35 72.833 35 109.5
c0 70 -30.667 126.5 -92 169.5s-138.666 79.5 -231.999 109.5z" />
    <glyph glyph-name="nine" unicode="9" 
d="M133 262l141.005 51c27.333 -50 64.666 -92.833 111.999 -128.5s109.666 -53.5 186.999 -53.5c131.333 0 231.666 57.333 300.999 172c39.333 62.667 65 128.334 77 197.001s18.667 158.667 20 270c-38.667 -85.333 -96.667 -153.833 -174 -205.5
s-162.666 -77.5 -255.999 -77.5c-85.333 0 -162.833 20.333 -232.5 61s-124.834 96 -165.501 166s-61 146.667 -61 230c0 93.333 22.833 176.333 68.5 249s108 129.5 187 170.5s164.5 61.5 256.5 61.5c106.667 0 195.5 -21.5 266.5 -64.5s124.167 -90.833 159.5 -143.5
c27.333 -40 50.666 -87.667 69.999 -143s33.666 -111.833 42.999 -169.5s14 -112.834 14 -165.501c0 -90 -9.83301 -179.333 -29.5 -268s-48.167 -165 -85.5 -229c-102 -174.667 -253.333 -262 -454 -262c-95.333 0 -174.5 16.667 -237.5 50s-109.333 70.333 -139 111
s-52.5 81 -68.5 121zM582.005 1274c-84 0 -157.334 -27.333 -220.001 -82c-33.333 -30.667 -59 -66.667 -77 -108s-27 -84 -27 -128c0 -39.333 7.83301 -78.5 23.5 -117.5s35.834 -72.833 60.501 -101.5c59.333 -65.333 136.333 -98 231 -98c52 0 105.5 12.667 160.5 38
s100.5 63 136.5 113s54 111 54 183c0 94 -32 167.667 -96 221s-146 80 -246 80z" />
    <glyph glyph-name="colon" unicode=":" horiz-adv-x="528" 
d="M377 231v-231h-225v231h225zM377 1040v-231h-225v231h225z" />
    <glyph glyph-name="semicolon" unicode=";" horiz-adv-x="528" 
d="M377 236v-211l-154 -289h-88l123 264h-106v236h225zM377 1040v-231h-225v231h225z" />
    <glyph glyph-name="less" unicode="&#x3c;" 
d="M305 590l809 -332v-127l-1001 424v70l1001 424v-127z" />
    <glyph glyph-name="equal" unicode="=" horiz-adv-x="1317" 
d="M129 723v133h1059v-133h-1059zM129 326v133h1059v-133h-1059z" />
    <glyph glyph-name="greater" unicode="&#x3e;" 
d="M915 590l-800 332v127l1001 -424v-70l-1001 -424v127z" />
    <glyph glyph-name="question" unicode="?" horiz-adv-x="1069" 
d="M197 979l-154.001 32.9951c8.66699 64 26.167 121.667 52.5 173s60.5 95 102.5 131s90.333 63.167 145 81.5s115 27.5 181 27.5c80.667 0 150.5 -11.833 209.5 -35.5s106.5 -54.5 142.5 -92.5s62.833 -80.167 80.5 -126.5s26.5 -93.166 26.5 -140.499
c0 -85.333 -23 -157.166 -69 -215.499s-109.667 -109.166 -191 -152.499c-55.333 -29.333 -94.666 -53.833 -117.999 -73.5s-37.833 -38.167 -43.5 -55.5s-8.5 -44 -8.5 -80v-105h-147v88c0 50.667 2.16699 91.667 6.5 123s15.833 61.833 34.5 91.5s49.334 56.5 92.001 80.5
l90 51c53.333 31.333 95.666 65.833 126.999 103.5s47 85.167 47 142.5c0 54.667 -15.667 103.334 -47 146.001c-22.667 31.333 -55.667 56.833 -99 76.5s-91.666 29.5 -144.999 29.5c-116.667 0 -203.334 -47 -260.001 -141c-30.667 -49.333 -49 -102.666 -55 -159.999z
M583.999 200.995v-201h-209v201h209z" />
    <glyph glyph-name="at" unicode="@" horiz-adv-x="1655" 
d="M1135 164l46.9961 -115.001c-108 -46 -233 -69 -375 -69c-174 0 -324.333 46.333 -451 139c-77.333 58 -141.666 131.333 -192.999 220s-77 197.667 -77 327c0 122 22.5 229.5 67.5 322.5s100.167 170.5 165.5 232.5c146 136 330.333 204 553 204
c126.667 0 234.167 -19.333 322.5 -58s161.166 -88 218.499 -148c47.333 -49.333 85.166 -108.333 113.499 -177s42.5 -141 42.5 -217c0 -70.667 -10.5 -138 -31.5 -202s-50.167 -118 -87.5 -162c-22 -25.333 -49.167 -49.333 -81.5 -72s-67.666 -41 -105.999 -55
s-78.166 -21 -119.499 -21c-111.333 0 -179 39 -203 117c-66 -78 -145.333 -117 -238 -117c-32.667 0 -64.667 6.66699 -96 20s-58.666 30.666 -81.999 51.999c-26 26 -46.167 58.833 -60.5 98.5s-21.5 81.834 -21.5 126.501c0 38 6.5 79.667 19.5 125
s34.667 90.833 65 136.5s68.5 85.5 114.5 119.5c68.667 50.667 139 76 211 76c109.333 0 180.333 -47 213 -141l37 114h135l-160 -495c-6.66699 -25.333 -10 -39.666 -10 -42.999c0 -56 27.333 -84 82 -84c40 0 78.333 9.66699 115 29s67.334 45 92.001 77
c26.667 34.667 47 75.834 61 123.501s21 96.167 21 145.5c0 54.667 -7.83301 106.5 -23.5 155.5s-37.167 91.833 -64.5 128.5c-29.333 41.333 -69.833 79.333 -121.5 114s-111.667 62 -180 82s-141.5 30 -219.5 30c-89.333 0 -170.5 -16 -243.5 -48
s-135.167 -73.667 -186.5 -125c-113.333 -114.667 -170 -266.667 -170 -456c0 -84.667 12.167 -162.834 36.5 -234.501s69.5 -137.5 135.5 -197.5c45.333 -40.667 101.5 -74.167 168.5 -100.5s146.833 -39.5 239.5 -39.5c122.667 0 231.334 20.667 326.001 62z
M869.996 953.999c-71.333 0 -132.666 -28.001 -183.999 -84.001c-29.333 -32 -53.333 -74.333 -72 -127s-28 -101.667 -28 -147c0 -51.333 14.333 -93.666 43 -126.999c30 -34 64.667 -51 104 -51c60.667 0 114 30 160 90c36 46.667 64.167 99.5 84.5 158.5
s30.5 111.167 30.5 156.5c0 37.333 -12.833 68.5 -38.5 93.5s-58.834 37.5 -99.501 37.5z" />
    <glyph glyph-name="A" unicode="A" horiz-adv-x="1147" 
d="M682 1405l457 -1405h-193l-131 408h-504l-127 -408h-159l454 1405h203zM772 551l-209 666l-211 -666h420z" />
    <glyph glyph-name="B" unicode="B" horiz-adv-x="1288" 
d="M180 1405l537.002 -0.00195312c58.667 0 113.167 -4.16699 163.5 -12.5s97.5 -28.166 141.5 -59.499c35.333 -24 66 -58.167 92 -102.5s39 -98.833 39 -163.5c0 -108.667 -36.333 -192.667 -109 -252c-32 -27.333 -77 -49.666 -135 -66.999v-5
c60.667 -11.333 114 -35.666 160 -72.999c87.333 -70.667 131 -167 131 -289c0 -42 -6.5 -82.5 -19.5 -121.5s-29.5 -72.333 -49.5 -100s-42 -50.834 -66 -69.501c-46.667 -38 -98.334 -62.5 -155.001 -73.5s-120.334 -16.5 -191.001 -16.5h-539v1405zM356.002 1253
l-0.00195312 -446h295c52.667 0 98.834 3.83301 138.501 11.5s76.834 25.5 111.501 53.5c50.667 42.667 76 98.667 76 168c0 72.667 -27.333 128 -82 166c-28 18.667 -59.5 31.167 -94.5 37.5s-75.167 9.5 -120.5 9.5h-324zM356 663.998v-512.001h351
c94.667 0 167 19 217 57c20 14.667 39.667 37.834 59 69.501s29 73.167 29 124.5c0 74 -23.333 134.333 -70 181c-34 35.333 -71.5 57.5 -112.5 66.5s-90.167 13.5 -147.5 13.5h-326z" />
    <glyph glyph-name="C" unicode="C" horiz-adv-x="1237" 
d="M1180 977l-165.997 -30.9951c-6 30 -15 61 -27 93s-27.667 61.667 -47 89c-64 97.333 -154 146 -270 146c-139.333 0 -244 -62.333 -314 -187c-51.333 -88.667 -77 -212 -77 -370c0 -66.667 4.83301 -130.834 14.5 -192.501s26.5 -118.5 50.5 -170.5
c70.667 -148.667 179.334 -223 326.001 -223c49.333 0 92.666 8.66699 129.999 26s71.666 43.666 102.999 78.999c60 66.667 99 145.667 117 237l160 -35c-24.667 -124 -77.334 -228.333 -158.001 -313c-55.333 -58 -110.833 -96.667 -166.5 -116s-114.834 -29 -177.501 -29
c-84 0 -164.667 16 -242 48s-148.333 96.333 -213 193c-42.667 66 -75.5 143.167 -98.5 231.5s-34.5 179.166 -34.5 272.499c0 133.333 17.333 241.666 52 324.999s70.667 146.333 108 189c64.667 75.333 134 125.166 208 149.499s146 36.5 216 36.5
c140.667 0 256 -41.667 346 -125c41.333 -38 76.333 -85.167 105 -141.5s47 -116.833 55 -181.5z" />
    <glyph glyph-name="D" unicode="D" horiz-adv-x="1368" 
d="M180 1405h465c190.667 0 345 -66.333 463 -199c41.333 -44 80 -107.833 116 -191.5s54 -185.5 54 -305.5c0 -71.333 -7.66699 -143 -23 -215s-37.666 -136.333 -66.999 -193c-61.333 -120 -139.333 -200.167 -234 -240.5s-194.334 -60.5 -299.001 -60.5h-475v1405z
M356 152l246.003 0.000976562c44.667 0 88.667 3.66699 132 11s88.166 24.5 134.499 51.5s86.5 65.5 120.5 115.5c25.333 36.667 45.666 78.334 60.999 125.001s25.833 92.167 31.5 136.5s8.5 85.5 8.5 123.5c0 83.333 -11.833 159.166 -35.5 227.499
s-54.167 124.166 -91.5 167.499c-34.667 40 -71.834 70.5 -111.501 91.5s-79.167 34.833 -118.5 41.5s-78.333 10 -117 10h-260v-1101z" />
    <glyph glyph-name="E" unicode="E" horiz-adv-x="1161" 
d="M180 1405h889v-152h-713v-446h566v-143h-566v-512h734v-152h-910v1405z" />
    <glyph glyph-name="F" unicode="F" horiz-adv-x="1077" 
d="M1040 1405v-152h-684v-446h568v-143h-568v-664h-176v1405h860z" />
    <glyph glyph-name="G" unicode="G" horiz-adv-x="1372" 
d="M1221 709l-0.00292969 -719.001h-109l-47 174c-36 -51.333 -79.667 -91.666 -131 -120.999c-75.333 -42 -164.666 -63 -267.999 -63c-174.667 0 -315.334 67.333 -422.001 202c-52 66.667 -90.667 145.167 -116 235.5s-38 180.5 -38 270.5c0 82 11.5 167.5 34.5 256.5
s55.833 165.5 98.5 229.5c24 35.333 57.833 72.666 101.5 111.999s98.334 72.333 164.001 99s139.834 40 222.501 40c55.333 0 105 -6.16699 149 -18.5s83.5 -28.833 118.5 -49.5s64.5 -42.334 88.5 -65.001c34 -32 63.5 -72 88.5 -120s41.833 -98 50.5 -150l-166 -41
c-8.66699 53.333 -27.667 101 -57 143c-20 28 -43.833 53.167 -71.5 75.5s-60.334 40.333 -98.001 54s-80.167 20.5 -127.5 20.5c-79.333 0 -145.666 -19.167 -198.999 -57.5s-95.666 -84.166 -126.999 -137.499c-21.333 -37.333 -38.166 -80.666 -50.499 -129.999
s-20.5 -95.833 -24.5 -139.5s-6 -84.167 -6 -121.5c0 -139.333 27.667 -258.666 83 -357.999c34.667 -57.333 80.167 -104.833 136.5 -142.5s124.166 -56.5 203.499 -56.5c96.667 0 178.667 34 246 102c64 65.333 96 148.666 96 249.999v78h-354v148h531z" />
    <glyph glyph-name="H" unicode="H" horiz-adv-x="1368" 
d="M1188 1405v-1405h-176v672h-656v-672h-176v1405h176v-590h656v590h176z" />
    <glyph glyph-name="I" unicode="I" horiz-adv-x="537" 
d="M356 1405v-1405h-176v1405h176z" />
    <glyph glyph-name="J" unicode="J" horiz-adv-x="793" 
d="M627 1405l-0.000976562 -946c0 -77.333 -5.66699 -142 -17 -194s-34.333 -100 -69 -144c-74.667 -94 -186.667 -141 -336 -141c-64 0 -132.333 9.33301 -205 28v152c55.333 -19.333 115.333 -29 180 -29c84.667 0 150.334 21.333 197.001 64c33.333 30.667 54 64 62 100
s12 82.333 12 139v971h176z" />
    <glyph glyph-name="K" unicode="K" horiz-adv-x="1305" 
d="M356 1405v-813h4l625 813h195l-379 -492l489 -913h-194l-418 774l-322 -399v-375h-176v1405h176z" />
    <glyph glyph-name="L" unicode="L" horiz-adv-x="1044" 
d="M356 1405v-1253h660v-152h-836v1405h176z" />
    <glyph glyph-name="M" unicode="M" horiz-adv-x="1720" 
d="M438 1405l422 -1124h4l418 1124h258v-1405h-176v1227h-4l-451 -1227h-118l-461 1227h-2v-1227h-148v1405h258z" />
    <glyph glyph-name="N" unicode="N" horiz-adv-x="1393" 
d="M401 1405l668 -1145h4c-5.33301 31.333 -8 69 -8 113v1032h147v-1405h-172l-686 1178l-30 47h-5c6 -36.667 9 -79 9 -127v-1098h-148v1405h221z" />
    <glyph glyph-name="O" unicode="O" horiz-adv-x="1335" 
d="M668 1425c150 0 275.332 -49.002 375.999 -147.002c62 -60 111 -139 147 -237s54 -211 54 -339c0 -127.333 -17.833 -239.666 -53.5 -336.999s-84.834 -176.666 -147.501 -237.999c-100.667 -98 -226 -147 -376 -147c-56 0 -117.333 9.66699 -184 29
s-131 58.666 -193 117.999c-63.333 63.333 -112.666 143.833 -147.999 241.5s-53 208.834 -53 333.501c0 125.333 17.833 237.333 53.5 336s84.834 178.667 147.501 240c44 42 89.167 73.667 135.5 95s89.5 35.333 129.5 42s77.333 10 112 10zM667.999 1274
c-108.667 0 -199.667 -46.332 -273 -138.999c-77.333 -100.667 -116 -245 -116 -433c0 -187.333 38.667 -331.333 116 -432c73.333 -92.667 164.333 -139 273 -139c109.333 0 200 46.333 272 139c78 101.333 117 245.333 117 432c0 187.333 -39 331.666 -117 432.999
c-72 92.667 -162.667 139 -272 139z" />
    <glyph glyph-name="P" unicode="P" horiz-adv-x="1198" 
d="M180 1405l464.998 0.000976562c72.667 0 137.334 -5.83301 194.001 -17.5s109.334 -35.834 158.001 -72.501c42.667 -32 78.334 -74 107.001 -126s43 -116.667 43 -194c0 -131.333 -43.667 -236.333 -131 -315c-36.667 -32.667 -76.667 -57.5 -120 -74.5
s-83.333 -27.333 -120 -31s-78.334 -5.5 -125.001 -5.5h-295v-569h-176v1405zM355.998 721.001l274.999 0.000976562c49.333 0 94.333 4.16699 135 12.5s77.667 27.5 111 57.5c24.667 22.667 44.334 51.667 59.001 87s22 75.666 22 120.999c0 82 -27 145.667 -81 191
c-52 42 -128.667 63 -230 63h-291v-532z" />
    <glyph glyph-name="Q" unicode="Q" horiz-adv-x="1335" 
d="M1153 -160l-0.000976562 -146.999c-52 -18 -106 -27 -162 -27c-73.333 0 -134.5 14.667 -183.5 44s-85.167 67.5 -108.5 114.5s-35 98.833 -35 155.5h-37c-55.333 2 -114 16 -176 42s-115.333 60.333 -160 103c-39.333 38 -74.166 85.5 -104.499 142.5
s-54 122.167 -71 195.5s-25.5 153 -25.5 239c0 124.667 17.833 236.5 53.5 335.5s84.834 179.167 147.501 240.5c44 42 89.167 73.667 135.5 95s89.5 35.333 129.5 42s77.333 10 112 10c150 0 275.333 -49 376 -147c62 -60 111 -139 147 -237s54 -211 54 -339
s-17.833 -240.167 -53.5 -336.5s-84.834 -175.833 -147.501 -238.5c-68 -66.667 -147 -111 -237 -133c0 -58.667 15 -102.334 45 -131.001c31.333 -30 77 -45 137 -45c43.333 0 98 7.33301 164 22zM667.999 1274c-108.667 0 -199.667 -46.332 -273 -138.999
c-77.333 -100.667 -116 -245 -116 -433c0 -187.333 38.667 -331.333 116 -432c73.333 -92.667 164.333 -139 273 -139c109.333 0 200 46.333 272 139c78 101.333 117 245.333 117 432c0 187.333 -39 331.666 -117 432.999c-72 92.667 -162.667 139 -272 139z" />
    <glyph glyph-name="R" unicode="R" horiz-adv-x="1305" 
d="M180 1405h531c138 0 243 -26 315 -78c32 -22.667 59.333 -50.167 82 -82.5s40.334 -68.833 53.001 -109.5s19 -81.667 19 -123c0 -54 -9.66699 -105.667 -29 -155s-48.833 -92.833 -88.5 -130.5s-88.834 -66.167 -147.501 -85.5l281 -641h-188l-260 604h-392v-604h-176
v1405zM356 1253v-497h359c54.667 0 101 10.167 139 30.5s68 44.833 90 73.5c31.333 42.667 47 94 47 154c0 40 -7.83301 76.5 -23.5 109.5s-35.834 58.5 -60.501 76.5c-43.333 35.333 -108.666 53 -195.999 53h-355z" />
    <glyph glyph-name="S" unicode="S" horiz-adv-x="1231" 
d="M1112 1081l-159.997 -42.999c-19.333 67.333 -54.666 121.333 -105.999 162c-61.333 49.333 -144 74 -248 74c-77.333 0 -140 -15 -188 -45c-33.333 -20 -58.166 -46.167 -74.499 -78.5s-24.5 -66.833 -24.5 -103.5c0 -56.667 22.667 -100.667 68 -132
s106.666 -56.333 183.999 -75l209 -52c113.333 -26.667 199.333 -63.334 258 -110.001c23.333 -20 44.166 -42.167 62.499 -66.5s34 -54.666 47 -90.999s19.5 -76.166 19.5 -119.499c0 -65.333 -14.167 -125.5 -42.5 -180.5s-65.833 -101.167 -112.5 -138.5
c-51.333 -40.667 -106.833 -67.834 -166.5 -81.501s-121.834 -20.5 -186.501 -20.5c-70.667 0 -135.5 5.83301 -194.5 17.5s-117.5 37.167 -175.5 76.5c-39.333 26.667 -80.166 64.667 -122.499 114s-74.833 113 -97.5 191l158 35
c8.66699 -30.667 24.167 -64.334 46.5 -101.001s53.166 -70 92.499 -100c42 -32 86.833 -53.667 134.5 -65s95.167 -17 142.5 -17c128 0 216 25.5 264 76.5s72 106.167 72 165.5c0 118.667 -78 197 -234 235l-233 58c-128 32 -221.5 79.167 -280.5 141.5
s-88.5 139.166 -88.5 230.499c0 126 44.167 222 132.5 288s203.166 99 344.499 99c105.333 0 193.166 -16.667 263.499 -50s124 -76.166 161 -128.499s62.167 -107.5 75.5 -165.5z" />
    <glyph glyph-name="T" unicode="T" horiz-adv-x="1016" 
d="M23 1405h970v-152h-397v-1253h-176v1253h-397v152z" />
    <glyph glyph-name="U" unicode="U" horiz-adv-x="1286" 
d="M158 1405l176 -0.000976562v-885c0 -56.667 3.33301 -108.334 10 -155.001s21.667 -87.667 45 -123c49.333 -74 140.333 -111 273 -111c112.667 0 195.667 34 249 102c30 37.333 49.167 78.333 57.5 123s12.5 99.334 12.5 164.001v885h147v-889
c0 -79.333 -6 -149.166 -18 -209.499s-40 -117.5 -84 -171.5c-40 -47.333 -91 -85 -153 -113s-138.667 -42 -230 -42c-171.333 0 -296.333 45 -375 135c-33.333 37.333 -58 78.833 -74 124.5s-26 89 -30 130s-6 89.833 -6 146.5v889z" />
    <glyph glyph-name="V" unicode="V" horiz-adv-x="1133" 
d="M8 1405h185l389 -1159l387 1159h155l-475 -1405h-168z" />
    <glyph glyph-name="W" unicode="W" horiz-adv-x="1733" 
d="M41 1405h184l283 -1139l301 1139h143l322 -1139l262 1139h156l-342 -1405h-176l-306 1090l-288 -1090h-177z" />
    <glyph glyph-name="X" unicode="X" horiz-adv-x="1135" 
d="M78 1405h196l306 -520l305 520h180l-395 -649l444 -756h-196l-353 598l-364 -598h-181l457 733z" />
    <glyph glyph-name="Y" unicode="Y" horiz-adv-x="1069" 
d="M1092 1405l-469 -813v-592h-177v592l-469 813h205l373 -647l377 647h160z" />
    <glyph glyph-name="Z" unicode="Z" horiz-adv-x="1102" 
d="M94 1405h934v-117l-772 -1136h795v-152h-992v147l760 1106h-725v152z" />
    <glyph glyph-name="bracketleft" unicode="[" horiz-adv-x="571" 
d="M510 1405v-111h-223v-1534h223v-110h-367v1755h367z" />
    <glyph glyph-name="backslash" unicode="\" horiz-adv-x="1067" 
d="M178 1405l848 -1405h-139l-848 1405h139z" />
    <glyph glyph-name="bracketright" unicode="]" horiz-adv-x="571" 
d="M61 1405h367v-1755h-367v110h224v1534h-224v111z" />
    <glyph glyph-name="asciicircum" unicode="^" horiz-adv-x="1227" 
d="M614 1210l-278 -682h-123l354 877h95l354 -877h-123z" />
    <glyph glyph-name="underscore" unicode="_" horiz-adv-x="1024" 
d="M1024 -133v-127h-1024v127h1024z" />
    <glyph glyph-name="grave" unicode="`" horiz-adv-x="778" 
d="M211 1511l412 -243l-41 -82l-441 192z" />
    <glyph glyph-name="a" unicode="a" horiz-adv-x="1114" 
d="M260 756l-149.001 23.9971c14.667 72 42 129 82 171s90.167 71.5 150.5 88.5s130.166 25.5 209.499 25.5c135.333 0 234.333 -25.333 297 -76c50 -39.333 81.667 -87.666 95 -144.999s20 -131.666 20 -222.999v-402c0 -28 2.16699 -61.5 6.5 -100.5
s10.833 -78.5 19.5 -118.5h-164c-9.33301 58.667 -15.333 123.667 -18 195c-24 -52 -64.333 -100.833 -121 -146.5s-138 -68.5 -244 -68.5c-112 0 -201.333 30.667 -268 92c-62.667 57.333 -94 131 -94 221c0 112.667 47 200.667 141 264
c38.667 26.667 81.834 46.334 129.501 59.001s95.334 20.667 143.001 24s107.167 5 178.5 5h135v43c0 80 -13.667 138 -41 174c-16.667 22 -36.834 38.667 -60.501 50s-47.167 18.5 -70.5 21.5s-52 4.5 -86 4.5c-68 0 -130.667 -11.667 -188 -35
s-91.666 -72.333 -102.999 -147zM808.999 517.997h-133.002c-147.333 0 -252.666 -17 -315.999 -51c-70.667 -36.667 -106 -94.667 -106 -174c0 -60 25.333 -106.333 76 -139c34.667 -26 84.334 -39 149.001 -39c50.667 0 97.667 10.833 141 32.5s79 49.5 107 83.5
c24.667 30.667 44.5 68 59.5 112s22.5 85.333 22.5 124v51z" />
    <glyph glyph-name="b" unicode="b" horiz-adv-x="1133" 
d="M322 1405l-0.000976562 -537.001c16 32.667 37.833 63.834 65.5 93.501s62.667 54.334 105 74.001s91.833 29.5 148.5 29.5c114.667 0 208.334 -40.333 281.001 -121c29.333 -32.667 53.666 -71.5 72.999 -116.5s33.5 -92.833 42.5 -143.5s13.5 -102.667 13.5 -156
c0 -72 -9.66699 -143 -29 -213s-47.333 -130 -84 -180c-77.333 -103.333 -181 -155 -311 -155c-50 0 -96.167 8 -138.5 24s-79.166 38.667 -110.499 68s-57 64 -77 104c-32 -88.667 -52.333 -147.334 -61 -176.001h-74v1405h156zM321.999 638.999l-0.000976562 -201
c0 -63.333 12 -119.333 36 -168s56.833 -86.667 98.5 -114s88.834 -41 141.501 -41c36 0 73.333 9.5 112 28.5s71 50.5 97 94.5c42 68 63 164 63 288c0 75.333 -6.66699 136.5 -20 183.5s-27 81.5 -41 103.5c-48 78 -119.667 117 -215 117c-73.333 0 -136 -26 -188 -78
c-56 -56 -84 -127 -84 -213z" />
    <glyph glyph-name="c" unicode="c" horiz-adv-x="987" 
d="M926 707l-148.003 -27.0029c-8.66699 63.333 -27.667 116 -57 158c-43.333 61.333 -107 92 -191 92c-86 0 -152.667 -39 -200 -117c-45.333 -72 -68 -170.333 -68 -295c0 -81.333 7.5 -145.666 22.5 -192.999s30.167 -82.666 45.5 -105.999
c47.333 -69.333 113.333 -104 198 -104c38.667 0 73.334 7.16699 104.001 21.5s57 35.833 79 64.5c35.333 45.333 57.666 102 66.999 170l148 -27c-6.66699 -49.333 -20.667 -96.166 -42 -140.499s-47 -82.166 -77 -113.499c-36 -37.333 -77.833 -65 -125.5 -83
s-100.167 -27 -157.5 -27c-115.333 0 -210.666 34 -285.999 102c-49.333 45.333 -87.666 107 -114.999 185s-41 162.333 -41 253c0 148 36 273 108 375c40 54 87.833 95.833 143.5 125.5s122.834 44.5 201.501 44.5c119.333 0 214 -39.667 284 -119
c54 -60.667 89.667 -140.334 107 -239.001z" />
    <glyph glyph-name="d" unicode="d" horiz-adv-x="1133" 
d="M811 1405h156v-1405h-144v176h-4c-12 -34 -33.667 -67.333 -65 -100c-64 -64 -146 -96 -246 -96c-130 0 -234.333 51.667 -313 155c-33.333 43.333 -60.5 96.333 -81.5 159s-31.5 136 -31.5 220c0 94 12.167 177.667 36.5 251s58.5 133 102.5 179
c76.667 80.667 173 121 289 121c86 0 159.667 -24 221 -72c31.333 -24.667 58 -54 80 -88v500zM811 424v219c0 36 -7 72.333 -21 109s-31.667 66.667 -53 90c-22 26 -50 47.167 -84 63.5s-72.667 24.5 -116 24.5c-90.667 0 -161 -39 -211 -117
c-42.667 -68 -64 -163.667 -64 -287c0 -121.333 20.667 -217.333 62 -288c47.333 -82 115.333 -123 204 -123c88 0 159 34 213 102c20 26 36.667 58.5 50 97.5s20 75.5 20 109.5z" />
    <glyph glyph-name="e" unicode="e" horiz-adv-x="1092" 
d="M850 315l151 -30.001c-14 -46 -35.167 -88.167 -63.5 -126.5s-63.833 -72.166 -106.5 -101.499c-75.333 -51.333 -164.666 -77 -267.999 -77c-74 0 -140.167 12.333 -198.5 37s-110.166 62.667 -155.499 114c-84.667 96.667 -127 224.334 -127 383.001
c0 97.333 18.167 187.833 54.5 271.5s91.166 151.167 164.499 202.5s162 77 266 77c117.333 0 210.166 -29.833 278.499 -89.5s114.5 -129.334 138.5 -209.001s36 -156.167 36 -229.5v-37h-758c0 -80 11.667 -147.667 35 -203c49.333 -121.333 140 -182 272 -182
c92 0 164.333 30 217 90c28 30 49.333 66.667 64 110zM270 626.999l570 0.000976562c-2.66699 75.333 -19 138.666 -49 189.999c-50 80.667 -124 121 -222 121c-93.333 0 -169 -35.667 -227 -107c-46 -58.667 -70 -126.667 -72 -204z" />
    <glyph glyph-name="f" unicode="f" horiz-adv-x="612" 
d="M664 1411l0.00195312 -127c-46.667 9.33301 -91.334 14 -134.001 14c-58.667 0 -101.667 -14.333 -129 -43c-30 -31.333 -45 -78.333 -45 -141v-70h246v-126h-246v-918h-155v918h-185v126h185v29c0 60 6.16699 114.5 18.5 163.5s37.5 90.167 75.5 123.5
c49.333 43.333 121.666 65 216.999 65c50 0 100.667 -4.66699 152 -14z" />
    <glyph glyph-name="g" unicode="g" horiz-adv-x="1038" 
d="M1014 1200l0.00195312 -126.999h-29c-6.66699 0.666992 -12.667 1.16699 -18 1.5s-12.333 0.5 -21 0.5c-46 0 -79.333 -15.667 -100 -47c-10.667 -14 -21.667 -39.333 -33 -76c66.667 -66.667 100 -152 100 -256c0 -90 -33.333 -168.333 -100 -235
c-32.667 -34 -72.334 -60.333 -119.001 -79s-97 -28 -151 -28c-20 0 -47.333 2.66699 -82 8c-34 7.33301 -57.333 11 -70 11c-38 0 -67.333 -7.66699 -88 -23c-26 -19.333 -39 -44 -39 -74c0 -59.333 45.667 -91.333 137 -96l217 -10c78.667 -4 136.5 -8 173.5 -12
s70.833 -12.333 101.5 -25c52.667 -20 92.5 -50.5 119.5 -91.5s40.5 -85.5 40.5 -133.5c0 -44.667 -12 -88.667 -36 -132s-64 -79.333 -120 -108c-80.667 -40.667 -200 -61 -358 -61c-154 0 -273.167 23.167 -357.5 69.5s-126.5 113.166 -126.5 200.499
c0 52 14.667 96.667 44 134s67.333 63 114 77c-22.667 12 -45 31.5 -67 58.5s-33 62.167 -33 105.5c0 41.333 11.833 79.333 35.5 114s59.5 58.667 107.5 72v4c-56.667 41.333 -93.334 87 -110.001 137s-25 94.667 -25 134c0 46 9.5 90.667 28.5 134s44.833 81.333 77.5 114
c72.667 69.333 170.334 104 293.001 104c73.333 0 143.666 -14.333 210.999 -43c4 42 17.5 77.833 40.5 107.5s53.833 50.5 92.5 62.5c26 8 59.667 12 101 12c16 0 28 -0.666992 36 -2zM520.002 481.001c87.333 0 146.667 25.666 178 76.999s47 103 47 155
c0 66.667 -20.333 120.334 -61 161.001c-40 42.667 -94 64 -162 64c-47.333 0 -89 -10.333 -125 -31c-34.667 -20 -61.334 -48 -80.001 -84s-28 -73.333 -28 -112c0 -29.333 6.16699 -60.333 18.5 -93s28.5 -59 48.5 -79c40.667 -38.667 95.334 -58 164.001 -58zM575.003 29
l-249 12c-74 -31.333 -111 -75.666 -111 -132.999c0 -45.333 23.667 -85.666 71 -120.999s132.333 -53 255 -53c26.667 0 64 2.16699 112 6.5s85.667 10.833 113 19.5c47.333 15.333 80.333 35.666 99 60.999s28 49.666 28 72.999c0 54.667 -26 89.5 -78 104.5
s-132 25.167 -240 30.5z" />
    <glyph glyph-name="h" unicode="h" horiz-adv-x="1151" 
d="M322 1405l-0.000976562 -557.001c31.333 67.333 75.5 120.333 132.5 159s125.167 58 204.5 58c108.667 0 190.667 -32 246 -96c32.667 -36 54.167 -77.333 64.5 -124s15.5 -99.667 15.5 -159v-686h-156v647c0 52.667 -2.66699 95.834 -8 129.501s-17 62.167 -35 85.5
c-32 45.333 -83.667 68 -155 68c-92 0 -167 -36.333 -225 -109c-31.333 -37.333 -53.166 -80 -65.499 -128s-18.5 -100.667 -18.5 -158v-535h-156v1405h156z" />
    <glyph glyph-name="i" unicode="i" horiz-adv-x="487" 
d="M322 1044v-1044h-156v1044h156zM330 1405v-180h-172v180h172z" />
    <glyph glyph-name="j" unicode="j" horiz-adv-x="485" 
d="M319 1044l-0.000976562 -1054c0 -70 -7.5 -131.333 -22.5 -184s-48.167 -94.334 -99.5 -125.001c-44.667 -26 -105.667 -39 -183 -39c-49.333 0 -97.666 6 -144.999 18v123c46 -9.33301 85.667 -14 119 -14c71.333 0 120.333 20.333 147 61c19.333 29.333 29 80 29 152
v1062h155zM327.999 1405v-180h-172v180h172z" />
    <glyph glyph-name="k" unicode="k" horiz-adv-x="1044" 
d="M322 1405v-899l481 538h172l-322 -364l365 -680h-172l-303 569l-221 -247v-322h-156v1405h156z" />
    <glyph glyph-name="l" unicode="l" horiz-adv-x="487" 
d="M322 1405v-1405h-156v1405h156z" />
    <glyph glyph-name="m" unicode="m" horiz-adv-x="1729" 
d="M322 0l-156.003 0.000976562v1040h141v-200h2c29.333 67.333 72 121.666 128 162.999s119.333 62 190 62c92.667 0 165.667 -32 219 -96c15.333 -17.333 29.333 -39.5 42 -66.5s21.667 -54.833 27 -83.5c24 61.333 59 114 105 158c63.333 58.667 140.333 88 231 88
c98.667 0 175.334 -31.5 230.001 -94.5s82 -155.167 82 -276.5v-694h-156v655c0 96 -13.667 165 -41 207c-33.333 45.333 -81.666 68 -144.999 68c-70 0 -131 -24.667 -183 -74c-40 -38 -66 -77.333 -78 -118s-18 -86.667 -18 -138v-600h-156v655
c0 95.333 -16.333 164.333 -49 207c-35.333 45.333 -86.333 68 -153 68c-61.333 0 -114.666 -20 -159.999 -60c-68 -60.667 -102 -150.667 -102 -270v-600z" />
    <glyph glyph-name="n" unicode="n" horiz-adv-x="1151" 
d="M322 0h-155.998v1040h143v-192h4c31.333 68 77.166 121.167 137.499 159.5s129.833 57.5 208.5 57.5c58 0 107.667 -9.33301 149 -28s73.666 -41.334 96.999 -68.001c32.667 -36 54.167 -77.333 64.5 -124s15.5 -99.667 15.5 -159v-686h-156v647
c0 52.667 -2.66699 95.834 -8 129.501s-17 62.167 -35 85.5c-34.667 45.333 -87.667 68 -159 68c-75.333 0 -140.333 -25.333 -195 -76c-73.333 -68 -110 -169 -110 -303v-551z" />
    <glyph glyph-name="o" unicode="o" horiz-adv-x="1106" 
d="M82 522c0 91.333 14.1689 173.166 42.502 245.499s66.833 131.833 115.5 178.5c83.333 79.333 187.666 119 312.999 119s229.666 -39.667 312.999 -119c48.667 -46.667 87.167 -106.167 115.5 -178.5s42.5 -154.166 42.5 -245.499c0 -90.667 -14.333 -172.5 -43 -245.5
s-67 -132.5 -115 -178.5c-84 -78.667 -188.333 -118 -313 -118s-229 39.333 -313 118c-48 46 -86.333 105.5 -115 178.5s-43 154.833 -43 245.5zM553.002 115c78 0 141.334 24.3301 190.001 72.9971c42 42 69.333 94 82 156s19 121.333 19 178
c0 57.333 -6.33301 117 -19 179s-40 113.667 -82 155c-21.333 22.667 -48.5 40.667 -81.5 54s-69.167 20 -108.5 20c-76.667 0 -140.334 -24.667 -191.001 -74c-29.333 -29.333 -51.333 -65.166 -66 -107.499s-24 -81.666 -28 -117.999s-6 -72.5 -6 -108.5
c0 -155.333 33.333 -266.666 100 -333.999c50 -48.667 113.667 -73 191 -73z" />
    <glyph glyph-name="p" unicode="p" horiz-adv-x="1124" 
d="M322 -340h-156v1384h143v-196l2 2c25.333 58.667 63.833 109.167 115.5 151.5s117.167 63.5 196.5 63.5c121.333 0 217.333 -40.333 288 -121c44 -48.667 76.833 -110 98.5 -184s32.5 -151.333 32.5 -232c0 -74.667 -9 -146.167 -27 -214.5s-45.667 -127.833 -83 -178.5
c-74.667 -103.333 -177.667 -155 -309 -155c-142 0 -240.333 61.333 -295 184h-6v-504zM322 633l0.00195312 -219c0 -86 24.333 -156.333 73 -211c53.333 -58.667 119.666 -88 198.999 -88c86.667 0 155 41 205 123c42 68 63 164 63 288c0 75.333 -6.66699 136.5 -20 183.5
s-27 81.5 -41 103.5c-48 78 -116.333 117 -205 117c-72.667 0 -135.334 -27.333 -188.001 -82c-57.333 -62 -86 -133.667 -86 -215z" />
    <glyph glyph-name="q" unicode="q" horiz-adv-x="1141" 
d="M967 -340l-155.999 -0.00195312v516h-6c-16 -44.667 -43.333 -83 -82 -115c-64 -54 -142 -81 -234 -81c-61.333 0 -116.5 12 -165.5 36s-93.5 63.667 -133.5 119c-72 101.333 -108 232.333 -108 393c0 180.667 46.333 319.334 139 416.001
c75.333 80.667 172.333 121 291 121c91.333 0 165.666 -24 222.999 -72c36.667 -31.333 66 -68.666 88 -111.999l62 163h90c-5.33301 -40 -8 -81.333 -8 -124v-1260zM811.001 464.998l-0.000976562 147c0 80 -24 151.667 -72 215c-51.333 68.667 -118.666 103 -201.999 103
c-86.667 0 -155 -39 -205 -117c-25.333 -37.333 -43.333 -81 -54 -131s-16 -102 -16 -156c0 -120.667 20.667 -216.667 62 -288c46 -82 113.333 -123 202 -123c96.667 0 172.667 45.667 228 137c38 64.667 57 135.667 57 213z" />
    <glyph glyph-name="r" unicode="r" horiz-adv-x="696" 
d="M166 1044l142.999 -0.000976562v-247h4c10 40 25.333 78 46 114s44.334 65.333 71.001 88c24.667 21.333 52.834 38 84.501 50s64.834 18 99.501 18c26 0 46 -1.33301 60 -4v-152h-33c-42.667 -1.33301 -84.834 -9.66602 -126.501 -24.999s-80.834 -46.333 -117.501 -93
c-28 -37.333 -47.5 -76.5 -58.5 -117.5s-16.5 -91.5 -16.5 -151.5v-524h-156v1044z" />
    <glyph glyph-name="s" unicode="s" horiz-adv-x="1001" 
d="M905 805l-147 -31.001c-11.333 33.333 -28.333 62.166 -51 86.499s-51.167 43.333 -85.5 57s-73.5 20.5 -117.5 20.5c-82 0 -139 -16.833 -171 -50.5s-48 -70.167 -48 -109.5c0 -49.333 17.667 -83 53 -101s79 -32 131 -42l141 -27c56.667 -10 105.5 -21.5 146.5 -34.5
s77.5 -34.833 109.5 -65.5c56 -53.333 84 -125 84 -215c0 -91.333 -34 -165.666 -102 -222.999c-29.333 -25.333 -62.5 -44.666 -99.5 -57.999s-73.333 -22 -109 -26s-70.5 -6 -104.5 -6c-122.667 0 -219 19 -289 57c-97.333 51.333 -159 131 -185 239l156 31
c10 -50.667 34.667 -93.667 74 -129c60 -48 138.333 -72 235 -72c78.667 0 139.667 16.667 183 50c40.667 30 61 71.667 61 125s-17.667 90.333 -53 111s-85.333 37.334 -150 50.001l-157 31c-86 17.333 -158.5 47.5 -217.5 90.5s-88.5 109.833 -88.5 200.5
c0 88 31.667 158.333 95 211c70 60 171 90 303 90c135.333 0 238.333 -34 309 -102c44.667 -42.667 76 -95.334 94 -158.001z" />
    <glyph glyph-name="t" unicode="t" horiz-adv-x="647" 
d="M348 1323l0.000976562 -279h236v-126h-236v-617c0 -68 16.333 -117 49 -147c28.667 -26 71 -39 127 -39c28.667 0 67.667 4 117 12v-127c-46.667 -8 -96.334 -12 -149.001 -12c-104 0 -180.667 24.333 -230 73c-46 48 -69 120.667 -69 218v639h-183v126h183v263z" />
    <glyph glyph-name="u" unicode="u" horiz-adv-x="1143" 
d="M977 1044l0.000976562 -1044h-143v207h-5c-26.667 -74 -69 -130.333 -127 -169s-122.667 -58 -194 -58c-104 0 -186 34 -246 102c-64 72.667 -96 177 -96 313v649h156v-649c0 -100.667 17.667 -172.334 53 -215.001c18.667 -21.333 42.167 -37.5 70.5 -48.5
s57.166 -16.5 86.499 -16.5c80 0 148.167 32.833 204.5 98.5s84.5 157.5 84.5 275.5v555h156z" />
    <glyph glyph-name="v" unicode="v" horiz-adv-x="950" 
d="M924 1044l-359 -1044h-168l-370 1044h180l285 -849h4l284 849h144z" />
    <glyph glyph-name="w" unicode="w" horiz-adv-x="1415" 
d="M1374 1044l-309 -1044h-131l-229 770l-3 2l-215 -772h-131l-315 1044h172l215 -780h4l215 780h131l226 -780h4l223 780h143z" />
    <glyph glyph-name="x" unicode="x" horiz-adv-x="895" 
d="M41 1044h188l220 -360l227 360h155l-303 -471l359 -573h-189l-262 422l-272 -422h-156l348 539z" />
    <glyph glyph-name="y" unicode="y" horiz-adv-x="874" 
d="M895 1044l-412 -1142c-27.333 -79.333 -64 -141.666 -110 -186.999c-54.667 -50 -119.667 -75 -195 -75c-48 0 -91.667 6.66699 -131 20v121c33.333 -9.33301 71 -14 113 -14c22 0 42.833 2.33301 62.5 7s37.5 13.667 53.5 27c34.667 29.333 67.667 90.333 99 183l12 34
l-367 1026h181l270 -802l281 802h143z" />
    <glyph glyph-name="z" unicode="z" horiz-adv-x="895" 
d="M838 1044v-88l-572 -829h572v-127h-766v125l553 793h-510v126h723z" />
    <glyph glyph-name="braceleft" unicode="{" horiz-adv-x="590" 
d="M573 1425l0.000976562 -122.003h-49c-32.667 0 -57.5 -5.66699 -74.5 -17s-27.5 -25.5 -31.5 -42.5s-6 -40.167 -6 -69.5v-332c0 -60.667 -12.5 -115.667 -37.5 -165s-62.5 -94.666 -112.5 -135.999v-2c49.333 -31.333 86.666 -73.666 111.999 -126.999
s38 -111.333 38 -174v-332c0 -87.333 35.333 -131 106 -131h55v-123h-94c-79.333 0 -136 20.333 -170 61s-51 98.667 -51 174v318c0 101.333 -15 172 -45 212s-64.667 60 -104 60h-13v123h10c64.667 0 106.167 30.333 124.5 91s27.5 120.334 27.5 179.001v322
c0 42 4.16699 79.333 12.5 112s28 61 59 85s78.833 36 143.5 36h100z" />
    <glyph glyph-name="bar" unicode="|" horiz-adv-x="1036" 
d="M580 1405v-1405h-123v1405h123z" />
    <glyph glyph-name="braceright" unicode="}" horiz-adv-x="590" 
d="M16 1425l113.001 0.00292969c86.667 0 142.167 -23 166.5 -69s36.5 -100.667 36.5 -164v-322c0 -58.667 9.16699 -118.334 27.5 -179.001s59.5 -91 123.5 -91h11v-123h-13c-39.333 0 -74 -20 -104 -60s-45 -110.667 -45 -212v-320c0 -155.333 -73.667 -233 -221 -233h-95
v123h56c70.667 0 106 43.667 106 131v332c0 62.667 12.667 120.667 38 174s62.666 95.666 111.999 126.999v2c-100 82.667 -150 183 -150 301v332c0 41.333 -5.83301 73.166 -17.5 95.499s-39.167 33.5 -82.5 33.5h-62v122z" />
    <glyph glyph-name="asciitilde" unicode="~" horiz-adv-x="1292" 
d="M223 444l-93.999 62.002c34 82.667 74.333 144 121 184c22.667 20 49.834 36 81.501 48s62.5 18 92.5 18c14 0 35.667 -2.66699 65 -8c35.333 -8 73.666 -21 114.999 -39l58 -27l66.5 -31c23 -10.667 46 -19.167 69 -25.5s47.833 -9.5 74.5 -9.5c44 0 83 13.667 117 41
c16 14 30.5 29.5 43.5 46.5s24.5 35.833 34.5 56.5l96 -58c-14 -30.667 -31.667 -61.834 -53 -93.501s-44 -57.834 -68 -78.501c-53.333 -47.333 -114 -71 -182 -71c-44 0 -91 10 -141 30c-52.667 24 -85.334 39.333 -98.001 46l-56 26c-53.333 26 -102.333 39 -147 39
c-43.333 0 -81.666 -15 -114.999 -45c-26.667 -24.667 -53.334 -61.667 -80.001 -111z" />
    <glyph glyph-name="afii10051" horiz-adv-x="1430" 
d="M23 1405l974.001 0.00195312v-152h-419v-481c47.333 19.333 99.166 35.166 155.499 47.499s110.166 18.5 161.499 18.5c146 0 260 -46 342 -138c40 -44 68.5 -90 85.5 -138s25.5 -101.667 25.5 -161c0 -51.333 -5.66699 -100.833 -17 -148.5
s-34.333 -92.834 -69 -135.501c-41.333 -50 -90 -85.333 -146 -106s-120.667 -31 -194 -31c-70.667 0 -137.667 9.33301 -201 28l39 144c37.333 -14 84.333 -21 141 -21c98.667 0 170.334 26.667 215.001 80c36.667 42.667 55 102 55 178c0 80 -19.667 145 -59 195
c-54 68 -140 102 -258 102c-100.667 0 -192.667 -20.333 -276 -61v-625h-177v1253h-378v152z" />
    <glyph glyph-name="afii10051" unicode="&#x402;" horiz-adv-x="1430" 
d="M23 1405l974.001 0.00195312v-152h-419v-481c47.333 19.333 99.166 35.166 155.499 47.499s110.166 18.5 161.499 18.5c146 0 260 -46 342 -138c40 -44 68.5 -90 85.5 -138s25.5 -101.667 25.5 -161c0 -51.333 -5.66699 -100.833 -17 -148.5
s-34.333 -92.834 -69 -135.501c-41.333 -50 -90 -85.333 -146 -106s-120.667 -31 -194 -31c-70.667 0 -137.667 9.33301 -201 28l39 144c37.333 -14 84.333 -21 141 -21c98.667 0 170.334 26.667 215.001 80c36.667 42.667 55 102 55 178c0 80 -19.667 145 -59 195
c-54 68 -140 102 -258 102c-100.667 0 -192.667 -20.333 -276 -61v-625h-177v1253h-378v152z" />
    <glyph glyph-name="afii10052" horiz-adv-x="1016" 
d="M180 1405h836v-152h-660v-1253h-176v1405zM735 1841l70 -133l-440 -192l-41 81z" />
    <glyph glyph-name="afii10052" unicode="&#x403;" horiz-adv-x="1016" 
d="M180 1405h836v-152h-660v-1253h-176v1405zM735 1841l70 -133l-440 -192l-41 81z" />
    <glyph glyph-name="afii10061" horiz-adv-x="1290" 
d="M356 805l195 -0.00292969c47.333 0 90 7.33301 128 22s69 42 93 82c18 29.333 30.833 59.833 38.5 91.5l34.5 146c15.333 65.667 29.333 112.167 42 139.5c24.667 54 56 90.667 94 110s78.333 29 121 29c24.667 0 46.334 -2.66699 65.001 -8v-139
c-18.667 2.66699 -33.667 4 -45 4c-27.333 0 -53.333 -15 -78 -45c-14 -17.333 -24.333 -39.166 -31 -65.499s-16.5 -69.5 -29.5 -129.5s-23.5 -101.333 -31.5 -124c-34 -94.667 -91.333 -149.334 -172 -164.001v-6c58 -8 103.833 -28.667 137.5 -62s58.167 -68 73.5 -104
c14.667 -31.333 30.834 -85.166 48.501 -161.499s37.167 -144.166 58.5 -203.499c10 -28 21.833 -49.333 35.5 -64s32.5 -22 56.5 -22c18 0 31 1.33301 39 4v-135c-24 -13.333 -53.333 -20 -88 -20c-38.667 0 -73.334 8.33301 -104.001 25s-58.334 45.667 -83.001 87
c-26 46.667 -53.333 133.334 -82 260.001c-15.333 65.333 -26.5 110.333 -33.5 135s-16.167 46 -27.5 64c-26 48 -60.5 78.5 -103.5 91.5s-95.833 19.5 -158.5 19.5h-193v-662h-176v1405h176v-600zM823 1841l70 -133l-440 -192l-41 81z" />
    <glyph glyph-name="afii10061" unicode="&#x40c;" horiz-adv-x="1290" 
d="M356 805l195 -0.00292969c47.333 0 90 7.33301 128 22s69 42 93 82c18 29.333 30.833 59.833 38.5 91.5l34.5 146c15.333 65.667 29.333 112.167 42 139.5c24.667 54 56 90.667 94 110s78.333 29 121 29c24.667 0 46.334 -2.66699 65.001 -8v-139
c-18.667 2.66699 -33.667 4 -45 4c-27.333 0 -53.333 -15 -78 -45c-14 -17.333 -24.333 -39.166 -31 -65.499s-16.5 -69.5 -29.5 -129.5s-23.5 -101.333 -31.5 -124c-34 -94.667 -91.333 -149.334 -172 -164.001v-6c58 -8 103.833 -28.667 137.5 -62s58.167 -68 73.5 -104
c14.667 -31.333 30.834 -85.166 48.501 -161.499s37.167 -144.166 58.5 -203.499c10 -28 21.833 -49.333 35.5 -64s32.5 -22 56.5 -22c18 0 31 1.33301 39 4v-135c-24 -13.333 -53.333 -20 -88 -20c-38.667 0 -73.334 8.33301 -104.001 25s-58.334 45.667 -83.001 87
c-26 46.667 -53.333 133.334 -82 260.001c-15.333 65.333 -26.5 110.333 -33.5 135s-16.167 46 -27.5 64c-26 48 -60.5 78.5 -103.5 91.5s-95.833 19.5 -158.5 19.5h-193v-662h-176v1405h176v-600zM823 1841l70 -133l-440 -192l-41 81z" />
    <glyph glyph-name="afii10060" horiz-adv-x="1485" 
d="M23 1405l974.001 -0.000976562v-152h-419v-481c109.333 38 215 57 317 57c148 0 259.333 -35.333 334 -106s112 -167.667 112 -291v-432h-176v389c0 52 -6.5 98.333 -19.5 139s-41.833 75.834 -86.5 105.501s-110.334 44.5 -197.001 44.5
c-93.333 0 -188 -17.667 -284 -53v-625h-177v1253h-378v152z" />
    <glyph glyph-name="afii10060" unicode="&#x40b;" horiz-adv-x="1485" 
d="M23 1405l974.001 -0.000976562v-152h-419v-481c109.333 38 215 57 317 57c148 0 259.333 -35.333 334 -106s112 -167.667 112 -291v-432h-176v389c0 52 -6.5 98.333 -19.5 139s-41.833 75.834 -86.5 105.501s-110.334 44.5 -197.001 44.5
c-93.333 0 -188 -17.667 -284 -53v-625h-177v1253h-378v152z" />
    <glyph glyph-name="afii10145" horiz-adv-x="1343" 
d="M178 1405h176v-1251h635v1251h176v-1405h-411v-369h-164v369h-412v1405z" />
    <glyph glyph-name="afii10145" unicode="&#x40f;" horiz-adv-x="1343" 
d="M178 1405h176v-1251h635v1251h176v-1405h-411v-369h-164v369h-412v1405z" />
    <glyph glyph-name="afii10099" horiz-adv-x="1155" 
d="M170 1145l-153.999 -0.000976562v117h154v143h156v-143h385v-117h-385v-332c31.333 67.333 75.5 120.333 132.5 159s125.5 58 205.5 58c39.333 0 75.166 -4.5 107.499 -13.5s59.5 -20.5 81.5 -34.5s40.667 -30 56 -48c32.667 -36 54.167 -77.333 64.5 -124
s15.5 -99.667 15.5 -159v-585c0 -58.667 -4.5 -113.667 -13.5 -165s-26.167 -96 -51.5 -134c-55.333 -83.333 -138.666 -125 -249.999 -125c-54.667 0 -110.667 6 -168 18v133c45.333 -10.667 92.333 -16 141 -16c42 0 75.5 7.16699 100.5 21.5s44.167 37.166 57.5 68.499
c19.333 42.667 29 110.334 29 203.001v542c0 52.667 -2.66699 95.834 -8 129.501s-17 62.167 -35 85.5c-33.333 45.333 -85.333 68 -156 68c-56.667 0 -109.334 -15.667 -158.001 -47c-55.333 -37.333 -94.333 -85.333 -117 -144s-34 -126.667 -34 -204v-500h-156v1145z" />
    <glyph glyph-name="afii10099" unicode="&#x452;" horiz-adv-x="1155" 
d="M170 1145l-153.999 -0.000976562v117h154v143h156v-143h385v-117h-385v-332c31.333 67.333 75.5 120.333 132.5 159s125.5 58 205.5 58c39.333 0 75.166 -4.5 107.499 -13.5s59.5 -20.5 81.5 -34.5s40.667 -30 56 -48c32.667 -36 54.167 -77.333 64.5 -124
s15.5 -99.667 15.5 -159v-585c0 -58.667 -4.5 -113.667 -13.5 -165s-26.167 -96 -51.5 -134c-55.333 -83.333 -138.666 -125 -249.999 -125c-54.667 0 -110.667 6 -168 18v133c45.333 -10.667 92.333 -16 141 -16c42 0 75.5 7.16699 100.5 21.5s44.167 37.166 57.5 68.499
c19.333 42.667 29 110.334 29 203.001v542c0 52.667 -2.66699 95.834 -8 129.501s-17 62.167 -35 85.5c-33.333 45.333 -85.333 68 -156 68c-56.667 0 -109.334 -15.667 -158.001 -47c-55.333 -37.333 -94.333 -85.333 -117 -144s-34 -126.667 -34 -204v-500h-156v1145z" />
    <glyph glyph-name="afii10109" horiz-adv-x="1053" 
d="M322 608h139.003c36.667 0 67.667 2.66699 93 8s47.833 15.5 67.5 30.5s37.167 37.5 52.5 67.5s28.333 68.333 39 115c9.33301 44 17.666 77.833 24.999 101.5s19.333 45.167 36 64.5c31.333 37.333 79.333 56 144 56c10 0 26.333 -1.33301 49 -4v-123h-33
c-30 -2.66699 -52 -13 -66 -31c-10.667 -13.333 -21.334 -44.666 -32.001 -93.999l-15 -74c-10.667 -54.667 -30.167 -96.334 -58.5 -125.001s-61.166 -45.667 -98.499 -51v-4c45.333 -3.33301 80.166 -17.666 104.499 -42.999s43.833 -58.333 58.5 -99
c13.333 -35.333 28.166 -80.333 44.499 -135s28.166 -89.334 35.499 -104.001c10 -18 20.333 -29.667 31 -35s26.334 -8 47.001 -8c16.667 0 29 0.666992 37 2v-125c-15.333 -2.66699 -38 -4 -68 -4c-53.333 0 -94 7.5 -122 22.5s-48.167 35.5 -60.5 61.5
s-26.5 64.333 -42.5 115c-21.333 69.333 -36.333 117 -45 143s-17 45 -25 57c-18.667 33.333 -43 56.333 -73 69s-67.667 19 -113 19h-151v-481h-156v1044h156v-436zM745.003 1511l70 -133l-440 -192l-41 82z" />
    <glyph glyph-name="afii10109" unicode="&#x45c;" horiz-adv-x="1053" 
d="M322 608h139.003c36.667 0 67.667 2.66699 93 8s47.833 15.5 67.5 30.5s37.167 37.5 52.5 67.5s28.333 68.333 39 115c9.33301 44 17.666 77.833 24.999 101.5s19.333 45.167 36 64.5c31.333 37.333 79.333 56 144 56c10 0 26.333 -1.33301 49 -4v-123h-33
c-30 -2.66699 -52 -13 -66 -31c-10.667 -13.333 -21.334 -44.666 -32.001 -93.999l-15 -74c-10.667 -54.667 -30.167 -96.334 -58.5 -125.001s-61.166 -45.667 -98.499 -51v-4c45.333 -3.33301 80.166 -17.666 104.499 -42.999s43.833 -58.333 58.5 -99
c13.333 -35.333 28.166 -80.333 44.499 -135s28.166 -89.334 35.499 -104.001c10 -18 20.333 -29.667 31 -35s26.334 -8 47.001 -8c16.667 0 29 0.666992 37 2v-125c-15.333 -2.66699 -38 -4 -68 -4c-53.333 0 -94 7.5 -122 22.5s-48.167 35.5 -60.5 61.5
s-26.5 64.333 -42.5 115c-21.333 69.333 -36.333 117 -45 143s-17 45 -25 57c-18.667 33.333 -43 56.333 -73 69s-67.667 19 -113 19h-151v-481h-156v1044h156v-436zM745.003 1511l70 -133l-440 -192l-41 82z" />
    <glyph glyph-name="afii10108" horiz-adv-x="1155" 
d="M326 1405l0.00195312 -143.001h385v-117h-385v-332c31.333 67.333 75.5 120.333 132.5 159s125.5 58 205.5 58c39.333 0 75.166 -4.5 107.499 -13.5s59.5 -20.5 81.5 -34.5s40.667 -30 56 -48c32.667 -36 54.167 -77.333 64.5 -124s15.5 -99.667 15.5 -159v-651h-155v612
c0 52.667 -2.66699 95.834 -8 129.501s-17 62.167 -35 85.5c-33.333 45.333 -85.333 68 -156 68c-56.667 0 -109.334 -15.667 -158.001 -47c-55.333 -37.333 -94.333 -85.333 -117 -144s-34 -126.667 -34 -204v-500h-156v1145h-154v117h154v143h156z" />
    <glyph glyph-name="afii10108" unicode="&#x45b;" horiz-adv-x="1155" 
d="M326 1405l0.00195312 -143.001h385v-117h-385v-332c31.333 67.333 75.5 120.333 132.5 159s125.5 58 205.5 58c39.333 0 75.166 -4.5 107.499 -13.5s59.5 -20.5 81.5 -34.5s40.667 -30 56 -48c32.667 -36 54.167 -77.333 64.5 -124s15.5 -99.667 15.5 -159v-651h-155v612
c0 52.667 -2.66699 95.834 -8 129.501s-17 62.167 -35 85.5c-33.333 45.333 -85.333 68 -156 68c-56.667 0 -109.334 -15.667 -158.001 -47c-55.333 -37.333 -94.333 -85.333 -117 -144s-34 -126.667 -34 -204v-500h-156v1145h-154v117h154v143h156z" />
    <glyph glyph-name="afii10062" unicode="&#xa1;" horiz-adv-x="1096" 
d="M20 1405l185.002 -0.000976562l399 -846h2l330 846h156l-418 -1038c-18 -46.667 -30.833 -79.167 -38.5 -97.5s-17.667 -39.666 -30 -63.999s-26.833 -48 -43.5 -71s-36 -44.5 -58 -64.5c-30.667 -26.667 -66.334 -47.667 -107.001 -63s-81 -23 -121 -23
c-32 0 -63.333 5.33301 -94 16v150c24.667 -10 50.667 -15 78 -15c65.333 0 118.666 19.333 159.999 58c40.667 37.333 72 95.333 94 174zM743.002 1753h155.996c-5.33301 -72 -34.666 -132 -87.999 -180c-57.333 -50.667 -135 -76 -233 -76
c-98.667 0 -176.667 25.333 -234 76c-53.333 48 -82.666 108 -87.999 180h156c0.666992 -42.667 16.834 -75.5 48.501 -98.5s70.834 -34.5 117.501 -34.5s85.667 11.5 117 34.5s47.333 55.833 48 98.5z" />
    <glyph glyph-name="afii10062" unicode="&#x40e;" horiz-adv-x="1096" 
d="M20 1405l185.002 -0.000976562l399 -846h2l330 846h156l-418 -1038c-18 -46.667 -30.833 -79.167 -38.5 -97.5s-17.667 -39.666 -30 -63.999s-26.833 -48 -43.5 -71s-36 -44.5 -58 -64.5c-30.667 -26.667 -66.334 -47.667 -107.001 -63s-81 -23 -121 -23
c-32 0 -63.333 5.33301 -94 16v150c24.667 -10 50.667 -15 78 -15c65.333 0 118.666 19.333 159.999 58c40.667 37.333 72 95.333 94 174zM743.002 1753h155.996c-5.33301 -72 -34.666 -132 -87.999 -180c-57.333 -50.667 -135 -76 -233 -76
c-98.667 0 -176.667 25.333 -234 76c-53.333 48 -82.666 108 -87.999 180h156c0.666992 -42.667 16.834 -75.5 48.501 -98.5s70.834 -34.5 117.501 -34.5s85.667 11.5 117 34.5s47.333 55.833 48 98.5z" />
    <glyph glyph-name="afii10110" unicode="&#xa2;" horiz-adv-x="874" 
d="M895 1044l-412 -1142c-27.333 -79.333 -64 -141.666 -110 -186.999c-54.667 -50 -119.667 -75 -195 -75c-48 0 -91.667 6.66699 -131 20v121c33.333 -9.33301 71 -14 113 -14c22 0 42.833 2.33301 62.5 7s37.5 13.667 53.5 27c34.667 29.333 67.667 90.333 99 183l12 34
l-367 1026h181l270 -802l281 802h143zM606 1409h148.002c0 -30 -5.5 -57.5 -16.5 -82.5s-23.5 -45.167 -37.5 -60.5c-50.667 -57.333 -126.334 -86 -227.001 -86s-176.334 28.667 -227.001 86c-35.333 40 -53 87.667 -53 143h147c2 -34 13.667 -62.667 35 -86
c22 -23.333 54.667 -35 98 -35c44 0 76.667 11.667 98 35s33 52 35 86z" />
    <glyph glyph-name="afii10110" unicode="&#x45e;" horiz-adv-x="874" 
d="M895 1044l-412 -1142c-27.333 -79.333 -64 -141.666 -110 -186.999c-54.667 -50 -119.667 -75 -195 -75c-48 0 -91.667 6.66699 -131 20v121c33.333 -9.33301 71 -14 113 -14c22 0 42.833 2.33301 62.5 7s37.5 13.667 53.5 27c34.667 29.333 67.667 90.333 99 183l12 34
l-367 1026h181l270 -802l281 802h143zM606 1409h148.002c0 -30 -5.5 -57.5 -16.5 -82.5s-23.5 -45.167 -37.5 -60.5c-50.667 -57.333 -126.334 -86 -227.001 -86s-176.334 28.667 -227.001 86c-35.333 40 -53 87.667 -53 143h147c2 -34 13.667 -62.667 35 -86
c22 -23.333 54.667 -35 98 -35c44 0 76.667 11.667 98 35s33 52 35 86z" />
    <glyph glyph-name="afii10057" unicode="&#xa3;" horiz-adv-x="793" 
d="M627 1405l-0.000976562 -946c0 -77.333 -5.66699 -142 -17 -194s-34.333 -100 -69 -144c-74.667 -94 -186.667 -141 -336 -141c-64 0 -132.333 9.33301 -205 28v152c55.333 -19.333 115.333 -29 180 -29c84.667 0 150.334 21.333 197.001 64c33.333 30.667 54 64 62 100
s12 82.333 12 139v971h176z" />
    <glyph glyph-name="afii10057" unicode="&#x408;" horiz-adv-x="793" 
d="M627 1405l-0.000976562 -946c0 -77.333 -5.66699 -142 -17 -194s-34.333 -100 -69 -144c-74.667 -94 -186.667 -141 -336 -141c-64 0 -132.333 9.33301 -205 28v152c55.333 -19.333 115.333 -29 180 -29c84.667 0 150.334 21.333 197.001 64c33.333 30.667 54 64 62 100
s12 82.333 12 139v971h176z" />
    <glyph glyph-name="currency" unicode="&#xa4;" horiz-adv-x="1176" 
d="M182 391l107 107c-44 56 -66 122.667 -66 200s22 144.333 66 201l-107 107l94 94l107 -107c52.667 46.667 121 70 205 70s152.333 -23.333 205 -70l106 107l94 -94l-106 -107c43.333 -56.667 65 -123.667 65 -201s-21.667 -144 -65 -200l106 -107l-94 -94l-106 106
c-56 -46 -124.333 -69 -205 -69s-149 23 -205 69l-107 -106zM358 698c0 -42.667 10.333 -81.334 31 -116.001s48.5 -62.167 83.5 -82.5s73.5 -30.5 115.5 -30.5c42.667 0 81.334 10.167 116.001 30.5s62.167 47.833 82.5 82.5s30.5 73.334 30.5 116.001
c0 42 -10.167 80.5 -30.5 115.5s-47.833 62.833 -82.5 83.5s-73.334 31 -116.001 31c-42 0 -80.5 -10.333 -115.5 -31s-62.833 -48.5 -83.5 -83.5s-31 -73.5 -31 -115.5z" />
    <glyph glyph-name="afii10050" unicode="&#xa5;" horiz-adv-x="1034" 
d="M180 1405h678v188h156v-344h-658v-1249h-176v1405z" />
    <glyph glyph-name="afii10050" unicode="&#x490;" horiz-adv-x="1034" 
d="M180 1405h678v188h156v-344h-658v-1249h-176v1405z" />
    <glyph glyph-name="brokenbar" unicode="&#xa6;" horiz-adv-x="1036" 
d="M580 563v-563h-123v563h123zM580 1405v-563h-123v563h123z" />
    <glyph glyph-name="section" unicode="&#xa7;" horiz-adv-x="1253" 
d="M1044 1151l-155.003 -16.0049c-27.333 60 -67.166 100.833 -119.499 122.5s-102.833 32.5 -151.5 32.5c-47.333 0 -87.666 -8 -120.999 -24s-58.666 -36.5 -75.999 -61.5s-26 -49.833 -26 -74.5c0 -45.333 14.5 -83 43.5 -113s59.333 -51.5 91 -64.5
s79.167 -30.167 142.5 -51.5l127 -41c52 -17.333 97.333 -35.666 136 -54.999s72 -47.666 100 -84.999s42 -84.666 42 -141.999c0 -62 -15.333 -117.167 -46 -165.5s-70.667 -91.5 -120 -129.5c63.333 -25.333 112.666 -64.833 147.999 -118.5s53 -112.5 53 -176.5
c0 -60.667 -19.333 -119.667 -58 -177s-94.834 -104.333 -168.501 -141s-159.167 -55 -256.5 -55c-89.333 0 -181 19.5 -275 58.5s-165 121.167 -213 246.5l181 27c28 -64 69.833 -112.833 125.5 -146.5s118.167 -50.5 187.5 -50.5c84 0 154.5 20.833 211.5 62.5
s85.5 92.5 85.5 152.5c0 44 -12.167 80.333 -36.5 109s-53.666 50.167 -87.999 64.5s-72.833 26.833 -115.5 37.5l-164 43c-70 20 -117.667 34.5 -143 43.5s-55.166 24.667 -89.499 47s-61.833 51.333 -82.5 87s-31 78.834 -31 129.501c0 70.667 19.667 132.334 59 185.001
s86.666 93.667 141.999 123c-53.333 27.333 -94.666 64.5 -123.999 111.5s-44 101.167 -44 162.5c0 51.333 13 101.333 39 150s68.5 88.667 127.5 120s134.5 47 226.5 47c81.333 0 164.5 -17.667 249.5 -53s147.167 -109 186.5 -221zM695.997 724.995l-180.002 62.998
c-39.333 -18 -76.166 -44 -110.499 -78s-51.5 -76.667 -51.5 -128c0 -34 7.33301 -62.667 22 -86s33.834 -42.166 57.501 -56.499s51 -26.833 82 -37.5l86.5 -29l154 -49c47.333 21.333 84 52.5 110 93.5s39 82.167 39 123.5c0 28.667 -7.16699 53.834 -21.5 75.501
s-31.166 38.5 -50.499 50.5s-37.833 21.5 -55.5 28.5s-44.834 16.833 -81.501 29.5z" />
    <glyph glyph-name="afii10023" unicode="&#xa8;" horiz-adv-x="1161" 
d="M180 1405h889v-152h-713v-446h566v-143h-566v-512h734v-152h-910v1405zM512 1712v-194h-195v194h195zM909 1712v-194h-194v194h194z" />
    <glyph glyph-name="afii10023" unicode="&#x401;" horiz-adv-x="1161" 
d="M180 1405h889v-152h-713v-446h566v-143h-566v-512h734v-152h-910v1405zM512 1712v-194h-195v194h195zM909 1712v-194h-194v194h194z" />
    <glyph glyph-name="copyright" unicode="&#xa9;" horiz-adv-x="1577" 
d="M995 573l123.002 -25.998c-18 -76.667 -50 -140.334 -96 -191.001c-60.667 -66.667 -143.334 -100 -248.001 -100c-102 0 -185.333 34 -250 102c-39.333 41.333 -69.666 94.333 -90.999 159s-32 133.334 -32 206.001c0 135.333 39.667 243.333 119 324
c70 68 157.333 102 262 102c102.667 0 185.334 -34 248.001 -102c40.667 -47.333 70 -107.666 88 -180.999l-127 -24c-20 59.333 -37.667 99.666 -53 120.999c-18.667 28 -39.5 48.167 -62.5 60.5s-54.833 18.5 -95.5 18.5c-66.667 0 -119 -22.333 -157 -67
c-26.667 -31.333 -46.334 -73.833 -59.001 -127.5s-19 -104.167 -19 -151.5c0 -112 26 -199.333 78 -262c39.333 -48 89.666 -72 150.999 -72c32 0 62.5 6.66699 91.5 20s52.5 31.333 70.5 54c9.33301 11.333 17.666 24.666 24.999 39.999s14 32.666 20 51.999z
M47.002 702.002c0 100 19.167 195.5 57.5 286.5s91.333 170.667 159 239s146.5 121.5 236.5 159.5s186 57 288 57c102.667 0 198.834 -18.833 288.501 -56.5s168.667 -90.667 237 -159s121.5 -147.5 159.5 -237.5s57 -186.333 57 -289c0 -102 -18.833 -197.833 -56.5 -287.5
s-90.834 -168.5 -159.501 -236.5s-148.5 -121.167 -239.5 -159.5s-186.5 -57.5 -286.5 -57.5c-99.333 0 -194.5 19.167 -285.5 57.5s-170.5 91.5 -238.5 159.5s-121.167 147.5 -159.5 238.5s-57.5 186.167 -57.5 285.5zM1423 702.002c0 86 -16.333 167.667 -49 245
s-78.334 145.333 -137.001 204s-126.667 104.334 -204 137.001s-159 49 -245 49c-84.667 0 -165.5 -16.333 -242.5 -49s-144.833 -78.334 -203.5 -137.001s-104.667 -126.667 -138 -204s-50 -159 -50 -245c0 -84.667 16.5 -165.5 49.5 -242.5s79 -145 138 -204
s127 -105 204 -138s157.833 -49.5 242.5 -49.5c86 0 167.667 16.667 245 50s145.333 79.333 204 138s104.334 126.5 137.001 203.5s49 157.833 49 242.5z" />
    <glyph glyph-name="afii10053" unicode="&#xaa;" horiz-adv-x="1245" 
d="M1163 1014l-171.999 -31.0049c-20.667 70.667 -55.334 131.334 -104.001 182.001c-69.333 72.667 -151.333 109 -246 109c-113.333 0 -202.666 -46.333 -267.999 -139c-28.667 -40.667 -50.834 -91.167 -66.501 -151.5s-23.5 -119.166 -23.5 -176.499h569v-152h-573
c0 -51.333 5 -106.5 15 -165.5s26.667 -111.5 50 -157.5c29.333 -56 70.333 -103.5 123 -142.5s116 -58.5 190 -58.5c98.667 0 183.334 41 254.001 123c41.333 46.667 70 99.334 86 158.001l179 -35c-13.333 -53.333 -34.833 -104 -64.5 -152s-61.5 -87.667 -95.5 -119
c-48 -43.333 -101.667 -75.166 -161 -95.499s-121.666 -30.5 -186.999 -30.5c-121.333 0 -219.333 26 -294 78s-131.667 110.333 -171 175c-36.667 60.667 -64.667 136.167 -84 226.5s-29 180.833 -29 271.5c0 120.667 15.167 228.334 45.5 323.001s72.5 170 126.5 226
c93.333 96.667 217.666 145 372.999 145c152 0 275.667 -46.333 371 -139c26.667 -26 51 -56.667 73 -92s39.167 -67 51.5 -95s23.166 -56.333 32.499 -85z" />
    <glyph glyph-name="afii10053" unicode="&#x404;" horiz-adv-x="1245" 
d="M1163 1014l-171.999 -31.0049c-20.667 70.667 -55.334 131.334 -104.001 182.001c-69.333 72.667 -151.333 109 -246 109c-113.333 0 -202.666 -46.333 -267.999 -139c-28.667 -40.667 -50.834 -91.167 -66.501 -151.5s-23.5 -119.166 -23.5 -176.499h569v-152h-573
c0 -51.333 5 -106.5 15 -165.5s26.667 -111.5 50 -157.5c29.333 -56 70.333 -103.5 123 -142.5s116 -58.5 190 -58.5c98.667 0 183.334 41 254.001 123c41.333 46.667 70 99.334 86 158.001l179 -35c-13.333 -53.333 -34.833 -104 -64.5 -152s-61.5 -87.667 -95.5 -119
c-48 -43.333 -101.667 -75.166 -161 -95.499s-121.666 -30.5 -186.999 -30.5c-121.333 0 -219.333 26 -294 78s-131.667 110.333 -171 175c-36.667 60.667 -64.667 136.167 -84 226.5s-29 180.833 -29 271.5c0 120.667 15.167 228.334 45.5 323.001s72.5 170 126.5 226
c93.333 96.667 217.666 145 372.999 145c152 0 275.667 -46.333 371 -139c26.667 -26 51 -56.667 73 -92s39.167 -67 51.5 -95s23.166 -56.333 32.499 -85z" />
    <glyph glyph-name="guillemotleft" unicode="&#xab;" horiz-adv-x="723" 
d="M246 526l108 -299h-90l-178 299l178 291h90zM514 526l109 -299h-91l-178 299l178 291h91z" />
    <glyph glyph-name="logicalnot" unicode="&#xac;" 
d="M1145 791v-553h-133v419h-928v134h1061z" />
    <glyph glyph-name="hyphen" unicode="&#xad;" horiz-adv-x="641" 
d="M539 590v-127h-437v127h437z" />
    <glyph glyph-name="registered" unicode="&#xae;" horiz-adv-x="1577" 
d="M469 1133h362c78.667 0 143 -18 193 -54c32 -22 56.667 -50.333 74 -85s26 -69.667 26 -105c0 -28.667 -5.66699 -58 -17 -88s-27.333 -55.333 -48 -76c-26 -26 -58.667 -45 -98 -57l176 -396h-140l-166 367h-235v-367h-127v861zM596 739l221 0.000976562
c27.333 0 52 3.16699 74 9.5s41.667 18.833 59 37.5c26 28 39 63 39 105c0 43.333 -15 76.666 -45 99.999c-27.333 23.333 -65 35 -113 35h-235v-287zM47 702.001c0 100 19.167 195.5 57.5 286.5s91.333 170.667 159 239s146.5 121.5 236.5 159.5s186 57 288 57
c102.667 0 198.834 -18.833 288.501 -56.5s168.667 -90.667 237 -159s121.5 -147.5 159.5 -237.5s57 -186.333 57 -289c0 -102 -18.833 -197.833 -56.5 -287.5s-90.834 -168.5 -159.501 -236.5s-148.5 -121.167 -239.5 -159.5s-186.5 -57.5 -286.5 -57.5
c-99.333 0 -194.5 19.167 -285.5 57.5s-170.5 91.5 -238.5 159.5s-121.167 147.5 -159.5 238.5s-57.5 186.167 -57.5 285.5zM1423 702.001c0 86 -16.333 167.667 -49 245s-78.334 145.333 -137.001 204s-126.667 104.334 -204 137.001s-159 49 -245 49
c-84.667 0 -165.5 -16.333 -242.5 -49s-144.833 -78.334 -203.5 -137.001s-104.667 -126.667 -138 -204s-50 -159 -50 -245c0 -84.667 16.5 -165.5 49.5 -242.5s79 -145 138 -204s127 -105 204 -138s157.833 -49.5 242.5 -49.5c86 0 167.667 16.667 245 50
s145.333 79.333 204 138s104.334 126.5 137.001 203.5s49 157.833 49 242.5z" />
    <glyph glyph-name="afii10056" unicode="&#xaf;" horiz-adv-x="561" 
d="M369 1405v-1405h-176v1405h176zM510 1712v-194h-164v194h164zM215 1712v-194h-164v194h164z" />
    <glyph glyph-name="afii10056" unicode="&#x407;" horiz-adv-x="561" 
d="M369 1405v-1405h-176v1405h176zM510 1712v-194h-164v194h164zM215 1712v-194h-164v194h164z" />
    <glyph glyph-name="degree" unicode="&#xb0;" horiz-adv-x="817" 
d="M102 1118c0 55.333 13.665 106.499 40.998 153.499s64.833 84.333 112.5 112s99.167 41.5 154.5 41.5c42.667 0 82.5 -7.66699 119.5 -23s69.833 -37.333 98.5 -66s50.667 -61.334 66 -98.001s23 -76.667 23 -120c0 -55.333 -13.667 -106.666 -41 -153.999
s-64.666 -84.666 -111.999 -111.999s-98.666 -41 -153.999 -41c-85.333 0 -158 30 -218 90s-90 132.333 -90 217zM224.998 1118c0 -50.667 18.001 -93.999 54.001 -129.999s79.667 -54 131 -54c50.667 0 94 17.667 130 53s54 79 54 131c0 34 -8.33301 65.167 -25 93.5
s-38.834 50.666 -66.501 66.999s-58.5 24.5 -92.5 24.5c-52.667 0 -96.667 -18 -132 -54s-53 -79.667 -53 -131z" />
    <glyph glyph-name="plusminus" unicode="&#xb1;" horiz-adv-x="1317" 
d="M592 1294h133v-463h463v-133h-463v-462h-133v462h-463v133h463v463zM129 0v133h1059v-133h-1059z" />
    <glyph glyph-name="afii10055" unicode="&#xb2;" horiz-adv-x="537" 
d="M356 1405v-1405h-176v1405h176z" />
    <glyph glyph-name="afii10055" unicode="&#x406;" horiz-adv-x="537" 
d="M356 1405v-1405h-176v1405h176z" />
    <glyph glyph-name="afii10103" unicode="&#xb3;" horiz-adv-x="500" 
d="M328 1044v-1044h-156v1044h156zM336 1405v-180h-172v180h172z" />
    <glyph glyph-name="afii10103" unicode="&#x456;" horiz-adv-x="500" 
d="M328 1044v-1044h-156v1044h156zM336 1405v-180h-172v180h172z" />
    <glyph glyph-name="afii10098" unicode="&#xb4;" horiz-adv-x="817" 
d="M166 1044h510v130h121v-256h-475v-918h-156v1044z" />
    <glyph glyph-name="afii10098" unicode="&#x491;" horiz-adv-x="817" 
d="M166 1044h510v130h121v-256h-475v-918h-156v1044z" />
    <glyph glyph-name="mu" unicode="&#xb5;" horiz-adv-x="1055" 
d="M932 1044v-1044h-141v207l-3 2c-30 -72.667 -75 -129 -135 -169s-122 -60 -186 -60c-28 0 -57.833 3.83301 -89.5 11.5s-64.5 20.167 -98.5 37.5v-369h-156v1384h156v-636c0 -94 15.833 -165.667 47.5 -215s83.167 -74 154.5 -74c50 0 97.5 13.833 142.5 41.5
s81.667 69.834 110 126.501s42.5 123.334 42.5 200.001v557h156z" />
    <glyph glyph-name="paragraph" unicode="&#xb6;" horiz-adv-x="1186" 
d="M1073 1405l-0.00195312 -132.998h-119v-1657h-133v1657h-166v-1657h-133v825c-105.333 3.33301 -195.333 39.666 -270 108.999c-45.333 41.333 -81.666 94 -108.999 158s-41 134.333 -41 211c0 72 13.833 139.5 41.5 202.5s64.5 116.833 110.5 161.5
c54.667 53.333 110.834 87.166 168.501 101.499s128.5 21.5 212.5 21.5h438z" />
    <glyph glyph-name="afii10071" unicode="&#xb8;" horiz-adv-x="1092" 
d="M850 315l151 -30.001c-14 -46 -35.167 -88.167 -63.5 -126.5s-63.833 -72.166 -106.5 -101.499c-75.333 -51.333 -164.666 -77 -267.999 -77c-74 0 -140.167 12.333 -198.5 37s-110.166 62.667 -155.499 114c-84.667 96.667 -127 224.334 -127 383.001
c0 97.333 18.167 187.833 54.5 271.5s91.166 151.167 164.499 202.5s162 77 266 77c117.333 0 210.166 -29.833 278.499 -89.5s114.5 -129.334 138.5 -209.001s36 -156.167 36 -229.5v-37h-758c0 -80 11.667 -147.667 35 -203c49.333 -121.333 140 -182 272 -182
c92 0 164.333 30 217 90c28 30 49.333 66.667 64 110zM270 626.999l570 0.000976562c-2.66699 75.333 -19 138.666 -49 189.999c-50 80.667 -124 121 -222 121c-93.333 0 -169 -35.667 -227 -107c-46 -58.667 -70 -126.667 -72 -204zM483 1442v-195h-194v195h194zM874 1442
v-195h-194v195h194z" />
    <glyph glyph-name="afii10071" unicode="&#x451;" horiz-adv-x="1092" 
d="M850 315l151 -30.001c-14 -46 -35.167 -88.167 -63.5 -126.5s-63.833 -72.166 -106.5 -101.499c-75.333 -51.333 -164.666 -77 -267.999 -77c-74 0 -140.167 12.333 -198.5 37s-110.166 62.667 -155.499 114c-84.667 96.667 -127 224.334 -127 383.001
c0 97.333 18.167 187.833 54.5 271.5s91.166 151.167 164.499 202.5s162 77 266 77c117.333 0 210.166 -29.833 278.499 -89.5s114.5 -129.334 138.5 -209.001s36 -156.167 36 -229.5v-37h-758c0 -80 11.667 -147.667 35 -203c49.333 -121.333 140 -182 272 -182
c92 0 164.333 30 217 90c28 30 49.333 66.667 64 110zM270 626.999l570 0.000976562c-2.66699 75.333 -19 138.666 -49 189.999c-50 80.667 -124 121 -222 121c-93.333 0 -169 -35.667 -227 -107c-46 -58.667 -70 -126.667 -72 -204zM483 1442v-195h-194v195h194zM874 1442
v-195h-194v195h194z" />
    <glyph glyph-name="numero" unicode="&#xb9;" horiz-adv-x="2081" 
d="M385 1405l668.001 -1145h4c-5.33301 31.333 -8 69 -8 113v1032h147v-1405h-172l-684 1178l-33 47h-6c0.666992 -2 1.16699 -3.83301 1.5 -5.5s0.5 -4.16699 0.5 -7.5c1.33301 -4 2.16602 -7.5 2.49902 -10.5s0.833008 -6.16699 1.5 -9.5c2.66699 -16 4 -42.667 4 -80
v-1112h-147v1405h221zM1630 1405c90.667 0 162.332 -35.0029 214.999 -105.003c48 -62.667 72 -147 72 -253c0 -78 -12.667 -144 -38 -198s-59.666 -94.333 -102.999 -121s-92 -40 -146 -40c-50 0 -92.333 9.83301 -127 29.5s-64 44.834 -88 75.501
c-48 62.667 -72 147.334 -72 254.001c0 106 24 190.333 72 253c24 30.667 53.333 55.834 88 75.501s77 29.5 127 29.5zM1630 1298c-54 0 -95.667 -25.666 -125 -76.999c-23.333 -42 -35 -100 -35 -174c0 -71.333 10.333 -128 31 -170c27.333 -54.667 70.333 -82 129 -82
c40 0 76.667 17.667 110 53s50 101.666 50 198.999c0 72 -11 129.333 -33 172c-24.667 52.667 -67 79 -127 79zM1364 554.998h532v-106h-532v106z" />
    <glyph glyph-name="numero" unicode="&#x2116;" horiz-adv-x="2081" 
d="M385 1405l668.001 -1145h4c-5.33301 31.333 -8 69 -8 113v1032h147v-1405h-172l-684 1178l-33 47h-6c0.666992 -2 1.16699 -3.83301 1.5 -5.5s0.5 -4.16699 0.5 -7.5c1.33301 -4 2.16602 -7.5 2.49902 -10.5s0.833008 -6.16699 1.5 -9.5c2.66699 -16 4 -42.667 4 -80
v-1112h-147v1405h221zM1630 1405c90.667 0 162.332 -35.0029 214.999 -105.003c48 -62.667 72 -147 72 -253c0 -78 -12.667 -144 -38 -198s-59.666 -94.333 -102.999 -121s-92 -40 -146 -40c-50 0 -92.333 9.83301 -127 29.5s-64 44.834 -88 75.501
c-48 62.667 -72 147.334 -72 254.001c0 106 24 190.333 72 253c24 30.667 53.333 55.834 88 75.501s77 29.5 127 29.5zM1630 1298c-54 0 -95.667 -25.666 -125 -76.999c-23.333 -42 -35 -100 -35 -174c0 -71.333 10.333 -128 31 -170c27.333 -54.667 70.333 -82 129 -82
c40 0 76.667 17.667 110 53s50 101.666 50 198.999c0 72 -11 129.333 -33 172c-24.667 52.667 -67 79 -127 79zM1364 554.998h532v-106h-532v106z" />
    <glyph glyph-name="afii10101" unicode="&#xba;" horiz-adv-x="1032" 
d="M944 764l-153.001 -26.999c-14.667 41.333 -36 77 -64 107c-22 24.667 -51.5 45.167 -88.5 61.5s-76.5 24.5 -118.5 24.5c-93.333 0 -163 -39.667 -209 -119c-32.667 -65.333 -49 -132.333 -49 -201h379v-127h-379c0 -106 20 -191.333 60 -256
c17.333 -28 37.333 -50.5 60 -67.5s45.834 -28.667 69.501 -35s50.5 -9.5 80.5 -9.5c34.667 0 66.834 4.66699 96.501 14s58.5 25.666 86.5 48.999c44 36 72 79 84 129l162 -26c-30.667 -105.333 -90.334 -185.333 -179.001 -240c-66 -40.667 -150 -61 -252 -61
c-72 0 -134.667 11 -188 33s-103 64.667 -149 128c-74 104.667 -111 240.667 -111 408c0 59.333 8 124 24 194s47 133 93 189c29.333 34.667 60.666 61.834 93.999 81.501s67.333 33.167 102 40.5s72.334 11 113.001 11c118 0 215 -28.667 291 -86
c72.667 -56.667 121 -128.334 145 -215.001z" />
    <glyph glyph-name="afii10101" unicode="&#x454;" horiz-adv-x="1032" 
d="M944 764l-153.001 -26.999c-14.667 41.333 -36 77 -64 107c-22 24.667 -51.5 45.167 -88.5 61.5s-76.5 24.5 -118.5 24.5c-93.333 0 -163 -39.667 -209 -119c-32.667 -65.333 -49 -132.333 -49 -201h379v-127h-379c0 -106 20 -191.333 60 -256
c17.333 -28 37.333 -50.5 60 -67.5s45.834 -28.667 69.501 -35s50.5 -9.5 80.5 -9.5c34.667 0 66.834 4.66699 96.501 14s58.5 25.666 86.5 48.999c44 36 72 79 84 129l162 -26c-30.667 -105.333 -90.334 -185.333 -179.001 -240c-66 -40.667 -150 -61 -252 -61
c-72 0 -134.667 11 -188 33s-103 64.667 -149 128c-74 104.667 -111 240.667 -111 408c0 59.333 8 124 24 194s47 133 93 189c29.333 34.667 60.666 61.834 93.999 81.501s67.333 33.167 102 40.5s72.334 11 113.001 11c118 0 215 -28.667 291 -86
c72.667 -56.667 121 -128.334 145 -215.001z" />
    <glyph glyph-name="guillemotright" unicode="&#xbb;" horiz-adv-x="723" 
d="M209 526l-109 291h90l179 -291l-179 -299h-90zM477 526l-108 291h90l178 -291l-178 -299h-90z" />
    <glyph glyph-name="afii10105" unicode="&#xbc;" horiz-adv-x="485" 
d="M319 1044l-0.000976562 -1054c0 -70 -7.5 -131.333 -22.5 -184s-48.167 -94.334 -99.5 -125.001c-44.667 -26 -105.667 -39 -183 -39c-49.333 0 -97.666 6 -144.999 18v123c46 -9.33301 85.667 -14 119 -14c71.333 0 120.333 20.333 147 61c19.333 29.333 29 80 29 152
v1062h155zM327.999 1405v-180h-172v180h172z" />
    <glyph glyph-name="afii10105" unicode="&#x458;" horiz-adv-x="485" 
d="M319 1044l-0.000976562 -1054c0 -70 -7.5 -131.333 -22.5 -184s-48.167 -94.334 -99.5 -125.001c-44.667 -26 -105.667 -39 -183 -39c-49.333 0 -97.666 6 -144.999 18v123c46 -9.33301 85.667 -14 119 -14c71.333 0 120.333 20.333 147 61c19.333 29.333 29 80 29 152
v1062h155zM327.999 1405v-180h-172v180h172z" />
    <glyph glyph-name="afii10054" unicode="&#xbd;" horiz-adv-x="1231" 
d="M1112 1081l-159.997 -42.999c-19.333 67.333 -54.666 121.333 -105.999 162c-61.333 49.333 -144 74 -248 74c-77.333 0 -140 -15 -188 -45c-33.333 -20 -58.166 -46.167 -74.499 -78.5s-24.5 -66.833 -24.5 -103.5c0 -56.667 22.667 -100.667 68 -132
s106.666 -56.333 183.999 -75l209 -52c113.333 -26.667 199.333 -63.334 258 -110.001c23.333 -20 44.166 -42.167 62.499 -66.5s34 -54.666 47 -90.999s19.5 -76.166 19.5 -119.499c0 -65.333 -14.167 -125.5 -42.5 -180.5s-65.833 -101.167 -112.5 -138.5
c-51.333 -40.667 -106.833 -67.834 -166.5 -81.501s-121.834 -20.5 -186.501 -20.5c-70.667 0 -135.5 5.83301 -194.5 17.5s-117.5 37.167 -175.5 76.5c-39.333 26.667 -80.166 64.667 -122.499 114s-74.833 113 -97.5 191l158 35
c8.66699 -30.667 24.167 -64.334 46.5 -101.001s53.166 -70 92.499 -100c42 -32 86.833 -53.667 134.5 -65s95.167 -17 142.5 -17c128 0 216 25.5 264 76.5s72 106.167 72 165.5c0 118.667 -78 197 -234 235l-233 58c-128 32 -221.5 79.167 -280.5 141.5
s-88.5 139.166 -88.5 230.499c0 126 44.167 222 132.5 288s203.166 99 344.499 99c105.333 0 193.166 -16.667 263.499 -50s124 -76.166 161 -128.499s62.167 -107.5 75.5 -165.5z" />
    <glyph glyph-name="afii10054" unicode="&#x405;" horiz-adv-x="1231" 
d="M1112 1081l-159.997 -42.999c-19.333 67.333 -54.666 121.333 -105.999 162c-61.333 49.333 -144 74 -248 74c-77.333 0 -140 -15 -188 -45c-33.333 -20 -58.166 -46.167 -74.499 -78.5s-24.5 -66.833 -24.5 -103.5c0 -56.667 22.667 -100.667 68 -132
s106.666 -56.333 183.999 -75l209 -52c113.333 -26.667 199.333 -63.334 258 -110.001c23.333 -20 44.166 -42.167 62.499 -66.5s34 -54.666 47 -90.999s19.5 -76.166 19.5 -119.499c0 -65.333 -14.167 -125.5 -42.5 -180.5s-65.833 -101.167 -112.5 -138.5
c-51.333 -40.667 -106.833 -67.834 -166.5 -81.501s-121.834 -20.5 -186.501 -20.5c-70.667 0 -135.5 5.83301 -194.5 17.5s-117.5 37.167 -175.5 76.5c-39.333 26.667 -80.166 64.667 -122.499 114s-74.833 113 -97.5 191l158 35
c8.66699 -30.667 24.167 -64.334 46.5 -101.001s53.166 -70 92.499 -100c42 -32 86.833 -53.667 134.5 -65s95.167 -17 142.5 -17c128 0 216 25.5 264 76.5s72 106.167 72 165.5c0 118.667 -78 197 -234 235l-233 58c-128 32 -221.5 79.167 -280.5 141.5
s-88.5 139.166 -88.5 230.499c0 126 44.167 222 132.5 288s203.166 99 344.499 99c105.333 0 193.166 -16.667 263.499 -50s124 -76.166 161 -128.499s62.167 -107.5 75.5 -165.5z" />
    <glyph glyph-name="afii10102" unicode="&#xbe;" horiz-adv-x="1001" 
d="M905 805l-147 -31.001c-11.333 33.333 -28.333 62.166 -51 86.499s-51.167 43.333 -85.5 57s-73.5 20.5 -117.5 20.5c-82 0 -139 -16.833 -171 -50.5s-48 -70.167 -48 -109.5c0 -49.333 17.667 -83 53 -101s79 -32 131 -42l141 -27c56.667 -10 105.5 -21.5 146.5 -34.5
s77.5 -34.833 109.5 -65.5c56 -53.333 84 -125 84 -215c0 -91.333 -34 -165.666 -102 -222.999c-29.333 -25.333 -62.5 -44.666 -99.5 -57.999s-73.333 -22 -109 -26s-70.5 -6 -104.5 -6c-122.667 0 -219 19 -289 57c-97.333 51.333 -159 131 -185 239l156 31
c10 -50.667 34.667 -93.667 74 -129c60 -48 138.333 -72 235 -72c78.667 0 139.667 16.667 183 50c40.667 30 61 71.667 61 125s-17.667 90.333 -53 111s-85.333 37.334 -150 50.001l-157 31c-86 17.333 -158.5 47.5 -217.5 90.5s-88.5 109.833 -88.5 200.5
c0 88 31.667 158.333 95 211c70 60 171 90 303 90c135.333 0 238.333 -34 309 -102c44.667 -42.667 76 -95.334 94 -158.001z" />
    <glyph glyph-name="afii10102" unicode="&#x455;" horiz-adv-x="1001" 
d="M905 805l-147 -31.001c-11.333 33.333 -28.333 62.166 -51 86.499s-51.167 43.333 -85.5 57s-73.5 20.5 -117.5 20.5c-82 0 -139 -16.833 -171 -50.5s-48 -70.167 -48 -109.5c0 -49.333 17.667 -83 53 -101s79 -32 131 -42l141 -27c56.667 -10 105.5 -21.5 146.5 -34.5
s77.5 -34.833 109.5 -65.5c56 -53.333 84 -125 84 -215c0 -91.333 -34 -165.666 -102 -222.999c-29.333 -25.333 -62.5 -44.666 -99.5 -57.999s-73.333 -22 -109 -26s-70.5 -6 -104.5 -6c-122.667 0 -219 19 -289 57c-97.333 51.333 -159 131 -185 239l156 31
c10 -50.667 34.667 -93.667 74 -129c60 -48 138.333 -72 235 -72c78.667 0 139.667 16.667 183 50c40.667 30 61 71.667 61 125s-17.667 90.333 -53 111s-85.333 37.334 -150 50.001l-157 31c-86 17.333 -158.5 47.5 -217.5 90.5s-88.5 109.833 -88.5 200.5
c0 88 31.667 158.333 95 211c70 60 171 90 303 90c135.333 0 238.333 -34 309 -102c44.667 -42.667 76 -95.334 94 -158.001z" />
    <glyph glyph-name="afii10104" unicode="&#xbf;" horiz-adv-x="561" 
d="M358 1044v-1044h-155v1044h155zM510 1442v-195h-164v195h164zM215 1442v-195h-164v195h164z" />
    <glyph glyph-name="afii10104" unicode="&#x457;" horiz-adv-x="561" 
d="M358 1044v-1044h-155v1044h155zM510 1442v-195h-164v195h164zM215 1442v-195h-164v195h164z" />
    <glyph glyph-name="afii10017" unicode="&#xc0;" horiz-adv-x="1147" 
d="M682 1405l457 -1405h-193l-131 408h-504l-127 -408h-159l454 1405h203zM772 551l-209 666l-211 -666h420z" />
    <glyph glyph-name="afii10017" unicode="&#x410;" horiz-adv-x="1147" 
d="M682 1405l457 -1405h-193l-131 408h-504l-127 -408h-159l454 1405h203zM772 551l-209 666l-211 -666h420z" />
    <glyph glyph-name="afii10018" unicode="&#xc1;" horiz-adv-x="1307" 
d="M1059 1405v-152h-703v-432h351c172.667 0 296.667 -32.667 372 -98c38 -32.667 68.333 -76.167 91 -130.5s34 -112.5 34 -174.5c0 -54.667 -9.5 -109.5 -28.5 -164.5s-46.167 -101.833 -81.5 -140.5c-42 -44.667 -86.167 -74.667 -132.5 -90s-97.833 -23 -154.5 -23h-627
v1405h879zM356 670v-518h410c36.667 0 70 4 100 12s57.333 25 82 51c45.333 47.333 68 114.333 68 201c0 80.667 -25.333 144 -76 190c-29.333 26 -63 43.167 -101 51.5s-82 12.5 -132 12.5h-351z" />
    <glyph glyph-name="afii10018" unicode="&#x411;" horiz-adv-x="1307" 
d="M1059 1405v-152h-703v-432h351c172.667 0 296.667 -32.667 372 -98c38 -32.667 68.333 -76.167 91 -130.5s34 -112.5 34 -174.5c0 -54.667 -9.5 -109.5 -28.5 -164.5s-46.167 -101.833 -81.5 -140.5c-42 -44.667 -86.167 -74.667 -132.5 -90s-97.833 -23 -154.5 -23h-627
v1405h879zM356 670v-518h410c36.667 0 70 4 100 12s57.333 25 82 51c45.333 47.333 68 114.333 68 201c0 80.667 -25.333 144 -76 190c-29.333 26 -63 43.167 -101 51.5s-82 12.5 -132 12.5h-351z" />
    <glyph glyph-name="afii10019" unicode="&#xc2;" horiz-adv-x="1288" 
d="M180 1405l537.002 -0.00195312c58.667 0 113.167 -4.16699 163.5 -12.5s97.5 -28.166 141.5 -59.499c35.333 -24 66 -58.167 92 -102.5s39 -98.833 39 -163.5c0 -108.667 -36.333 -192.667 -109 -252c-32 -27.333 -77 -49.666 -135 -66.999v-5
c60.667 -11.333 114 -35.666 160 -72.999c87.333 -70.667 131 -167 131 -289c0 -42 -6.5 -82.5 -19.5 -121.5s-29.5 -72.333 -49.5 -100s-42 -50.834 -66 -69.501c-46.667 -38 -98.334 -62.5 -155.001 -73.5s-120.334 -16.5 -191.001 -16.5h-539v1405zM356.002 1253
l-0.00195312 -446h295c52.667 0 98.834 3.83301 138.501 11.5s76.834 25.5 111.501 53.5c50.667 42.667 76 98.667 76 168c0 72.667 -27.333 128 -82 166c-28 18.667 -59.5 31.167 -94.5 37.5s-75.167 9.5 -120.5 9.5h-324zM356 663.998v-512.001h351
c94.667 0 167 19 217 57c20 14.667 39.667 37.834 59 69.501s29 73.167 29 124.5c0 74 -23.333 134.333 -70 181c-34 35.333 -71.5 57.5 -112.5 66.5s-90.167 13.5 -147.5 13.5h-326z" />
    <glyph glyph-name="afii10019" unicode="&#x412;" horiz-adv-x="1288" 
d="M180 1405l537.002 -0.00195312c58.667 0 113.167 -4.16699 163.5 -12.5s97.5 -28.166 141.5 -59.499c35.333 -24 66 -58.167 92 -102.5s39 -98.833 39 -163.5c0 -108.667 -36.333 -192.667 -109 -252c-32 -27.333 -77 -49.666 -135 -66.999v-5
c60.667 -11.333 114 -35.666 160 -72.999c87.333 -70.667 131 -167 131 -289c0 -42 -6.5 -82.5 -19.5 -121.5s-29.5 -72.333 -49.5 -100s-42 -50.834 -66 -69.501c-46.667 -38 -98.334 -62.5 -155.001 -73.5s-120.334 -16.5 -191.001 -16.5h-539v1405zM356.002 1253
l-0.00195312 -446h295c52.667 0 98.834 3.83301 138.501 11.5s76.834 25.5 111.501 53.5c50.667 42.667 76 98.667 76 168c0 72.667 -27.333 128 -82 166c-28 18.667 -59.5 31.167 -94.5 37.5s-75.167 9.5 -120.5 9.5h-324zM356 663.998v-512.001h351
c94.667 0 167 19 217 57c20 14.667 39.667 37.834 59 69.501s29 73.167 29 124.5c0 74 -23.333 134.333 -70 181c-34 35.333 -71.5 57.5 -112.5 66.5s-90.167 13.5 -147.5 13.5h-326z" />
    <glyph glyph-name="afii10020" unicode="&#xc3;" horiz-adv-x="1036" 
d="M180 1405h836v-152h-660v-1253h-176v1405z" />
    <glyph glyph-name="afii10020" unicode="&#x413;" horiz-adv-x="1036" 
d="M180 1405h836v-152h-660v-1253h-176v1405z" />
    <glyph glyph-name="afii10021" unicode="&#xc4;" horiz-adv-x="1346" 
d="M387 1405l754.003 -0.00292969v-1253h164v-467h-164v315h-963v-315h-164v467h88c57.333 106.667 102.166 203.834 134.499 291.501s58.666 179.334 78.999 275.001s37.5 207.834 51.5 336.501c6 62 9.66699 104 11 126s2.66602 52 3.99902 90s2.33301 68.333 3 91z
M535.003 1253l-7 -85.999c-4 -68.667 -10.833 -145.834 -20.5 -231.501s-22.5 -168.5 -38.5 -248.5s-40 -166.833 -72 -260.5s-71.333 -185.167 -118 -274.5h686v1101h-430z" />
    <glyph glyph-name="afii10021" unicode="&#x414;" horiz-adv-x="1346" 
d="M387 1405l754.003 -0.00292969v-1253h164v-467h-164v315h-963v-315h-164v467h88c57.333 106.667 102.166 203.834 134.499 291.501s58.666 179.334 78.999 275.001s37.5 207.834 51.5 336.501c6 62 9.66699 104 11 126s2.66602 52 3.99902 90s2.33301 68.333 3 91z
M535.003 1253l-7 -85.999c-4 -68.667 -10.833 -145.834 -20.5 -231.501s-22.5 -168.5 -38.5 -248.5s-40 -166.833 -72 -260.5s-71.333 -185.167 -118 -274.5h686v1101h-430z" />
    <glyph glyph-name="afii10022" unicode="&#xc5;" horiz-adv-x="1161" 
d="M180 1405h889v-152h-713v-446h566v-143h-566v-512h734v-152h-910v1405z" />
    <glyph glyph-name="afii10022" unicode="&#x415;" horiz-adv-x="1161" 
d="M180 1405h889v-152h-713v-446h566v-143h-566v-512h734v-152h-910v1405z" />
    <glyph glyph-name="afii10024" unicode="&#xc6;" horiz-adv-x="1884" 
d="M854 1405l176 -0.00195312v-600h96c72 0 133.667 22.333 185 67c22 19.333 38.667 40.833 50 64.5s21.333 52.167 30 85.5c28 117.333 47 189 57 215c44 117.333 118.333 176 223 176c28.667 0 54 -2.66699 76 -8v-137c-6.66699 1.33301 -16.334 2 -29.001 2
c-26.667 0 -47.667 -7 -63 -21c-23.333 -18 -42.666 -51.333 -57.999 -100c-3.33301 -12 -9 -34.667 -17 -68l-21 -84.5c-6 -23 -14.333 -48.5 -25 -76.5c-17.333 -46.667 -38.166 -82.5 -62.499 -107.5s-61.5 -44.5 -111.5 -58.5v-6c98 -10.667 171.667 -64.667 221 -162
c16.667 -35.333 31.667 -76.333 45 -123l33.5 -115c13 -45.333 25.167 -85.666 36.5 -120.999c10 -28 20.5 -49 31.5 -63s30.5 -21 58.5 -21c16 0 28.333 0.666992 37 2v-137c-28.667 -10.667 -59.334 -16 -92.001 -16c-71.333 0 -128 30 -170 90
c-20 28.667 -40.667 75.834 -62 141.501s-37.666 122.167 -48.999 169.5c-13.333 55.333 -27.166 101.166 -41.499 137.499s-36.833 65.5 -67.5 87.5c-40 29.333 -98.667 44 -176 44h-135v-662h-176v662h-135c-77.333 0 -136 -14.667 -176 -44
c-15.333 -11.333 -29.333 -26.5 -42 -45.5s-23.334 -39.167 -32.001 -60.5s-15.667 -42.5 -21 -63.5l-14 -55.5c-11.333 -47.333 -27.166 -103.5 -47.499 -168.5s-41.166 -112.5 -62.499 -142.5c-43.333 -60 -100 -90 -170 -90c-33.333 0 -64.333 5.33301 -93 16v137
c8.66699 -1.33301 21 -2 37 -2c28 0 47.5 6.66699 58.5 20s21.5 34.666 31.5 63.999c7.33301 20.667 16.666 50.834 27.999 90.501l42 145.5c13.333 46.667 28.333 87.667 45 123c49.333 97.333 123 151.333 221 162v6c-50 14 -86.833 33.333 -110.5 58
s-44.834 60.667 -63.501 108c-10.667 28 -19 53.5 -25 76.5l-21 84.5c-8 33.333 -13.667 56 -17 68c-12.667 46.667 -32 80 -58 100c-15.333 14 -36.333 21 -63 21c-12.667 0 -22.334 -0.666992 -29.001 -2v137c22 5.33301 47.333 8 76 8c45.333 0 87.5 -11.833 126.5 -35.5
s71.167 -70.5 96.5 -140.5c8 -19.333 17.167 -49.666 27.5 -90.999l30.5 -124c10 -37.333 20 -66.333 30 -87s26.333 -41.667 49 -63c51.333 -44.667 113 -67 185 -67h96v600z" />
    <glyph glyph-name="afii10024" unicode="&#x416;" horiz-adv-x="1884" 
d="M854 1405l176 -0.00195312v-600h96c72 0 133.667 22.333 185 67c22 19.333 38.667 40.833 50 64.5s21.333 52.167 30 85.5c28 117.333 47 189 57 215c44 117.333 118.333 176 223 176c28.667 0 54 -2.66699 76 -8v-137c-6.66699 1.33301 -16.334 2 -29.001 2
c-26.667 0 -47.667 -7 -63 -21c-23.333 -18 -42.666 -51.333 -57.999 -100c-3.33301 -12 -9 -34.667 -17 -68l-21 -84.5c-6 -23 -14.333 -48.5 -25 -76.5c-17.333 -46.667 -38.166 -82.5 -62.499 -107.5s-61.5 -44.5 -111.5 -58.5v-6c98 -10.667 171.667 -64.667 221 -162
c16.667 -35.333 31.667 -76.333 45 -123l33.5 -115c13 -45.333 25.167 -85.666 36.5 -120.999c10 -28 20.5 -49 31.5 -63s30.5 -21 58.5 -21c16 0 28.333 0.666992 37 2v-137c-28.667 -10.667 -59.334 -16 -92.001 -16c-71.333 0 -128 30 -170 90
c-20 28.667 -40.667 75.834 -62 141.501s-37.666 122.167 -48.999 169.5c-13.333 55.333 -27.166 101.166 -41.499 137.499s-36.833 65.5 -67.5 87.5c-40 29.333 -98.667 44 -176 44h-135v-662h-176v662h-135c-77.333 0 -136 -14.667 -176 -44
c-15.333 -11.333 -29.333 -26.5 -42 -45.5s-23.334 -39.167 -32.001 -60.5s-15.667 -42.5 -21 -63.5l-14 -55.5c-11.333 -47.333 -27.166 -103.5 -47.499 -168.5s-41.166 -112.5 -62.499 -142.5c-43.333 -60 -100 -90 -170 -90c-33.333 0 -64.333 5.33301 -93 16v137
c8.66699 -1.33301 21 -2 37 -2c28 0 47.5 6.66699 58.5 20s21.5 34.666 31.5 63.999c7.33301 20.667 16.666 50.834 27.999 90.501l42 145.5c13.333 46.667 28.333 87.667 45 123c49.333 97.333 123 151.333 221 162v6c-50 14 -86.833 33.333 -110.5 58
s-44.834 60.667 -63.501 108c-10.667 28 -19 53.5 -25 76.5l-21 84.5c-8 33.333 -13.667 56 -17 68c-12.667 46.667 -32 80 -58 100c-15.333 14 -36.333 21 -63 21c-12.667 0 -22.334 -0.666992 -29.001 -2v137c22 5.33301 47.333 8 76 8c45.333 0 87.5 -11.833 126.5 -35.5
s71.167 -70.5 96.5 -140.5c8 -19.333 17.167 -49.666 27.5 -90.999l30.5 -124c10 -37.333 20 -66.333 30 -87s26.333 -41.667 49 -63c51.333 -44.667 113 -67 185 -67h96v600z" />
    <glyph glyph-name="afii10025" unicode="&#xc7;" horiz-adv-x="1262" 
d="M436 662v142.998h178c48.667 0 92.334 2.83301 131.001 8.5s72.334 19.167 101.001 40.5c24 18.667 43.667 45.334 59 80.001s23 71.334 23 110.001c0 39.333 -8.66699 74.333 -26 105s-38.666 54.667 -63.999 72c-50.667 35.333 -118.334 53 -203.001 53
c-48 0 -93.5 -6.33301 -136.5 -19s-80.833 -31 -113.5 -55c-54.667 -39.333 -97 -100 -127 -182l-158 43c30.667 106.667 89.334 192.667 176.001 258c93.333 70.667 208.333 106 345 106c132 0 239 -25.667 321 -77c62 -38.667 104.5 -82.667 127.5 -132
s34.5 -96.333 34.5 -141c0 -68 -17.667 -132 -53 -192c-40.667 -68.667 -103 -111.667 -187 -129v-4c22.667 -2.66699 47.167 -8 73.5 -16s49.666 -18.167 69.999 -30.5s38.166 -25.5 53.499 -39.5c30.667 -28.667 54.667 -64.334 72 -107.001s26 -89.667 26 -141
c0 -46 -6.33301 -89.333 -19 -130s-30.334 -78 -53.001 -112s-48.334 -62.667 -77.001 -86c-52.667 -43.333 -111.167 -72.166 -175.5 -86.499s-132.833 -21.5 -205.5 -21.5c-78 0 -147.833 7.33301 -209.5 22s-117.5 42 -167.5 82
c-39.333 31.333 -74.833 72.666 -106.5 123.999s-54.167 107 -67.5 167l170 37c17.333 -70.667 51.333 -131 102 -181c69.333 -66.667 164.333 -100 285 -100c50 0 95.5 5.83301 136.5 17.5s78.167 31.834 111.5 60.501c58.667 52 88 116 88 192
c0 94.667 -35 163.667 -105 207c-59.333 36 -137.666 54 -234.999 54h-195z" />
    <glyph glyph-name="afii10025" unicode="&#x417;" horiz-adv-x="1262" 
d="M436 662v142.998h178c48.667 0 92.334 2.83301 131.001 8.5s72.334 19.167 101.001 40.5c24 18.667 43.667 45.334 59 80.001s23 71.334 23 110.001c0 39.333 -8.66699 74.333 -26 105s-38.666 54.667 -63.999 72c-50.667 35.333 -118.334 53 -203.001 53
c-48 0 -93.5 -6.33301 -136.5 -19s-80.833 -31 -113.5 -55c-54.667 -39.333 -97 -100 -127 -182l-158 43c30.667 106.667 89.334 192.667 176.001 258c93.333 70.667 208.333 106 345 106c132 0 239 -25.667 321 -77c62 -38.667 104.5 -82.667 127.5 -132
s34.5 -96.333 34.5 -141c0 -68 -17.667 -132 -53 -192c-40.667 -68.667 -103 -111.667 -187 -129v-4c22.667 -2.66699 47.167 -8 73.5 -16s49.666 -18.167 69.999 -30.5s38.166 -25.5 53.499 -39.5c30.667 -28.667 54.667 -64.334 72 -107.001s26 -89.667 26 -141
c0 -46 -6.33301 -89.333 -19 -130s-30.334 -78 -53.001 -112s-48.334 -62.667 -77.001 -86c-52.667 -43.333 -111.167 -72.166 -175.5 -86.499s-132.833 -21.5 -205.5 -21.5c-78 0 -147.833 7.33301 -209.5 22s-117.5 42 -167.5 82
c-39.333 31.333 -74.833 72.666 -106.5 123.999s-54.167 107 -67.5 167l170 37c17.333 -70.667 51.333 -131 102 -181c69.333 -66.667 164.333 -100 285 -100c50 0 95.5 5.83301 136.5 17.5s78.167 31.834 111.5 60.501c58.667 52 88 116 88 192
c0 94.667 -35 163.667 -105 207c-59.333 36 -137.666 54 -234.999 54h-195z" />
    <glyph glyph-name="afii10026" unicode="&#xc8;" horiz-adv-x="1389" 
d="M180 1405l175.999 -0.000976562v-944c0 -30 -2 -73 -6 -129l28.5 52.5c9.66699 17.667 17.834 30.834 24.501 39.501l629 885v96h176v-1405h-176v948c0 12.667 2 62 6 148c-14 -27.333 -31.667 -58 -53 -92l-629 -881v-123h-176v1405z" />
    <glyph glyph-name="afii10026" unicode="&#x418;" horiz-adv-x="1389" 
d="M180 1405l175.999 -0.000976562v-944c0 -30 -2 -73 -6 -129l28.5 52.5c9.66699 17.667 17.834 30.834 24.501 39.501l629 885v96h176v-1405h-176v948c0 12.667 2 62 6 148c-14 -27.333 -31.667 -58 -53 -92l-629 -881v-123h-176v1405z" />
    <glyph glyph-name="afii10027" unicode="&#xc9;" horiz-adv-x="1389" 
d="M180 1405h176.003v-944c0 -30 -2 -73 -6 -129c6 10 12.167 21.333 18.5 34s10.166 20.5 11.499 23.5s3.66602 6.83301 6.99902 11.5l16 23l629 885v96h176v-1405h-176v913c0 24 0.666992 55 2 93s2.66602 68 3.99902 90c-14 -27.333 -31.667 -58 -53 -92l-629 -881v-123
h-176v1405zM860.003 1753h155.997c-5.33301 -72 -34.666 -132 -87.999 -180c-58 -50.667 -136 -76 -234 -76s-175.667 25.333 -233 76c-53.333 48 -82.666 108 -87.999 180h155c1.33301 -30.667 9.33301 -55.5 24 -74.5s34.667 -33.5 60 -43.5s52.666 -15 81.999 -15
c46.667 0 85.834 11.333 117.501 34s47.834 55.667 48.501 99z" />
    <glyph glyph-name="afii10027" unicode="&#x419;" horiz-adv-x="1389" 
d="M180 1405h176.003v-944c0 -30 -2 -73 -6 -129c6 10 12.167 21.333 18.5 34s10.166 20.5 11.499 23.5s3.66602 6.83301 6.99902 11.5l16 23l629 885v96h176v-1405h-176v913c0 24 0.666992 55 2 93s2.66602 68 3.99902 90c-14 -27.333 -31.667 -58 -53 -92l-629 -881v-123
h-176v1405zM860.003 1753h155.997c-5.33301 -72 -34.666 -132 -87.999 -180c-58 -50.667 -136 -76 -234 -76s-175.667 25.333 -233 76c-53.333 48 -82.666 108 -87.999 180h155c1.33301 -30.667 9.33301 -55.5 24 -74.5s34.667 -33.5 60 -43.5s52.666 -15 81.999 -15
c46.667 0 85.834 11.333 117.501 34s47.834 55.667 48.501 99z" />
    <glyph glyph-name="afii10028" unicode="&#xca;" horiz-adv-x="1290" 
d="M356 805l195 -0.00292969c47.333 0 90 7.33301 128 22s69 42 93 82c18 29.333 30.833 59.833 38.5 91.5l34.5 146c15.333 65.667 29.333 112.167 42 139.5c24.667 54 56 90.667 94 110s78.333 29 121 29c24.667 0 46.334 -2.66699 65.001 -8v-139
c-18.667 2.66699 -33.667 4 -45 4c-27.333 0 -53.333 -15 -78 -45c-14 -17.333 -24.333 -39.166 -31 -65.499s-16.5 -69.5 -29.5 -129.5s-23.5 -101.333 -31.5 -124c-34 -94.667 -91.333 -149.334 -172 -164.001v-6c58 -8 103.833 -28.667 137.5 -62s58.167 -68 73.5 -104
c14.667 -31.333 30.834 -85.166 48.501 -161.499s37.167 -144.166 58.5 -203.499c10 -28 21.833 -49.333 35.5 -64s32.5 -22 56.5 -22c18 0 31 1.33301 39 4v-135c-24 -13.333 -53.333 -20 -88 -20c-38.667 0 -73.334 8.33301 -104.001 25s-58.334 45.667 -83.001 87
c-26 46.667 -53.333 133.334 -82 260.001c-15.333 65.333 -26.5 110.333 -33.5 135s-16.167 46 -27.5 64c-26 48 -60.5 78.5 -103.5 91.5s-95.833 19.5 -158.5 19.5h-193v-662h-176v1405h176v-600z" />
    <glyph glyph-name="afii10028" unicode="&#x41a;" horiz-adv-x="1290" 
d="M356 805l195 -0.00292969c47.333 0 90 7.33301 128 22s69 42 93 82c18 29.333 30.833 59.833 38.5 91.5l34.5 146c15.333 65.667 29.333 112.167 42 139.5c24.667 54 56 90.667 94 110s78.333 29 121 29c24.667 0 46.334 -2.66699 65.001 -8v-139
c-18.667 2.66699 -33.667 4 -45 4c-27.333 0 -53.333 -15 -78 -45c-14 -17.333 -24.333 -39.166 -31 -65.499s-16.5 -69.5 -29.5 -129.5s-23.5 -101.333 -31.5 -124c-34 -94.667 -91.333 -149.334 -172 -164.001v-6c58 -8 103.833 -28.667 137.5 -62s58.167 -68 73.5 -104
c14.667 -31.333 30.834 -85.166 48.501 -161.499s37.167 -144.166 58.5 -203.499c10 -28 21.833 -49.333 35.5 -64s32.5 -22 56.5 -22c18 0 31 1.33301 39 4v-135c-24 -13.333 -53.333 -20 -88 -20c-38.667 0 -73.334 8.33301 -104.001 25s-58.334 45.667 -83.001 87
c-26 46.667 -53.333 133.334 -82 260.001c-15.333 65.333 -26.5 110.333 -33.5 135s-16.167 46 -27.5 64c-26 48 -60.5 78.5 -103.5 91.5s-95.833 19.5 -158.5 19.5h-193v-662h-176v1405h176v-600z" />
    <glyph glyph-name="afii10029" unicode="&#xcb;" horiz-adv-x="1331" 
d="M334 1405l817 0.00292969v-1405h-176v1253h-479c0 -200.667 -6.83301 -374.834 -20.5 -522.501s-30.834 -264.334 -51.501 -350.001s-43.667 -153.334 -69 -203.001s-50.666 -86.167 -75.999 -109.5c-55.333 -50.667 -120.333 -76 -195 -76c-24 0 -45.333 2.66699 -64 8
v162c17.333 -2.66699 29 -4 35 -4c37.333 0 69.333 8.33301 96 25s50 43 70 79c14.667 24.667 28.167 58.167 40.5 100.5s24.333 105.833 36 190.5s20.667 190.5 27 317.5s9.5 283.833 9.5 470.5v64z" />
    <glyph glyph-name="afii10029" unicode="&#x41b;" horiz-adv-x="1331" 
d="M334 1405l817 0.00292969v-1405h-176v1253h-479c0 -200.667 -6.83301 -374.834 -20.5 -522.501s-30.834 -264.334 -51.501 -350.001s-43.667 -153.334 -69 -203.001s-50.666 -86.167 -75.999 -109.5c-55.333 -50.667 -120.333 -76 -195 -76c-24 0 -45.333 2.66699 -64 8
v162c17.333 -2.66699 29 -4 35 -4c37.333 0 69.333 8.33301 96 25s50 43 70 79c14.667 24.667 28.167 58.167 40.5 100.5s24.333 105.833 36 190.5s20.667 190.5 27 317.5s9.5 283.833 9.5 470.5v64z" />
    <glyph glyph-name="afii10030" unicode="&#xcc;" horiz-adv-x="1720" 
d="M438 1405l422 -1124h4l418 1124h258v-1405h-176v1227h-4l-451 -1227h-118l-461 1227h-2v-1227h-148v1405h258z" />
    <glyph glyph-name="afii10030" unicode="&#x41c;" horiz-adv-x="1720" 
d="M438 1405l422 -1124h4l418 1124h258v-1405h-176v1227h-4l-451 -1227h-118l-461 1227h-2v-1227h-148v1405h258z" />
    <glyph glyph-name="afii10031" unicode="&#xcd;" horiz-adv-x="1368" 
d="M1188 1405v-1405h-176v672h-656v-672h-176v1405h176v-590h656v590h176z" />
    <glyph glyph-name="afii10031" unicode="&#x41d;" horiz-adv-x="1368" 
d="M1188 1405v-1405h-176v672h-656v-672h-176v1405h176v-590h656v590h176z" />
    <glyph glyph-name="afii10032" unicode="&#xce;" horiz-adv-x="1335" 
d="M668 1425c150 0 275.332 -49.002 375.999 -147.002c62 -60 111 -139 147 -237s54 -211 54 -339c0 -127.333 -17.833 -239.666 -53.5 -336.999s-84.834 -176.666 -147.501 -237.999c-100.667 -98 -226 -147 -376 -147c-56 0 -117.333 9.66699 -184 29
s-131 58.666 -193 117.999c-63.333 63.333 -112.666 143.833 -147.999 241.5s-53 208.834 -53 333.501c0 125.333 17.833 237.333 53.5 336s84.834 178.667 147.501 240c44 42 89.167 73.667 135.5 95s89.5 35.333 129.5 42s77.333 10 112 10zM667.999 1274
c-108.667 0 -199.667 -46.332 -273 -138.999c-77.333 -100.667 -116 -245 -116 -433c0 -187.333 38.667 -331.333 116 -432c73.333 -92.667 164.333 -139 273 -139c109.333 0 200 46.333 272 139c78 101.333 117 245.333 117 432c0 187.333 -39 331.666 -117 432.999
c-72 92.667 -162.667 139 -272 139z" />
    <glyph glyph-name="afii10032" unicode="&#x41e;" horiz-adv-x="1335" 
d="M668 1425c150 0 275.332 -49.002 375.999 -147.002c62 -60 111 -139 147 -237s54 -211 54 -339c0 -127.333 -17.833 -239.666 -53.5 -336.999s-84.834 -176.666 -147.501 -237.999c-100.667 -98 -226 -147 -376 -147c-56 0 -117.333 9.66699 -184 29
s-131 58.666 -193 117.999c-63.333 63.333 -112.666 143.833 -147.999 241.5s-53 208.834 -53 333.501c0 125.333 17.833 237.333 53.5 336s84.834 178.667 147.501 240c44 42 89.167 73.667 135.5 95s89.5 35.333 129.5 42s77.333 10 112 10zM667.999 1274
c-108.667 0 -199.667 -46.332 -273 -138.999c-77.333 -100.667 -116 -245 -116 -433c0 -187.333 38.667 -331.333 116 -432c73.333 -92.667 164.333 -139 273 -139c109.333 0 200 46.333 272 139c78 101.333 117 245.333 117 432c0 187.333 -39 331.666 -117 432.999
c-72 92.667 -162.667 139 -272 139z" />
    <glyph glyph-name="afii10033" unicode="&#xcf;" horiz-adv-x="1348" 
d="M180 1405h987v-1405h-176v1253h-635v-1253h-176v1405z" />
    <glyph glyph-name="afii10033" unicode="&#x41f;" horiz-adv-x="1348" 
d="M180 1405h987v-1405h-176v1253h-635v-1253h-176v1405z" />
    <glyph glyph-name="afii10034" unicode="&#xd0;" horiz-adv-x="1198" 
d="M180 1405l464.998 0.000976562c72.667 0 137.334 -5.83301 194.001 -17.5s109.334 -35.834 158.001 -72.501c42.667 -32 78.334 -74 107.001 -126s43 -116.667 43 -194c0 -131.333 -43.667 -236.333 -131 -315c-36.667 -32.667 -76.667 -57.5 -120 -74.5
s-83.333 -27.333 -120 -31s-78.334 -5.5 -125.001 -5.5h-295v-569h-176v1405zM355.998 721.001l274.999 0.000976562c49.333 0 94.333 4.16699 135 12.5s77.667 27.5 111 57.5c24.667 22.667 44.334 51.667 59.001 87s22 75.666 22 120.999c0 82 -27 145.667 -81 191
c-52 42 -128.667 63 -230 63h-291v-532z" />
    <glyph glyph-name="afii10034" unicode="&#x420;" horiz-adv-x="1198" 
d="M180 1405l464.998 0.000976562c72.667 0 137.334 -5.83301 194.001 -17.5s109.334 -35.834 158.001 -72.501c42.667 -32 78.334 -74 107.001 -126s43 -116.667 43 -194c0 -131.333 -43.667 -236.333 -131 -315c-36.667 -32.667 -76.667 -57.5 -120 -74.5
s-83.333 -27.333 -120 -31s-78.334 -5.5 -125.001 -5.5h-295v-569h-176v1405zM355.998 721.001l274.999 0.000976562c49.333 0 94.333 4.16699 135 12.5s77.667 27.5 111 57.5c24.667 22.667 44.334 51.667 59.001 87s22 75.666 22 120.999c0 82 -27 145.667 -81 191
c-52 42 -128.667 63 -230 63h-291v-532z" />
    <glyph glyph-name="afii10035" unicode="&#xd1;" horiz-adv-x="1237" 
d="M1180 977l-165.997 -30.9951c-6 30 -15 61 -27 93s-27.667 61.667 -47 89c-64 97.333 -154 146 -270 146c-139.333 0 -244 -62.333 -314 -187c-51.333 -88.667 -77 -212 -77 -370c0 -66.667 4.83301 -130.834 14.5 -192.501s26.5 -118.5 50.5 -170.5
c70.667 -148.667 179.334 -223 326.001 -223c49.333 0 92.666 8.66699 129.999 26s71.666 43.666 102.999 78.999c60 66.667 99 145.667 117 237l160 -35c-24.667 -124 -77.334 -228.333 -158.001 -313c-55.333 -58 -110.833 -96.667 -166.5 -116s-114.834 -29 -177.501 -29
c-84 0 -164.667 16 -242 48s-148.333 96.333 -213 193c-42.667 66 -75.5 143.167 -98.5 231.5s-34.5 179.166 -34.5 272.499c0 133.333 17.333 241.666 52 324.999s70.667 146.333 108 189c64.667 75.333 134 125.166 208 149.499s146 36.5 216 36.5
c140.667 0 256 -41.667 346 -125c41.333 -38 76.333 -85.167 105 -141.5s47 -116.833 55 -181.5z" />
    <glyph glyph-name="afii10035" unicode="&#x421;" horiz-adv-x="1237" 
d="M1180 977l-165.997 -30.9951c-6 30 -15 61 -27 93s-27.667 61.667 -47 89c-64 97.333 -154 146 -270 146c-139.333 0 -244 -62.333 -314 -187c-51.333 -88.667 -77 -212 -77 -370c0 -66.667 4.83301 -130.834 14.5 -192.501s26.5 -118.5 50.5 -170.5
c70.667 -148.667 179.334 -223 326.001 -223c49.333 0 92.666 8.66699 129.999 26s71.666 43.666 102.999 78.999c60 66.667 99 145.667 117 237l160 -35c-24.667 -124 -77.334 -228.333 -158.001 -313c-55.333 -58 -110.833 -96.667 -166.5 -116s-114.834 -29 -177.501 -29
c-84 0 -164.667 16 -242 48s-148.333 96.333 -213 193c-42.667 66 -75.5 143.167 -98.5 231.5s-34.5 179.166 -34.5 272.499c0 133.333 17.333 241.666 52 324.999s70.667 146.333 108 189c64.667 75.333 134 125.166 208 149.499s146 36.5 216 36.5
c140.667 0 256 -41.667 346 -125c41.333 -38 76.333 -85.167 105 -141.5s47 -116.833 55 -181.5z" />
    <glyph glyph-name="afii10036" unicode="&#xd2;" horiz-adv-x="1016" 
d="M23 1405h970v-152h-397v-1253h-176v1253h-397v152z" />
    <glyph glyph-name="afii10036" unicode="&#x422;" horiz-adv-x="1016" 
d="M23 1405h970v-152h-397v-1253h-176v1253h-397v152z" />
    <glyph glyph-name="afii10037" unicode="&#xd3;" horiz-adv-x="1096" 
d="M20 1405l185.002 -0.000976562l399 -846h2l330 846h156l-418 -1038c-18 -46.667 -30.833 -79.167 -38.5 -97.5s-17.667 -39.666 -30 -63.999s-26.833 -48 -43.5 -71s-36 -44.5 -58 -64.5c-30.667 -26.667 -66.334 -47.667 -107.001 -63s-81 -23 -121 -23
c-32 0 -63.333 5.33301 -94 16v150c24.667 -10 50.667 -15 78 -15c65.333 0 118.666 19.333 159.999 58c40.667 37.333 72 95.333 94 174z" />
    <glyph glyph-name="afii10037" unicode="&#x423;" horiz-adv-x="1096" 
d="M20 1405l185.002 -0.000976562l399 -846h2l330 846h156l-418 -1038c-18 -46.667 -30.833 -79.167 -38.5 -97.5s-17.667 -39.666 -30 -63.999s-26.833 -48 -43.5 -71s-36 -44.5 -58 -64.5c-30.667 -26.667 -66.334 -47.667 -107.001 -63s-81 -23 -121 -23
c-32 0 -63.333 5.33301 -94 16v150c24.667 -10 50.667 -15 78 -15c65.333 0 118.666 19.333 159.999 58c40.667 37.333 72 95.333 94 174z" />
    <glyph glyph-name="afii10038" unicode="&#xd4;" horiz-adv-x="1606" 
d="M715 1444l176.001 0.00195312v-205h22c173.333 0 312 -40.333 416 -121c54 -42.667 98.667 -98.334 134 -167.001s53 -147.334 53 -236.001c0 -92 -16.333 -169 -49 -231s-66.334 -108.667 -101.001 -140c-46.667 -43.333 -109 -78.333 -187 -105s-174 -40 -288 -40v-219
h-176v219c-114 0 -210 13.333 -288 40s-140.333 61.667 -187 105c-36.667 34.667 -70.834 82.167 -102.501 142.5s-47.5 136.5 -47.5 228.5c0 60 8.33301 115.5 25 166.5s38.667 95.833 66 134.5s59 72.667 95 102c104.667 80.667 243.334 121 416.001 121h23v205z
M721.001 346.002l-0.000976562 745.999h-21c-126 0 -225 -26.667 -297 -80c-88.667 -67.333 -133 -167.666 -133 -300.999c0 -152 59.667 -258 179 -318c62.667 -31.333 153.334 -47 272.001 -47zM885 1092l-0.000976562 -746c118.667 0 209.334 15.667 272.001 47
c118.667 60 178 166 178 318c0 134 -44.333 234.333 -133 301c-71.333 53.333 -170.333 80 -297 80h-20z" />
    <glyph glyph-name="afii10038" unicode="&#x424;" horiz-adv-x="1606" 
d="M715 1444l176.001 0.00195312v-205h22c173.333 0 312 -40.333 416 -121c54 -42.667 98.667 -98.334 134 -167.001s53 -147.334 53 -236.001c0 -92 -16.333 -169 -49 -231s-66.334 -108.667 -101.001 -140c-46.667 -43.333 -109 -78.333 -187 -105s-174 -40 -288 -40v-219
h-176v219c-114 0 -210 13.333 -288 40s-140.333 61.667 -187 105c-36.667 34.667 -70.834 82.167 -102.501 142.5s-47.5 136.5 -47.5 228.5c0 60 8.33301 115.5 25 166.5s38.667 95.833 66 134.5s59 72.667 95 102c104.667 80.667 243.334 121 416.001 121h23v205z
M721.001 346.002l-0.000976562 745.999h-21c-126 0 -225 -26.667 -297 -80c-88.667 -67.333 -133 -167.666 -133 -300.999c0 -152 59.667 -258 179 -318c62.667 -31.333 153.334 -47 272.001 -47zM885 1092l-0.000976562 -746c118.667 0 209.334 15.667 272.001 47
c118.667 60 178 166 178 318c0 134 -44.333 234.333 -133 301c-71.333 53.333 -170.333 80 -297 80h-20z" />
    <glyph glyph-name="afii10039" unicode="&#xd5;" horiz-adv-x="1106" 
d="M63 1405h197l305 -520l305 520h181l-396 -649l445 -756h-197l-352 598l-365 -598h-180l457 733z" />
    <glyph glyph-name="afii10039" unicode="&#x425;" horiz-adv-x="1106" 
d="M63 1405h197l305 -520l305 520h181l-396 -649l445 -756h-197l-352 598l-365 -598h-180l457 733z" />
    <glyph glyph-name="afii10040" unicode="&#xd6;" horiz-adv-x="1372" 
d="M180 1405h176v-1253h635v1253h176v-1253h164v-459h-164v307h-987v1405z" />
    <glyph glyph-name="afii10040" unicode="&#x426;" horiz-adv-x="1372" 
d="M180 1405h176v-1253h635v1253h176v-1253h164v-459h-164v307h-987v1405z" />
    <glyph glyph-name="afii10041" unicode="&#xd7;" horiz-adv-x="1266" 
d="M123 1405l176.001 -0.00195312v-418c0 -50 6.83301 -94 20.5 -132s46.5 -66.333 98.5 -85c20.667 -7.33301 42.834 -11.833 66.501 -13.5s56.167 -2.5 97.5 -2.5c22.667 0 55.167 0.833008 97.5 2.5s81.666 4.33398 117.999 8.00098s73.5 8.83398 111.5 15.501v625h176
v-1405h-176v629c-124.667 -18 -227.667 -27 -309 -27c-77.333 0 -143.333 4.83301 -198 14.5s-101.334 26.167 -140.001 49.5c-92.667 52.667 -139 146.667 -139 282v457z" />
    <glyph glyph-name="afii10041" unicode="&#x427;" horiz-adv-x="1266" 
d="M123 1405l176.001 -0.00195312v-418c0 -50 6.83301 -94 20.5 -132s46.5 -66.333 98.5 -85c20.667 -7.33301 42.834 -11.833 66.501 -13.5s56.167 -2.5 97.5 -2.5c22.667 0 55.167 0.833008 97.5 2.5s81.666 4.33398 117.999 8.00098s73.5 8.83398 111.5 15.501v625h176
v-1405h-176v629c-124.667 -18 -227.667 -27 -309 -27c-77.333 0 -143.333 4.83301 -198 14.5s-101.334 26.167 -140.001 49.5c-92.667 52.667 -139 146.667 -139 282v457z" />
    <glyph glyph-name="afii10042" unicode="&#xd8;" horiz-adv-x="1860" 
d="M180 1405h176v-1253h486v1253h176v-1253h485v1253h176v-1405h-1499v1405z" />
    <glyph glyph-name="afii10042" unicode="&#x428;" horiz-adv-x="1860" 
d="M180 1405h176v-1253h486v1253h176v-1253h485v1253h176v-1405h-1499v1405z" />
    <glyph glyph-name="afii10043" unicode="&#xd9;" horiz-adv-x="1884" 
d="M180 1405h176v-1253h486v1253h176v-1253h485v1253h176v-1253h164v-459h-164v307h-1499v1405z" />
    <glyph glyph-name="afii10043" unicode="&#x429;" horiz-adv-x="1884" 
d="M180 1405h176v-1253h486v1253h176v-1253h485v1253h176v-1253h164v-459h-164v307h-1499v1405z" />
    <glyph glyph-name="afii10044" unicode="&#xda;" horiz-adv-x="1460" 
d="M-20 1405h591v-604h318c72.667 0 141.5 -6.33301 206.5 -19s120.5 -39.334 166.5 -80.001c36.667 -31.333 66.5 -74.5 89.5 -129.5s34.5 -113.5 34.5 -175.5c0 -54 -9.16699 -106.667 -27.5 -158s-45.833 -95.666 -82.5 -132.999c-30.667 -31.333 -64 -54.833 -100 -70.5
s-70.5 -25.5 -103.5 -29.5s-74.5 -6 -124.5 -6h-553v1253h-415v152zM571 649l0.000976562 -496.999h351c95.333 0 164.666 19 207.999 57c45.333 43.333 68 104.666 68 183.999c0 88 -25.333 153 -76 195c-48 40.667 -125.667 61 -233 61h-318z" />
    <glyph glyph-name="afii10044" unicode="&#x42a;" horiz-adv-x="1460" 
d="M-20 1405h591v-604h318c72.667 0 141.5 -6.33301 206.5 -19s120.5 -39.334 166.5 -80.001c36.667 -31.333 66.5 -74.5 89.5 -129.5s34.5 -113.5 34.5 -175.5c0 -54 -9.16699 -106.667 -27.5 -158s-45.833 -95.666 -82.5 -132.999c-30.667 -31.333 -64 -54.833 -100 -70.5
s-70.5 -25.5 -103.5 -29.5s-74.5 -6 -124.5 -6h-553v1253h-415v152zM571 649l0.000976562 -496.999h351c95.333 0 164.666 19 207.999 57c45.333 43.333 68 104.666 68 183.999c0 88 -25.333 153 -76 195c-48 40.667 -125.667 61 -233 61h-318z" />
    <glyph glyph-name="afii10045" unicode="&#xdb;" horiz-adv-x="1679" 
d="M180 1405l176 0.000976562v-604h318c72.667 0 141.5 -6.33301 206.5 -19s120.5 -39.334 166.5 -80.001c36.667 -31.333 66.5 -74.5 89.5 -129.5s34.5 -113.5 34.5 -175.5c0 -53.333 -9.16699 -105.833 -27.5 -157.5s-45.833 -96.167 -82.5 -133.5
c-43.333 -44 -90.333 -72.667 -141 -86s-106.667 -20 -168 -20h-572v1405zM356 649.001v-496.999h373c84.667 0 146.667 19 186 57c45.333 45.333 68 108.666 68 189.999c0 39.333 -5.33301 74.833 -16 106.5s-30.667 59.167 -60 82.5c-22 19.333 -51.167 34.333 -87.5 45
s-74.5 16 -114.5 16h-349zM1323 1405h176v-1405h-176v1405z" />
    <glyph glyph-name="afii10045" unicode="&#x42b;" horiz-adv-x="1679" 
d="M180 1405l176 0.000976562v-604h318c72.667 0 141.5 -6.33301 206.5 -19s120.5 -39.334 166.5 -80.001c36.667 -31.333 66.5 -74.5 89.5 -129.5s34.5 -113.5 34.5 -175.5c0 -53.333 -9.16699 -105.833 -27.5 -157.5s-45.833 -96.167 -82.5 -133.5
c-43.333 -44 -90.333 -72.667 -141 -86s-106.667 -20 -168 -20h-572v1405zM356 649.001v-496.999h373c84.667 0 146.667 19 186 57c45.333 45.333 68 108.666 68 189.999c0 39.333 -5.33301 74.833 -16 106.5s-30.667 59.167 -60 82.5c-22 19.333 -51.167 34.333 -87.5 45
s-74.5 16 -114.5 16h-349zM1323 1405h176v-1405h-176v1405z" />
    <glyph glyph-name="afii10046" unicode="&#xdc;" horiz-adv-x="1245" 
d="M180 1405l176.002 0.000976562v-604h318c72.667 0 141.5 -6.33301 206.5 -19s120.5 -39.334 166.5 -80.001c36.667 -31.333 66.5 -74.5 89.5 -129.5s34.5 -113.5 34.5 -175.5c0 -53.333 -9.16699 -105.833 -27.5 -157.5s-45.833 -96.167 -82.5 -133.5
c-42.667 -43.333 -88.834 -71.833 -138.501 -85.5s-99.834 -20.5 -150.501 -20.5h-592v1405zM356.002 649.001l-0.000976562 -496.999h351c95.333 0 164.666 19 207.999 57c45.333 43.333 68 104.666 68 183.999c0 88 -25.333 153 -76 195
c-23.333 20 -53.666 35.167 -90.999 45.5s-78.666 15.5 -123.999 15.5h-336z" />
    <glyph glyph-name="afii10046" unicode="&#x42c;" horiz-adv-x="1245" 
d="M180 1405l176.002 0.000976562v-604h318c72.667 0 141.5 -6.33301 206.5 -19s120.5 -39.334 166.5 -80.001c36.667 -31.333 66.5 -74.5 89.5 -129.5s34.5 -113.5 34.5 -175.5c0 -53.333 -9.16699 -105.833 -27.5 -157.5s-45.833 -96.167 -82.5 -133.5
c-42.667 -43.333 -88.834 -71.833 -138.501 -85.5s-99.834 -20.5 -150.501 -20.5h-592v1405zM356.002 649.001l-0.000976562 -496.999h351c95.333 0 164.666 19 207.999 57c45.333 43.333 68 104.666 68 183.999c0 88 -25.333 153 -76 195
c-23.333 20 -53.666 35.167 -90.999 45.5s-78.666 15.5 -123.999 15.5h-336z" />
    <glyph glyph-name="afii10047" unicode="&#xdd;" horiz-adv-x="1245" 
d="M254 983l-172.003 30.999c36 113.333 88.667 204 158 272c95.333 92.667 218.666 139 369.999 139c155.333 0 279.666 -48.333 372.999 -145c34.667 -35.333 65.167 -80.333 91.5 -135s46.333 -116.5 60 -185.5s20.5 -145.167 20.5 -228.5
c0 -92 -9.5 -182.5 -28.5 -271.5s-47.167 -164.5 -84.5 -226.5c-37.333 -63.333 -93.666 -121.333 -168.999 -174s-173.666 -79 -294.999 -79c-138.667 0 -255 42 -349 126c-79.333 74 -132.333 164.333 -159 271l178 35c15.333 -57.333 44 -110 86 -158
c70.667 -82 155.334 -123 254.001 -123c51.333 0 97.5 9.66699 138.5 29s75.833 44.166 104.5 74.499s52 62.833 70 97.5c16 30.667 28.833 64.834 38.5 102.501s16.667 75.834 21 114.501s6.5 74 6.5 106h-518v152h514c0 24 -2 52.5 -6 85.5s-9.16699 61.667 -15.5 86
s-16.166 51.833 -29.499 82.5s-26.666 55.334 -39.999 74.001c-65.333 92.667 -154.666 139 -267.999 139c-94.667 0 -176.667 -36.333 -246 -109c-48.667 -50.667 -83.334 -111.334 -104.001 -182.001z" />
    <glyph glyph-name="afii10047" unicode="&#x42d;" horiz-adv-x="1245" 
d="M254 983l-172.003 30.999c36 113.333 88.667 204 158 272c95.333 92.667 218.666 139 369.999 139c155.333 0 279.666 -48.333 372.999 -145c34.667 -35.333 65.167 -80.333 91.5 -135s46.333 -116.5 60 -185.5s20.5 -145.167 20.5 -228.5
c0 -92 -9.5 -182.5 -28.5 -271.5s-47.167 -164.5 -84.5 -226.5c-37.333 -63.333 -93.666 -121.333 -168.999 -174s-173.666 -79 -294.999 -79c-138.667 0 -255 42 -349 126c-79.333 74 -132.333 164.333 -159 271l178 35c15.333 -57.333 44 -110 86 -158
c70.667 -82 155.334 -123 254.001 -123c51.333 0 97.5 9.66699 138.5 29s75.833 44.166 104.5 74.499s52 62.833 70 97.5c16 30.667 28.833 64.834 38.5 102.501s16.667 75.834 21 114.501s6.5 74 6.5 106h-518v152h514c0 24 -2 52.5 -6 85.5s-9.16699 61.667 -15.5 86
s-16.166 51.833 -29.499 82.5s-26.666 55.334 -39.999 74.001c-65.333 92.667 -154.666 139 -267.999 139c-94.667 0 -176.667 -36.333 -246 -109c-48.667 -50.667 -83.334 -111.334 -104.001 -182.001z" />
    <glyph glyph-name="afii10048" unicode="&#xde;" horiz-adv-x="1855" 
d="M356 811l254.001 -0.00390625c8.66699 83.333 30.167 168 64.5 254s79.833 157 136.5 213c98 98 223.667 147 377 147c58.667 0 121 -9.66699 187 -29s129.333 -58.666 190 -117.999c61.333 -60 110 -139 146 -237s54 -211 54 -339
c0 -127.333 -17.833 -239.5 -53.5 -336.5s-84.5 -176.5 -146.5 -238.5c-62 -59.333 -126.333 -98.666 -193 -117.999s-128 -29 -184 -29c-152 0 -277.667 49 -377 147c-32.667 32.667 -61.667 70.334 -87 113.001s-46.833 89.667 -64.5 141s-30.334 99.833 -38.001 145.5
s-11.5 89.834 -11.5 132.501h-254v-659h-176v1405h176v-594zM1188 1274c-108.667 0 -199.669 -46.333 -273.002 -139c-28 -36.667 -54.333 -89.667 -79 -159s-37 -160.666 -37 -273.999c0 -80.667 6.83301 -150.667 20.5 -210s29.334 -106.5 47.001 -141.5
s33.834 -61.833 48.501 -80.5c73.333 -92.667 164.333 -139 273 -139c109.333 0 200 46.333 272 139c78 101.333 117 245.333 117 432c0 187.333 -39 331.666 -117 432.999c-72 92.667 -162.667 139 -272 139z" />
    <glyph glyph-name="afii10048" unicode="&#x42e;" horiz-adv-x="1855" 
d="M356 811l254.001 -0.00390625c8.66699 83.333 30.167 168 64.5 254s79.833 157 136.5 213c98 98 223.667 147 377 147c58.667 0 121 -9.66699 187 -29s129.333 -58.666 190 -117.999c61.333 -60 110 -139 146 -237s54 -211 54 -339
c0 -127.333 -17.833 -239.5 -53.5 -336.5s-84.5 -176.5 -146.5 -238.5c-62 -59.333 -126.333 -98.666 -193 -117.999s-128 -29 -184 -29c-152 0 -277.667 49 -377 147c-32.667 32.667 -61.667 70.334 -87 113.001s-46.833 89.667 -64.5 141s-30.334 99.833 -38.001 145.5
s-11.5 89.834 -11.5 132.501h-254v-659h-176v1405h176v-594zM1188 1274c-108.667 0 -199.669 -46.333 -273.002 -139c-28 -36.667 -54.333 -89.667 -79 -159s-37 -160.666 -37 -273.999c0 -80.667 6.83301 -150.667 20.5 -210s29.334 -106.5 47.001 -141.5
s33.834 -61.833 48.501 -80.5c73.333 -92.667 164.333 -139 273 -139c109.333 0 200 46.333 272 139c78 101.333 117 245.333 117 432c0 187.333 -39 331.666 -117 432.999c-72 92.667 -162.667 139 -272 139z" />
    <glyph glyph-name="afii10049" unicode="&#xdf;" horiz-adv-x="1284" 
d="M1104 1405v-1405h-176v608h-293l-354 -608h-209l381 618c-94.667 10.667 -171.334 43.667 -230.001 99c-30.667 29.333 -56.667 66.833 -78 112.5s-32 101.5 -32 167.5c0 64.667 11.833 122.167 35.5 172.5s52.834 91.166 87.501 122.499c37.333 34 77 59.333 119 76
s83.167 27 123.5 31s89.833 6 148.5 6h477zM928 1253l-316 0.000976562c-96.667 0 -169 -15.667 -217 -47c-62.667 -42.667 -94 -111 -94 -205c0 -78.667 26 -140 78 -184c30 -24.667 62.333 -40.334 97 -47.001s76 -10 124 -10h328v493z" />
    <glyph glyph-name="afii10049" unicode="&#x42f;" horiz-adv-x="1284" 
d="M1104 1405v-1405h-176v608h-293l-354 -608h-209l381 618c-94.667 10.667 -171.334 43.667 -230.001 99c-30.667 29.333 -56.667 66.833 -78 112.5s-32 101.5 -32 167.5c0 64.667 11.833 122.167 35.5 172.5s52.834 91.166 87.501 122.499c37.333 34 77 59.333 119 76
s83.167 27 123.5 31s89.833 6 148.5 6h477zM928 1253l-316 0.000976562c-96.667 0 -169 -15.667 -217 -47c-62.667 -42.667 -94 -111 -94 -205c0 -78.667 26 -140 78 -184c30 -24.667 62.333 -40.334 97 -47.001s76 -10 124 -10h328v493z" />
    <glyph glyph-name="afii10065" unicode="&#xe0;" horiz-adv-x="1114" 
d="M260 756l-149.001 23.9971c14.667 72 42 129 82 171s90.167 71.5 150.5 88.5s130.166 25.5 209.499 25.5c135.333 0 234.333 -25.333 297 -76c50 -39.333 81.667 -87.666 95 -144.999s20 -131.666 20 -222.999v-402c0 -28 2.16699 -61.5 6.5 -100.5
s10.833 -78.5 19.5 -118.5h-164c-9.33301 58.667 -15.333 123.667 -18 195c-24 -52 -64.333 -100.833 -121 -146.5s-138 -68.5 -244 -68.5c-112 0 -201.333 30.667 -268 92c-62.667 57.333 -94 131 -94 221c0 112.667 47 200.667 141 264
c38.667 26.667 81.834 46.334 129.501 59.001s95.334 20.667 143.001 24s107.167 5 178.5 5h135v43c0 80 -13.667 138 -41 174c-16.667 22 -36.834 38.667 -60.501 50s-47.167 18.5 -70.5 21.5s-52 4.5 -86 4.5c-68 0 -130.667 -11.667 -188 -35
s-91.666 -72.333 -102.999 -147zM808.999 517.997h-133.002c-147.333 0 -252.666 -17 -315.999 -51c-70.667 -36.667 -106 -94.667 -106 -174c0 -60 25.333 -106.333 76 -139c34.667 -26 84.334 -39 149.001 -39c50.667 0 97.667 10.833 141 32.5s79 49.5 107 83.5
c24.667 30.667 44.5 68 59.5 112s22.5 85.333 22.5 124v51z" />
    <glyph glyph-name="afii10065" unicode="&#x430;" horiz-adv-x="1114" 
d="M260 756l-149.001 23.9971c14.667 72 42 129 82 171s90.167 71.5 150.5 88.5s130.166 25.5 209.499 25.5c135.333 0 234.333 -25.333 297 -76c50 -39.333 81.667 -87.666 95 -144.999s20 -131.666 20 -222.999v-402c0 -28 2.16699 -61.5 6.5 -100.5
s10.833 -78.5 19.5 -118.5h-164c-9.33301 58.667 -15.333 123.667 -18 195c-24 -52 -64.333 -100.833 -121 -146.5s-138 -68.5 -244 -68.5c-112 0 -201.333 30.667 -268 92c-62.667 57.333 -94 131 -94 221c0 112.667 47 200.667 141 264
c38.667 26.667 81.834 46.334 129.501 59.001s95.334 20.667 143.001 24s107.167 5 178.5 5h135v43c0 80 -13.667 138 -41 174c-16.667 22 -36.834 38.667 -60.501 50s-47.167 18.5 -70.5 21.5s-52 4.5 -86 4.5c-68 0 -130.667 -11.667 -188 -35
s-91.666 -72.333 -102.999 -147zM808.999 517.997h-133.002c-147.333 0 -252.666 -17 -315.999 -51c-70.667 -36.667 -106 -94.667 -106 -174c0 -60 25.333 -106.333 76 -139c34.667 -26 84.334 -39 149.001 -39c50.667 0 97.667 10.833 141 32.5s79 49.5 107 83.5
c24.667 30.667 44.5 68 59.5 112s22.5 85.333 22.5 124v51z" />
    <glyph glyph-name="afii10066" unicode="&#xe1;" horiz-adv-x="1155" 
d="M1020 1430l-0.00195312 -152.001c-50.667 -24 -100.5 -42.5 -149.5 -55.5s-124.833 -27.833 -227.5 -44.5c-91.333 -18 -152 -34 -182 -48c-56 -25.333 -100.333 -60 -133 -104c-23.333 -30 -43.166 -65.5 -59.499 -106.5s-28.166 -85.5 -35.499 -133.5h5
c39.333 88 94.333 148 165 180s147.334 48 230.001 48c121.333 0 219.666 -35 294.999 -105c24.667 -22.667 48.167 -52 70.5 -88s40.333 -79.5 54 -130.5s20.5 -109.167 20.5 -174.5c0 -75.333 -10.333 -146.166 -31 -212.499s-49.334 -121.833 -86.001 -166.5
c-84.667 -104.667 -210 -157 -376 -157c-55.333 0 -110.166 9.33301 -164.499 28s-104.833 51.334 -151.5 98.001c-62.667 64.667 -105.334 140.167 -128.001 226.5s-34 175.5 -34 267.5c0 151.333 16.5 272.166 49.5 362.499s71.833 159.166 116.5 206.499
c50 53.333 104.833 91.333 164.5 114s129.834 41.334 210.501 56.001l204 38.5c25.333 5 53.5 12 84.5 21s60.5 19.5 88.5 31.5zM597.998 878.999c-96 0 -170.331 -28.665 -222.998 -85.998c-61.333 -65.333 -92 -161 -92 -287c0 -52 7.16699 -105.833 21.5 -161.5
s36.5 -100.834 66.5 -135.501c20.667 -25.333 49.334 -47.333 86.001 -66s83 -28 139 -28c75.333 0 136.666 21 183.999 63c34 30.667 59.167 66.667 75.5 108s26.666 79.833 30.999 115.5s6.5 73.167 6.5 112.5c0 125.333 -28.667 219.666 -86 282.999
c-50.667 54.667 -120.334 82 -209.001 82z" />
    <glyph glyph-name="afii10066" unicode="&#x431;" horiz-adv-x="1155" 
d="M1020 1430l-0.00195312 -152.001c-50.667 -24 -100.5 -42.5 -149.5 -55.5s-124.833 -27.833 -227.5 -44.5c-91.333 -18 -152 -34 -182 -48c-56 -25.333 -100.333 -60 -133 -104c-23.333 -30 -43.166 -65.5 -59.499 -106.5s-28.166 -85.5 -35.499 -133.5h5
c39.333 88 94.333 148 165 180s147.334 48 230.001 48c121.333 0 219.666 -35 294.999 -105c24.667 -22.667 48.167 -52 70.5 -88s40.333 -79.5 54 -130.5s20.5 -109.167 20.5 -174.5c0 -75.333 -10.333 -146.166 -31 -212.499s-49.334 -121.833 -86.001 -166.5
c-84.667 -104.667 -210 -157 -376 -157c-55.333 0 -110.166 9.33301 -164.499 28s-104.833 51.334 -151.5 98.001c-62.667 64.667 -105.334 140.167 -128.001 226.5s-34 175.5 -34 267.5c0 151.333 16.5 272.166 49.5 362.499s71.833 159.166 116.5 206.499
c50 53.333 104.833 91.333 164.5 114s129.834 41.334 210.501 56.001l204 38.5c25.333 5 53.5 12 84.5 21s60.5 19.5 88.5 31.5zM597.998 878.999c-96 0 -170.331 -28.665 -222.998 -85.998c-61.333 -65.333 -92 -161 -92 -287c0 -52 7.16699 -105.833 21.5 -161.5
s36.5 -100.834 66.5 -135.501c20.667 -25.333 49.334 -47.333 86.001 -66s83 -28 139 -28c75.333 0 136.666 21 183.999 63c34 30.667 59.167 66.667 75.5 108s26.666 79.833 30.999 115.5s6.5 73.167 6.5 112.5c0 125.333 -28.667 219.666 -86 282.999
c-50.667 54.667 -120.334 82 -209.001 82z" />
    <glyph glyph-name="afii10067" unicode="&#xe2;" horiz-adv-x="1155" 
d="M166 1044l462.999 0.00292969c52.667 0 98.834 -2.83301 138.501 -8.5s74.5 -17.834 104.5 -36.501c27.333 -14.667 52.666 -38.334 75.999 -71.001s35 -75.667 35 -129c0 -74 -23.333 -132 -70 -174c-38 -35.333 -83 -57.333 -135 -66v-4
c36.667 -2.66699 73.167 -11.5 109.5 -26.5s64.833 -33.5 85.5 -55.5c16.667 -16.667 32.334 -39.334 47.001 -68.001s22 -65.334 22 -110.001c0 -96.667 -36 -174 -108 -232c-36.667 -27.333 -74.667 -44.666 -114 -51.999s-86 -11 -140 -11h-514v1044zM321.999 918.003
v-309.999h290c32.667 0 62.5 3.66699 89.5 11s49.833 21.666 68.5 42.999c27.333 28.667 41 68 41 118c0 42 -15 75.667 -45 101c-18.667 16.667 -38.5 27 -59.5 31s-47.5 6 -79.5 6h-305zM321.999 481.004v-353.999h327c73.333 0 128 17 164 51c32.667 30.667 49 73 49 127
c0 57.333 -21 101.666 -63 132.999c-37.333 28.667 -92 43 -164 43h-313z" />
    <glyph glyph-name="afii10067" unicode="&#x432;" horiz-adv-x="1155" 
d="M166 1044l462.999 0.00292969c52.667 0 98.834 -2.83301 138.501 -8.5s74.5 -17.834 104.5 -36.501c27.333 -14.667 52.666 -38.334 75.999 -71.001s35 -75.667 35 -129c0 -74 -23.333 -132 -70 -174c-38 -35.333 -83 -57.333 -135 -66v-4
c36.667 -2.66699 73.167 -11.5 109.5 -26.5s64.833 -33.5 85.5 -55.5c16.667 -16.667 32.334 -39.334 47.001 -68.001s22 -65.334 22 -110.001c0 -96.667 -36 -174 -108 -232c-36.667 -27.333 -74.667 -44.666 -114 -51.999s-86 -11 -140 -11h-514v1044zM321.999 918.003
v-309.999h290c32.667 0 62.5 3.66699 89.5 11s49.833 21.666 68.5 42.999c27.333 28.667 41 68 41 118c0 42 -15 75.667 -45 101c-18.667 16.667 -38.5 27 -59.5 31s-47.5 6 -79.5 6h-305zM321.999 481.004v-353.999h327c73.333 0 128 17 164 51c32.667 30.667 49 73 49 127
c0 57.333 -21 101.666 -63 132.999c-37.333 28.667 -92 43 -164 43h-313z" />
    <glyph glyph-name="afii10068" unicode="&#xe3;" horiz-adv-x="819" 
d="M166 1044h631v-126h-475v-918h-156v1044z" />
    <glyph glyph-name="afii10068" unicode="&#x433;" horiz-adv-x="819" 
d="M166 1044h631v-126h-475v-918h-156v1044z" />
    <glyph glyph-name="afii10069" unicode="&#xe4;" horiz-adv-x="1053" 
d="M289 1044l606 0.000976562v-917h106v-408h-143v281h-694v-281h-144v408h78c40 58 73 120 99 186c19.333 49.333 34.333 97.5 45 144.5s19 96.833 25 149.5s10.5 108.167 13.5 166.5s5.16699 117.166 6.5 176.499zM420 918.001l-2 -56
c-4 -104.667 -13 -209.167 -27 -313.5s-35.667 -195.833 -65 -274.5c-14.667 -36 -36.667 -85 -66 -147h479v791h-319z" />
    <glyph glyph-name="afii10069" unicode="&#x434;" horiz-adv-x="1053" 
d="M289 1044l606 0.000976562v-917h106v-408h-143v281h-694v-281h-144v408h78c40 58 73 120 99 186c19.333 49.333 34.333 97.5 45 144.5s19 96.833 25 149.5s10.5 108.167 13.5 166.5s5.16699 117.166 6.5 176.499zM420 918.001l-2 -56
c-4 -104.667 -13 -209.167 -27 -313.5s-35.667 -195.833 -65 -274.5c-14.667 -36 -36.667 -85 -66 -147h479v791h-319z" />
    <glyph glyph-name="afii10070" unicode="&#xe5;" horiz-adv-x="1092" 
d="M850 315l151 -30.001c-14 -46 -35.167 -88.167 -63.5 -126.5s-63.833 -72.166 -106.5 -101.499c-75.333 -51.333 -164.666 -77 -267.999 -77c-74 0 -140.167 12.333 -198.5 37s-110.166 62.667 -155.499 114c-84.667 96.667 -127 224.334 -127 383.001
c0 97.333 18.167 187.833 54.5 271.5s91.166 151.167 164.499 202.5s162 77 266 77c117.333 0 210.166 -29.833 278.499 -89.5s114.5 -129.334 138.5 -209.001s36 -156.167 36 -229.5v-37h-758c0 -80 11.667 -147.667 35 -203c49.333 -121.333 140 -182 272 -182
c92 0 164.333 30 217 90c28 30 49.333 66.667 64 110zM270 626.999l570 0.000976562c-2.66699 75.333 -19 138.666 -49 189.999c-50 80.667 -124 121 -222 121c-93.333 0 -169 -35.667 -227 -107c-46 -58.667 -70 -126.667 -72 -204z" />
    <glyph glyph-name="afii10070" unicode="&#x435;" horiz-adv-x="1092" 
d="M850 315l151 -30.001c-14 -46 -35.167 -88.167 -63.5 -126.5s-63.833 -72.166 -106.5 -101.499c-75.333 -51.333 -164.666 -77 -267.999 -77c-74 0 -140.167 12.333 -198.5 37s-110.166 62.667 -155.499 114c-84.667 96.667 -127 224.334 -127 383.001
c0 97.333 18.167 187.833 54.5 271.5s91.166 151.167 164.499 202.5s162 77 266 77c117.333 0 210.166 -29.833 278.499 -89.5s114.5 -129.334 138.5 -209.001s36 -156.167 36 -229.5v-37h-758c0 -80 11.667 -147.667 35 -203c49.333 -121.333 140 -182 272 -182
c92 0 164.333 30 217 90c28 30 49.333 66.667 64 110zM270 626.999l570 0.000976562c-2.66699 75.333 -19 138.666 -49 189.999c-50 80.667 -124 121 -222 121c-93.333 0 -169 -35.667 -227 -107c-46 -58.667 -70 -126.667 -72 -204z" />
    <glyph glyph-name="afii10072" unicode="&#xe6;" horiz-adv-x="1466" 
d="M659 1044l147.994 -0.00195312v-434h80c60 0 105.667 11 137 33c27.333 19.333 48.333 51.333 63 96c8.66699 25.333 19.667 63.5 33 114.5s26.333 88.167 39 111.5c32 57.333 84 86 156 86c22.667 0 42.334 -2.33301 59.001 -7v-122c-6.66699 1.33301 -17 2 -31 2
c-29.333 0 -50.333 -10.333 -63 -31c-8.66699 -13.333 -17.667 -38 -27 -74c-3.33301 -12 -7.66602 -31 -12.999 -57s-10.833 -48.167 -16.5 -66.5s-13.5 -37.166 -23.5 -56.499c-26.667 -52 -65.667 -81.333 -117 -88v-4c43.333 -6 79 -23.667 107 -53
c24.667 -24.667 47 -68.667 67 -132c5.33301 -14.667 14.5 -45.667 27.5 -93s23.833 -81 32.5 -101c8 -18.667 16.833 -31.167 26.5 -37.5s23.834 -9.5 42.501 -9.5c18 0 31 1.33301 39 4v-125c-22 -4 -44.333 -6 -67 -6c-52.667 0 -92.334 8 -119.001 24
c-29.333 18.667 -53.333 51.667 -72 99c-8 20.667 -15 41 -21 61s-12.167 42.667 -18.5 68s-14.166 53.333 -23.499 84c-8 22 -17 43 -27 63c-20.667 40 -44.5 65 -71.5 75s-62.5 15 -106.5 15h-92v-483h-148v483h-92c-43.333 0 -78.333 -5 -105 -15s-51 -35 -73 -75
c-4.66699 -8.66699 -13.667 -29.667 -27 -63l-32 -119.5c-9.33301 -35 -19.666 -66.167 -30.999 -93.5c-16.667 -46 -40.667 -79 -72 -99c-26.667 -16 -66 -24 -118 -24c-23.333 0 -46 2 -68 6v125c8 -2.66699 21 -4 39 -4c19.333 0 33.833 3.16699 43.5 9.5
s18.5 18.833 26.5 37.5c6.66699 16 16.334 46.833 29.001 92.5s22.667 79.5 30 101.5c20 62.667 42.333 106.667 67 132c28 29.333 63.667 47 107 53v4c-50 6 -89 35.333 -117 88c-10 18.667 -17.833 37.5 -23.5 56.5s-11.167 41.333 -16.5 67s-9.66602 44.5 -12.999 56.5
c-8.66699 36.667 -17.667 61.334 -27 74.001c-12.667 20.667 -33.667 31 -63 31c-14 0 -24.333 -0.666992 -31 -2v122c18 4.66699 38 7 60 7c71.333 0 123 -28.667 155 -86c12.667 -21.333 25.167 -56.5 37.5 -105.5s23.833 -89.167 34.5 -120.5c14 -44 35 -76 63 -96
c31.333 -22 77.333 -33 138 -33h79v434z" />
    <glyph glyph-name="afii10072" unicode="&#x436;" horiz-adv-x="1466" 
d="M659 1044l147.994 -0.00195312v-434h80c60 0 105.667 11 137 33c27.333 19.333 48.333 51.333 63 96c8.66699 25.333 19.667 63.5 33 114.5s26.333 88.167 39 111.5c32 57.333 84 86 156 86c22.667 0 42.334 -2.33301 59.001 -7v-122c-6.66699 1.33301 -17 2 -31 2
c-29.333 0 -50.333 -10.333 -63 -31c-8.66699 -13.333 -17.667 -38 -27 -74c-3.33301 -12 -7.66602 -31 -12.999 -57s-10.833 -48.167 -16.5 -66.5s-13.5 -37.166 -23.5 -56.499c-26.667 -52 -65.667 -81.333 -117 -88v-4c43.333 -6 79 -23.667 107 -53
c24.667 -24.667 47 -68.667 67 -132c5.33301 -14.667 14.5 -45.667 27.5 -93s23.833 -81 32.5 -101c8 -18.667 16.833 -31.167 26.5 -37.5s23.834 -9.5 42.501 -9.5c18 0 31 1.33301 39 4v-125c-22 -4 -44.333 -6 -67 -6c-52.667 0 -92.334 8 -119.001 24
c-29.333 18.667 -53.333 51.667 -72 99c-8 20.667 -15 41 -21 61s-12.167 42.667 -18.5 68s-14.166 53.333 -23.499 84c-8 22 -17 43 -27 63c-20.667 40 -44.5 65 -71.5 75s-62.5 15 -106.5 15h-92v-483h-148v483h-92c-43.333 0 -78.333 -5 -105 -15s-51 -35 -73 -75
c-4.66699 -8.66699 -13.667 -29.667 -27 -63l-32 -119.5c-9.33301 -35 -19.666 -66.167 -30.999 -93.5c-16.667 -46 -40.667 -79 -72 -99c-26.667 -16 -66 -24 -118 -24c-23.333 0 -46 2 -68 6v125c8 -2.66699 21 -4 39 -4c19.333 0 33.833 3.16699 43.5 9.5
s18.5 18.833 26.5 37.5c6.66699 16 16.334 46.833 29.001 92.5s22.667 79.5 30 101.5c20 62.667 42.333 106.667 67 132c28 29.333 63.667 47 107 53v4c-50 6 -89 35.333 -117 88c-10 18.667 -17.833 37.5 -23.5 56.5s-11.167 41.333 -16.5 67s-9.66602 44.5 -12.999 56.5
c-8.66699 36.667 -17.667 61.334 -27 74.001c-12.667 20.667 -33.667 31 -63 31c-14 0 -24.333 -0.666992 -31 -2v122c18 4.66699 38 7 60 7c71.333 0 123 -28.667 155 -86c12.667 -21.333 25.167 -56.5 37.5 -105.5s23.833 -89.167 34.5 -120.5c14 -44 35 -76 63 -96
c31.333 -22 77.333 -33 138 -33h79v434z" />
    <glyph glyph-name="afii10073" unicode="&#xe7;" horiz-adv-x="1038" 
d="M242 739l-145.997 38.999c26 111.333 90.333 191.333 193 240c64.667 31.333 145.667 47 243 47c115.333 0 204.333 -19 267 -57c45.333 -28 78.166 -62 98.499 -102s30.5 -80.667 30.5 -122c0 -65.333 -22.667 -120.666 -68 -165.999
c-38.667 -37.333 -87.667 -59 -147 -65v-4c32.667 -2 65.167 -10.167 97.5 -24.5s59.166 -32.833 80.499 -55.5c43.333 -45.333 65 -104 65 -176c0 -36.667 -6.16699 -70.834 -18.5 -102.501s-28.5 -59 -48.5 -82s-41.333 -42.167 -64 -57.5
c-70 -47.333 -172.333 -71 -307 -71c-62.667 0 -122.334 5.83301 -179.001 17.5s-108.334 37.834 -155.001 78.501c-59.333 53.333 -96.666 121.666 -111.999 204.999l151 30c10.667 -51.333 30.667 -91.666 60 -120.999c54.667 -56 130.334 -84 227.001 -84
c81.333 0 144.666 15.333 189.999 46c50.667 32 76 78.333 76 139c0 56 -16.333 99 -49 129c-42 39.333 -111 59 -207 59h-117v127h117c60.667 0 109.334 9 146.001 27c60 28 90 77 90 147c0 46 -19.333 83.667 -58 113c-37.333 30 -98 45 -182 45
c-79.333 0 -144 -21.333 -194 -64c-42.667 -34 -69.334 -79 -80.001 -135z" />
    <glyph glyph-name="afii10073" unicode="&#x437;" horiz-adv-x="1038" 
d="M242 739l-145.997 38.999c26 111.333 90.333 191.333 193 240c64.667 31.333 145.667 47 243 47c115.333 0 204.333 -19 267 -57c45.333 -28 78.166 -62 98.499 -102s30.5 -80.667 30.5 -122c0 -65.333 -22.667 -120.666 -68 -165.999
c-38.667 -37.333 -87.667 -59 -147 -65v-4c32.667 -2 65.167 -10.167 97.5 -24.5s59.166 -32.833 80.499 -55.5c43.333 -45.333 65 -104 65 -176c0 -36.667 -6.16699 -70.834 -18.5 -102.501s-28.5 -59 -48.5 -82s-41.333 -42.167 -64 -57.5
c-70 -47.333 -172.333 -71 -307 -71c-62.667 0 -122.334 5.83301 -179.001 17.5s-108.334 37.834 -155.001 78.501c-59.333 53.333 -96.666 121.666 -111.999 204.999l151 30c10.667 -51.333 30.667 -91.666 60 -120.999c54.667 -56 130.334 -84 227.001 -84
c81.333 0 144.666 15.333 189.999 46c50.667 32 76 78.333 76 139c0 56 -16.333 99 -49 129c-42 39.333 -111 59 -207 59h-117v127h117c60.667 0 109.334 9 146.001 27c60 28 90 77 90 147c0 46 -19.333 83.667 -58 113c-37.333 30 -98 45 -182 45
c-79.333 0 -144 -21.333 -194 -64c-42.667 -34 -69.334 -79 -80.001 -135z" />
    <glyph glyph-name="afii10074" unicode="&#xe8;" horiz-adv-x="1126" 
d="M166 1044l156 0.000976562v-626c0 -25.333 -0.333008 -43.833 -1 -55.5s-1.33398 -22.334 -2.00098 -32.001l-4 -56.5c16 34.667 30 61.5 42 80.5s31 46.167 57 81.5l391 518v90h156v-1044h-156v616c0 56.667 2.66699 106.667 8 150
c-17.333 -38.667 -48.666 -87 -93.999 -145l-397 -521v-100h-156v1044z" />
    <glyph glyph-name="afii10074" unicode="&#x438;" horiz-adv-x="1126" 
d="M166 1044l156 0.000976562v-626c0 -25.333 -0.333008 -43.833 -1 -55.5s-1.33398 -22.334 -2.00098 -32.001l-4 -56.5c16 34.667 30 61.5 42 80.5s31 46.167 57 81.5l391 518v90h156v-1044h-156v616c0 56.667 2.66699 106.667 8 150
c-17.333 -38.667 -48.666 -87 -93.999 -145l-397 -521v-100h-156v1044z" />
    <glyph glyph-name="afii10075" unicode="&#xe9;" horiz-adv-x="1126" 
d="M166 1044l156 0.000976562v-626c0 -25.333 -0.333008 -43.833 -1 -55.5s-1.33398 -22.334 -2.00098 -32.001l-4 -56.5c16 34.667 30 61.5 42 80.5s31 46.167 57 81.5l391 518v90h156v-1044h-156v616c0 56.667 2.66699 106.667 8 150
c-17.333 -38.667 -48.666 -87 -93.999 -145l-397 -521v-100h-156v1044zM696 1409h148c0 -53.333 -17.667 -101 -53 -143c-51.333 -57.333 -127.333 -86 -228 -86c-100 0 -175.667 28.667 -227 86c-35.333 40 -53 87.667 -53 143h147c2 -34 13.667 -62.667 35 -86
c22 -23.333 54.667 -35 98 -35c44 0 77 11.667 99 35c20.667 23.333 32 52 34 86z" />
    <glyph glyph-name="afii10075" unicode="&#x439;" horiz-adv-x="1126" 
d="M166 1044l156 0.000976562v-626c0 -25.333 -0.333008 -43.833 -1 -55.5s-1.33398 -22.334 -2.00098 -32.001l-4 -56.5c16 34.667 30 61.5 42 80.5s31 46.167 57 81.5l391 518v90h156v-1044h-156v616c0 56.667 2.66699 106.667 8 150
c-17.333 -38.667 -48.666 -87 -93.999 -145l-397 -521v-100h-156v1044zM696 1409h148c0 -53.333 -17.667 -101 -53 -143c-51.333 -57.333 -127.333 -86 -228 -86c-100 0 -175.667 28.667 -227 86c-35.333 40 -53 87.667 -53 143h147c2 -34 13.667 -62.667 35 -86
c22 -23.333 54.667 -35 98 -35c44 0 77 11.667 99 35c20.667 23.333 32 52 34 86z" />
    <glyph glyph-name="afii10076" unicode="&#xea;" horiz-adv-x="1053" 
d="M322 608h139.003c36.667 0 67.667 2.66699 93 8s47.833 15.5 67.5 30.5s37.167 37.5 52.5 67.5s28.333 68.333 39 115c9.33301 44 17.666 77.833 24.999 101.5s19.333 45.167 36 64.5c31.333 37.333 79.333 56 144 56c10 0 26.333 -1.33301 49 -4v-123h-33
c-30 -2.66699 -52 -13 -66 -31c-10.667 -13.333 -21.334 -44.666 -32.001 -93.999l-15 -74c-10.667 -54.667 -30.167 -96.334 -58.5 -125.001s-61.166 -45.667 -98.499 -51v-4c45.333 -3.33301 80.166 -17.666 104.499 -42.999s43.833 -58.333 58.5 -99
c13.333 -35.333 28.166 -80.333 44.499 -135s28.166 -89.334 35.499 -104.001c10 -18 20.333 -29.667 31 -35s26.334 -8 47.001 -8c16.667 0 29 0.666992 37 2v-125c-15.333 -2.66699 -38 -4 -68 -4c-53.333 0 -94 7.5 -122 22.5s-48.167 35.5 -60.5 61.5
s-26.5 64.333 -42.5 115c-21.333 69.333 -36.333 117 -45 143s-17 45 -25 57c-18.667 33.333 -43 56.333 -73 69s-67.667 19 -113 19h-151v-481h-156v1044h156v-436z" />
    <glyph glyph-name="afii10076" unicode="&#x43a;" horiz-adv-x="1053" 
d="M322 608h139.003c36.667 0 67.667 2.66699 93 8s47.833 15.5 67.5 30.5s37.167 37.5 52.5 67.5s28.333 68.333 39 115c9.33301 44 17.666 77.833 24.999 101.5s19.333 45.167 36 64.5c31.333 37.333 79.333 56 144 56c10 0 26.333 -1.33301 49 -4v-123h-33
c-30 -2.66699 -52 -13 -66 -31c-10.667 -13.333 -21.334 -44.666 -32.001 -93.999l-15 -74c-10.667 -54.667 -30.167 -96.334 -58.5 -125.001s-61.166 -45.667 -98.499 -51v-4c45.333 -3.33301 80.166 -17.666 104.499 -42.999s43.833 -58.333 58.5 -99
c13.333 -35.333 28.166 -80.333 44.499 -135s28.166 -89.334 35.499 -104.001c10 -18 20.333 -29.667 31 -35s26.334 -8 47.001 -8c16.667 0 29 0.666992 37 2v-125c-15.333 -2.66699 -38 -4 -68 -4c-53.333 0 -94 7.5 -122 22.5s-48.167 35.5 -60.5 61.5
s-26.5 64.333 -42.5 115c-21.333 69.333 -36.333 117 -45 143s-17 45 -25 57c-18.667 33.333 -43 56.333 -73 69s-67.667 19 -113 19h-151v-481h-156v1044h156v-436z" />
    <glyph glyph-name="afii10077" unicode="&#xeb;" horiz-adv-x="1044" 
d="M250 1044l629.001 -0.000976562v-1044h-156v918h-336c-7.33301 -215.333 -16 -373.5 -26 -474.5s-23 -175.833 -39 -224.5c-30.667 -87.333 -74.5 -145.666 -131.5 -174.999s-114.5 -44 -172.5 -44h-8v135h17c26.667 1.33301 55.167 11.5 85.5 30.5
s54.166 45.167 71.499 78.5c18 31.333 32 92 42 182s17.333 257.333 22 502z" />
    <glyph glyph-name="afii10077" unicode="&#x43b;" horiz-adv-x="1044" 
d="M250 1044l629.001 -0.000976562v-1044h-156v918h-336c-7.33301 -215.333 -16 -373.5 -26 -474.5s-23 -175.833 -39 -224.5c-30.667 -87.333 -74.5 -145.666 -131.5 -174.999s-114.5 -44 -172.5 -44h-8v135h17c26.667 1.33301 55.167 11.5 85.5 30.5
s54.166 45.167 71.499 78.5c18 31.333 32 92 42 182s17.333 257.333 22 502z" />
    <glyph glyph-name="afii10078" unicode="&#xec;" horiz-adv-x="1401" 
d="M166 1044l216.999 -0.000976562l326 -798l309 798h217v-1044h-156v717c0 26.667 0.666992 48.667 2 66s2.66602 36.333 3.99902 57s2 34.334 2 41.001c-18.667 -34.667 -45 -95.667 -79 -183l-271 -698h-80l-288 698c-14 33.333 -22.5 54 -25.5 62l-18 46l-30.5 75
c0.666992 -14.667 1.33398 -30.167 2.00098 -46.5s1.33398 -30.833 2.00098 -43.5s1.16699 -23 1.5 -31s0.5 -20.333 0.5 -37v-723h-135v1044z" />
    <glyph glyph-name="afii10078" unicode="&#x43c;" horiz-adv-x="1401" 
d="M166 1044l216.999 -0.000976562l326 -798l309 798h217v-1044h-156v717c0 26.667 0.666992 48.667 2 66s2.66602 36.333 3.99902 57s2 34.334 2 41.001c-18.667 -34.667 -45 -95.667 -79 -183l-271 -698h-80l-288 698c-14 33.333 -22.5 54 -25.5 62l-18 46l-30.5 75
c0.666992 -14.667 1.33398 -30.167 2.00098 -46.5s1.33398 -30.833 2.00098 -43.5s1.16699 -23 1.5 -31s0.5 -20.333 0.5 -37v-723h-135v1044z" />
    <glyph glyph-name="afii10079" unicode="&#xed;" horiz-adv-x="1126" 
d="M166 1044h156v-436h483v436h156v-1044h-156v481h-483v-481h-156v1044z" />
    <glyph glyph-name="afii10079" unicode="&#x43d;" horiz-adv-x="1126" 
d="M166 1044h156v-436h483v436h156v-1044h-156v481h-483v-481h-156v1044z" />
    <glyph glyph-name="afii10080" unicode="&#xee;" horiz-adv-x="1106" 
d="M82 522c0 168 43.8301 300.501 131.497 397.501s200.834 145.5 339.501 145.5c69.333 0 132.5 -12.333 189.5 -37s106.667 -60.334 149 -107.001s75 -103.667 98 -171s34.5 -143.333 34.5 -228c0 -110.667 -20.167 -207.167 -60.5 -289.5s-96.166 -145 -167.499 -188
s-152.333 -64.5 -243 -64.5s-171.667 21.5 -243 64.5s-127.166 105.667 -167.499 188s-60.5 178.833 -60.5 289.5zM552.997 115.001c80 0 148.5 29.332 205.5 87.999s85.5 165 85.5 319s-28.5 260.5 -85.5 319.5s-125.5 88.5 -205.5 88.5s-148.5 -29.667 -205.5 -89
s-85.5 -165.666 -85.5 -318.999s28.5 -259.5 85.5 -318.5s125.5 -88.5 205.5 -88.5z" />
    <glyph glyph-name="afii10080" unicode="&#x43e;" horiz-adv-x="1106" 
d="M82 522c0 168 43.8301 300.501 131.497 397.501s200.834 145.5 339.501 145.5c69.333 0 132.5 -12.333 189.5 -37s106.667 -60.334 149 -107.001s75 -103.667 98 -171s34.5 -143.333 34.5 -228c0 -110.667 -20.167 -207.167 -60.5 -289.5s-96.166 -145 -167.499 -188
s-152.333 -64.5 -243 -64.5s-171.667 21.5 -243 64.5s-127.166 105.667 -167.499 188s-60.5 178.833 -60.5 289.5zM552.997 115.001c80 0 148.5 29.332 205.5 87.999s85.5 165 85.5 319s-28.5 260.5 -85.5 319.5s-125.5 88.5 -205.5 88.5s-148.5 -29.667 -205.5 -89
s-85.5 -165.666 -85.5 -318.999s28.5 -259.5 85.5 -318.5s125.5 -88.5 205.5 -88.5z" />
    <glyph glyph-name="afii10081" unicode="&#xef;" horiz-adv-x="1126" 
d="M166 1044h795v-1044h-156v918h-483v-918h-156v1044z" />
    <glyph glyph-name="afii10081" unicode="&#x43f;" horiz-adv-x="1126" 
d="M166 1044h795v-1044h-156v918h-483v-918h-156v1044z" />
    <glyph glyph-name="afii10082" unicode="&#xf0;" horiz-adv-x="1124" 
d="M322 -340h-156v1384h143v-196l2 2c25.333 58.667 63.833 109.167 115.5 151.5s117.167 63.5 196.5 63.5c121.333 0 217.333 -40.333 288 -121c44 -48.667 76.833 -110 98.5 -184s32.5 -151.333 32.5 -232c0 -74.667 -9 -146.167 -27 -214.5s-45.667 -127.833 -83 -178.5
c-74.667 -103.333 -177.667 -155 -309 -155c-142 0 -240.333 61.333 -295 184h-6v-504zM322 633l0.00195312 -219c0 -86 24.333 -156.333 73 -211c53.333 -58.667 119.666 -88 198.999 -88c86.667 0 155 41 205 123c42 68 63 164 63 288c0 75.333 -6.66699 136.5 -20 183.5
s-27 81.5 -41 103.5c-48 78 -116.333 117 -205 117c-72.667 0 -135.334 -27.333 -188.001 -82c-57.333 -62 -86 -133.667 -86 -215z" />
    <glyph glyph-name="afii10082" unicode="&#x440;" horiz-adv-x="1124" 
d="M322 -340h-156v1384h143v-196l2 2c25.333 58.667 63.833 109.167 115.5 151.5s117.167 63.5 196.5 63.5c121.333 0 217.333 -40.333 288 -121c44 -48.667 76.833 -110 98.5 -184s32.5 -151.333 32.5 -232c0 -74.667 -9 -146.167 -27 -214.5s-45.667 -127.833 -83 -178.5
c-74.667 -103.333 -177.667 -155 -309 -155c-142 0 -240.333 61.333 -295 184h-6v-504zM322 633l0.00195312 -219c0 -86 24.333 -156.333 73 -211c53.333 -58.667 119.666 -88 198.999 -88c86.667 0 155 41 205 123c42 68 63 164 63 288c0 75.333 -6.66699 136.5 -20 183.5
s-27 81.5 -41 103.5c-48 78 -116.333 117 -205 117c-72.667 0 -135.334 -27.333 -188.001 -82c-57.333 -62 -86 -133.667 -86 -215z" />
    <glyph glyph-name="afii10083" unicode="&#xf1;" horiz-adv-x="987" 
d="M926 707l-148.003 -27.0029c-8.66699 63.333 -27.667 116 -57 158c-43.333 61.333 -107 92 -191 92c-86 0 -152.667 -39 -200 -117c-45.333 -72 -68 -170.333 -68 -295c0 -81.333 7.5 -145.666 22.5 -192.999s30.167 -82.666 45.5 -105.999
c47.333 -69.333 113.333 -104 198 -104c38.667 0 73.334 7.16699 104.001 21.5s57 35.833 79 64.5c35.333 45.333 57.666 102 66.999 170l148 -27c-6.66699 -49.333 -20.667 -96.166 -42 -140.499s-47 -82.166 -77 -113.499c-36 -37.333 -77.833 -65 -125.5 -83
s-100.167 -27 -157.5 -27c-115.333 0 -210.666 34 -285.999 102c-49.333 45.333 -87.666 107 -114.999 185s-41 162.333 -41 253c0 148 36 273 108 375c40 54 87.833 95.833 143.5 125.5s122.834 44.5 201.501 44.5c119.333 0 214 -39.667 284 -119
c54 -60.667 89.667 -140.334 107 -239.001z" />
    <glyph glyph-name="afii10083" unicode="&#x441;" horiz-adv-x="987" 
d="M926 707l-148.003 -27.0029c-8.66699 63.333 -27.667 116 -57 158c-43.333 61.333 -107 92 -191 92c-86 0 -152.667 -39 -200 -117c-45.333 -72 -68 -170.333 -68 -295c0 -81.333 7.5 -145.666 22.5 -192.999s30.167 -82.666 45.5 -105.999
c47.333 -69.333 113.333 -104 198 -104c38.667 0 73.334 7.16699 104.001 21.5s57 35.833 79 64.5c35.333 45.333 57.666 102 66.999 170l148 -27c-6.66699 -49.333 -20.667 -96.166 -42 -140.499s-47 -82.166 -77 -113.499c-36 -37.333 -77.833 -65 -125.5 -83
s-100.167 -27 -157.5 -27c-115.333 0 -210.666 34 -285.999 102c-49.333 45.333 -87.666 107 -114.999 185s-41 162.333 -41 253c0 148 36 273 108 375c40 54 87.833 95.833 143.5 125.5s122.834 44.5 201.501 44.5c119.333 0 214 -39.667 284 -119
c54 -60.667 89.667 -140.334 107 -239.001z" />
    <glyph glyph-name="afii10084" unicode="&#xf2;" horiz-adv-x="811" 
d="M0 1044h811v-126h-328v-918h-155v918h-328v126z" />
    <glyph glyph-name="afii10084" unicode="&#x442;" horiz-adv-x="811" 
d="M0 1044h811v-126h-328v-918h-155v918h-328v126z" />
    <glyph glyph-name="afii10085" unicode="&#xf3;" horiz-adv-x="874" 
d="M895 1044l-412 -1142c-27.333 -79.333 -64 -141.666 -110 -186.999c-54.667 -50 -119.667 -75 -195 -75c-48 0 -91.667 6.66699 -131 20v121c33.333 -9.33301 71 -14 113 -14c22 0 42.833 2.33301 62.5 7s37.5 13.667 53.5 27c34.667 29.333 67.667 90.333 99 183l12 34
l-367 1026h181l270 -802l281 802h143z" />
    <glyph glyph-name="afii10085" unicode="&#x443;" horiz-adv-x="874" 
d="M895 1044l-412 -1142c-27.333 -79.333 -64 -141.666 -110 -186.999c-54.667 -50 -119.667 -75 -195 -75c-48 0 -91.667 6.66699 -131 20v121c33.333 -9.33301 71 -14 113 -14c22 0 42.833 2.33301 62.5 7s37.5 13.667 53.5 27c34.667 29.333 67.667 90.333 99 183l12 34
l-367 1026h181l270 -802l281 802h143z" />
    <glyph glyph-name="afii10086" unicode="&#xf4;" horiz-adv-x="1405" 
d="M625 1405h155v-361h21c58 0 118.667 -10.333 182 -31s116 -47 158 -79c48 -36.667 90.333 -89 127 -157s55 -155.667 55 -263c0 -91.333 -14.5 -168.833 -43.5 -232.5s-65.167 -115.167 -108.5 -154.5c-50 -46.667 -110 -79.5 -180 -98.5s-140.333 -28.5 -211 -28.5v-340
h-155v340c-70 0 -140.167 9.66699 -210.5 29s-130.833 52 -181.5 98c-100.667 93.333 -151 222.333 -151 387c0 186.667 60.667 326.667 182 420c42 32 95 58.333 159 79s124.333 31 181 31h21v361zM631 127v791.001h-17c-92 0 -165.667 -19.333 -221 -58
c-38.667 -26.667 -71.5 -67.5 -98.5 -122.5s-40.5 -126.833 -40.5 -215.5c0 -154.667 48.333 -267.334 145 -338.001c54.667 -38 123.667 -57 207 -57h25zM774 918.001v-791.002h25c83.333 0 152.333 19 207 57c96.667 70.667 145 183.334 145 338.001
c0 90.667 -13.667 163.334 -41 218.001s-60 94.667 -98 120c-55.333 38.667 -129 58 -221 58h-17z" />
    <glyph glyph-name="afii10086" unicode="&#x444;" horiz-adv-x="1405" 
d="M625 1405h155v-361h21c58 0 118.667 -10.333 182 -31s116 -47 158 -79c48 -36.667 90.333 -89 127 -157s55 -155.667 55 -263c0 -91.333 -14.5 -168.833 -43.5 -232.5s-65.167 -115.167 -108.5 -154.5c-50 -46.667 -110 -79.5 -180 -98.5s-140.333 -28.5 -211 -28.5v-340
h-155v340c-70 0 -140.167 9.66699 -210.5 29s-130.833 52 -181.5 98c-100.667 93.333 -151 222.333 -151 387c0 186.667 60.667 326.667 182 420c42 32 95 58.333 159 79s124.333 31 181 31h21v361zM631 127v791.001h-17c-92 0 -165.667 -19.333 -221 -58
c-38.667 -26.667 -71.5 -67.5 -98.5 -122.5s-40.5 -126.833 -40.5 -215.5c0 -154.667 48.333 -267.334 145 -338.001c54.667 -38 123.667 -57 207 -57h25zM774 918.001v-791.002h25c83.333 0 152.333 19 207 57c96.667 70.667 145 183.334 145 338.001
c0 90.667 -13.667 163.334 -41 218.001s-60 94.667 -98 120c-55.333 38.667 -129 58 -221 58h-17z" />
    <glyph glyph-name="afii10087" unicode="&#xf5;" horiz-adv-x="895" 
d="M41 1044h188l220 -360l227 360h155l-303 -471l359 -573h-189l-262 422l-272 -422h-156l348 539z" />
    <glyph glyph-name="afii10087" unicode="&#x445;" horiz-adv-x="895" 
d="M41 1044h188l220 -360l227 360h155l-303 -471l359 -573h-189l-262 422l-272 -422h-156l348 539z" />
    <glyph glyph-name="afii10088" unicode="&#xf6;" horiz-adv-x="1180" 
d="M166 1044h156v-917h507v917h156v-917h143v-408h-143v281h-819v1044z" />
    <glyph glyph-name="afii10088" unicode="&#x446;" horiz-adv-x="1180" 
d="M166 1044h156v-917h507v917h156v-917h143v-408h-143v281h-819v1044z" />
    <glyph glyph-name="afii10089" unicode="&#xf7;" horiz-adv-x="1022" 
d="M113 1044l155.001 0.000976562v-288v-47c0 -51.333 9.66699 -89 29 -113c10.667 -13.333 25 -23.333 43 -30s37.167 -10.834 57.5 -12.501s46.166 -2.5 77.499 -2.5c55.333 0 130.333 4.66699 225 14v479h156v-1044h-156v440c-87.333 -10.667 -170.333 -16 -249 -16
c-116.667 0 -198.667 17.667 -246 53c-41.333 30.667 -67 69.167 -77 115.5s-15 108.833 -15 187.5v264z" />
    <glyph glyph-name="afii10089" unicode="&#x447;" horiz-adv-x="1022" 
d="M113 1044l155.001 0.000976562v-288v-47c0 -51.333 9.66699 -89 29 -113c10.667 -13.333 25 -23.333 43 -30s37.167 -10.834 57.5 -12.501s46.166 -2.5 77.499 -2.5c55.333 0 130.333 4.66699 225 14v479h156v-1044h-156v440c-87.333 -10.667 -170.333 -16 -249 -16
c-116.667 0 -198.667 17.667 -246 53c-41.333 30.667 -67 69.167 -77 115.5s-15 108.833 -15 187.5v264z" />
    <glyph glyph-name="afii10090" unicode="&#xf8;" horiz-adv-x="1520" 
d="M166 1044h156v-917h360v917h156v-917h360v917h156v-1044h-1188v1044z" />
    <glyph glyph-name="afii10090" unicode="&#x448;" horiz-adv-x="1520" 
d="M166 1044h156v-917h360v917h156v-917h360v917h156v-1044h-1188v1044z" />
    <glyph glyph-name="afii10091" unicode="&#xf9;" horiz-adv-x="1548" 
d="M166 1044h156v-917h360v917h156v-917h360v917h156v-917h143v-408h-143v281h-1188v1044z" />
    <glyph glyph-name="afii10091" unicode="&#x449;" horiz-adv-x="1548" 
d="M166 1044h156v-917h360v917h156v-917h360v917h156v-917h143v-408h-143v281h-1188v1044z" />
    <glyph glyph-name="afii10092" unicode="&#xfa;" horiz-adv-x="1171" 
d="M-10 1044h466.999v-411h291c117.333 0 203.333 -26.667 258 -80c56 -57.333 84 -133.666 84 -228.999c0 -108 -35 -192 -105 -252c-32.667 -28.667 -66.167 -47.834 -100.5 -57.501s-71.166 -14.5 -110.499 -14.5h-473v918h-311v126zM456.999 506v-379h243
c32 0 60.333 2.66699 85 8s47.667 17 69 35c42.667 38 64 90 64 156c0 66.667 -23.333 115.667 -70 147c-34 22 -81 33 -141 33h-250z" />
    <glyph glyph-name="afii10092" unicode="&#x44a;" horiz-adv-x="1171" 
d="M-10 1044h466.999v-411h291c117.333 0 203.333 -26.667 258 -80c56 -57.333 84 -133.666 84 -228.999c0 -108 -35 -192 -105 -252c-32.667 -28.667 -66.167 -47.834 -100.5 -57.501s-71.166 -14.5 -110.499 -14.5h-473v918h-311v126zM456.999 506v-379h243
c32 0 60.333 2.66699 85 8s47.667 17 69 35c42.667 38 64 90 64 156c0 66.667 -23.333 115.667 -70 147c-34 22 -81 33 -141 33h-250z" />
    <glyph glyph-name="afii10093" unicode="&#xfb;" horiz-adv-x="1413" 
d="M166 1044h156v-411h290c118 0 204 -26.667 258 -80c56 -56 84 -132.333 84 -229c0 -108.667 -34.667 -192.667 -104 -252c-54 -48 -124.333 -72 -211 -72h-473v1044zM322 506v-379h243c32 0 60.333 2.66699 85 8s47.667 17 69 35c42 37.333 63 89.333 63 156
s-23 115.667 -69 147c-34 22 -81.333 33 -142 33h-249zM1092 1044h155v-1044h-155v1044z" />
    <glyph glyph-name="afii10093" unicode="&#x44b;" horiz-adv-x="1413" 
d="M166 1044h156v-411h290c118 0 204 -26.667 258 -80c56 -56 84 -132.333 84 -229c0 -108.667 -34.667 -192.667 -104 -252c-54 -48 -124.333 -72 -211 -72h-473v1044zM322 506v-379h243c32 0 60.333 2.66699 85 8s47.667 17 69 35c42 37.333 63 89.333 63 156
s-23 115.667 -69 147c-34 22 -81.333 33 -142 33h-249zM1092 1044h155v-1044h-155v1044z" />
    <glyph glyph-name="afii10094" unicode="&#xfc;" horiz-adv-x="1036" 
d="M166 1044h156v-411h290c118 0 204 -26.667 258 -80c56 -56 84 -132.333 84 -229c0 -108.667 -34.667 -192.667 -104 -252c-54 -48 -124.333 -72 -211 -72h-473v1044zM322 506v-379h243c32 0 60.333 2.66699 85 8s47.667 17 69 35c42 37.333 63 89.333 63 156
s-23 115.667 -69 147c-34 22 -81.333 33 -142 33h-249z" />
    <glyph glyph-name="afii10094" unicode="&#x44c;" horiz-adv-x="1036" 
d="M166 1044h156v-411h290c118 0 204 -26.667 258 -80c56 -56 84 -132.333 84 -229c0 -108.667 -34.667 -192.667 -104 -252c-54 -48 -124.333 -72 -211 -72h-473v1044zM322 506v-379h243c32 0 60.333 2.66699 85 8s47.667 17 69 35c42 37.333 63 89.333 63 156
s-23 115.667 -69 147c-34 22 -81.333 33 -142 33h-249z" />
    <glyph glyph-name="afii10095" unicode="&#xfd;" horiz-adv-x="1032" 
d="M242 737l-154.005 27c24 86.667 72.333 158.334 145 215.001c76.667 57.333 173.667 86 291 86c62 0 118.5 -9.5 169.5 -28.5s97.833 -53.833 140.5 -104.5c77.333 -94.667 116 -222.334 116 -383.001c0 -76 -8.33301 -148.833 -25 -218.5s-45 -132.834 -85 -189.501
c-46 -64 -95.833 -106.833 -149.5 -128.5s-116.5 -32.5 -188.5 -32.5c-102 0 -186 20.333 -252 61c-89.333 54.667 -148.666 134.667 -177.999 240l161 26c14 -51.333 42 -94.333 84 -129c28 -23.333 56.833 -39.666 86.5 -48.999s61.834 -14 96.501 -14
c44.667 0 84.334 8 119.001 24s65.334 45.333 92.001 88c39.333 64.667 59 150 59 256h-379v127h379c0 68.667 -16.333 135.667 -49 201c-46 79.333 -115.667 119 -209 119c-41.333 0 -80.166 -8 -116.499 -24s-66.5 -36.667 -90.5 -62c-28 -30 -49 -65.667 -63 -107z" />
    <glyph glyph-name="afii10095" unicode="&#x44d;" horiz-adv-x="1032" 
d="M242 737l-154.005 27c24 86.667 72.333 158.334 145 215.001c76.667 57.333 173.667 86 291 86c62 0 118.5 -9.5 169.5 -28.5s97.833 -53.833 140.5 -104.5c77.333 -94.667 116 -222.334 116 -383.001c0 -76 -8.33301 -148.833 -25 -218.5s-45 -132.834 -85 -189.501
c-46 -64 -95.833 -106.833 -149.5 -128.5s-116.5 -32.5 -188.5 -32.5c-102 0 -186 20.333 -252 61c-89.333 54.667 -148.666 134.667 -177.999 240l161 26c14 -51.333 42 -94.333 84 -129c28 -23.333 56.833 -39.666 86.5 -48.999s61.834 -14 96.501 -14
c44.667 0 84.334 8 119.001 24s65.334 45.333 92.001 88c39.333 64.667 59 150 59 256h-379v127h379c0 68.667 -16.333 135.667 -49 201c-46 79.333 -115.667 119 -209 119c-41.333 0 -80.166 -8 -116.499 -24s-66.5 -36.667 -90.5 -62c-28 -30 -49 -65.667 -63 -107z" />
    <glyph glyph-name="afii10096" unicode="&#xfe;" horiz-adv-x="1513" 
d="M166 1044h156v-440h167c21.333 149.333 73.333 263.333 156 342c40 38 87.167 67.333 141.5 88s112.5 31 174.5 31c66.667 0 126.167 -11.167 178.5 -33.5s97.166 -50.833 134.499 -85.5c48.667 -46.667 87.167 -106.167 115.5 -178.5s42.5 -154.166 42.5 -245.499
c0 -90.667 -14.333 -172.5 -43 -245.5s-67 -132.5 -115 -178.5c-38 -34.667 -83 -63 -135 -85s-111.333 -33 -178 -33c-62 0 -120 10.333 -174 31s-101.333 49.667 -142 87c-28.667 26.667 -54.667 60.167 -78 100.5s-41.666 84.166 -54.999 131.499s-21 96.333 -23 147
h-167v-477h-156v1044zM961 115c78 0 141.332 24.3311 189.999 72.998c66.667 67.333 100 178.666 100 333.999c0 57.333 -6.33301 117 -19 179s-39.667 113.667 -81 155c-21.333 22.667 -48.5 40.667 -81.5 54s-69.167 20 -108.5 20c-78 0 -141.667 -24.667 -191 -74
c-29.333 -29.333 -51.333 -65.166 -66 -107.499s-24 -81.666 -28 -117.999s-6 -72.5 -6 -108.5c0 -155.333 33.333 -266.666 100 -333.999c48.667 -48.667 112.334 -73 191.001 -73z" />
    <glyph glyph-name="afii10096" unicode="&#x44e;" horiz-adv-x="1513" 
d="M166 1044h156v-440h167c21.333 149.333 73.333 263.333 156 342c40 38 87.167 67.333 141.5 88s112.5 31 174.5 31c66.667 0 126.167 -11.167 178.5 -33.5s97.166 -50.833 134.499 -85.5c48.667 -46.667 87.167 -106.167 115.5 -178.5s42.5 -154.166 42.5 -245.499
c0 -90.667 -14.333 -172.5 -43 -245.5s-67 -132.5 -115 -178.5c-38 -34.667 -83 -63 -135 -85s-111.333 -33 -178 -33c-62 0 -120 10.333 -174 31s-101.333 49.667 -142 87c-28.667 26.667 -54.667 60.167 -78 100.5s-41.666 84.166 -54.999 131.499s-21 96.333 -23 147
h-167v-477h-156v1044zM961 115c78 0 141.332 24.3311 189.999 72.998c66.667 67.333 100 178.666 100 333.999c0 57.333 -6.33301 117 -19 179s-39.667 113.667 -81 155c-21.333 22.667 -48.5 40.667 -81.5 54s-69.167 20 -108.5 20c-78 0 -141.667 -24.667 -191 -74
c-29.333 -29.333 -51.333 -65.166 -66 -107.499s-24 -81.666 -28 -117.999s-6 -72.5 -6 -108.5c0 -155.333 33.333 -266.666 100 -333.999c48.667 -48.667 112.334 -73 191.001 -73z" />
    <glyph glyph-name="afii10097" unicode="&#xff;" horiz-adv-x="1051" 
d="M885 1044v-1044h-156v426h-225l-232 -426h-180l246 436c-16 3.33301 -39.5 11.666 -70.5 24.999s-59.5 31.666 -85.5 54.999c-22.667 22.667 -42.334 52.334 -59.001 89.001s-25 83.334 -25 140.001c0 68.667 19.333 130.334 58 185.001
c33.333 46.667 73.333 77.334 120 92.001s106.334 22 179.001 22h430zM729 917.998l-213 0.000976562c-51.333 0 -92 -3.33301 -122 -10s-57 -23.334 -81 -50.001c-28.667 -32.667 -43 -77 -43 -133c0 -55.333 17.333 -97.833 52 -127.5s96 -44.5 184 -44.5h223v365z" />
    <glyph glyph-name="afii10097" unicode="&#x44f;" horiz-adv-x="1051" 
d="M885 1044v-1044h-156v426h-225l-232 -426h-180l246 436c-16 3.33301 -39.5 11.666 -70.5 24.999s-59.5 31.666 -85.5 54.999c-22.667 22.667 -42.334 52.334 -59.001 89.001s-25 83.334 -25 140.001c0 68.667 19.333 130.334 58 185.001
c33.333 46.667 73.333 77.334 120 92.001s106.334 22 179.001 22h430zM729 917.998l-213 0.000976562c-51.333 0 -92 -3.33301 -122 -10s-57 -23.334 -81 -50.001c-28.667 -32.667 -43 -77 -43 -133c0 -55.333 17.333 -97.833 52 -127.5s96 -44.5 184 -44.5h223v365z" />
    <glyph glyph-name="afii10059" unicode="&#x152;" horiz-adv-x="2068" 
d="M180 1405l176.001 -0.000976562v-590h656v590h176v-604h309c76.667 0 150.667 -7.83301 222 -23.5s135.166 -53.667 191.499 -114s84.5 -149.166 84.5 -266.499c0 -96.667 -29.5 -187 -88.5 -271s-175.833 -126 -350.5 -126h-544v672h-656v-672h-176v1405zM1188 648.999
v-497h354c77.333 0 142.833 14.167 196.5 42.5s80.5 94.5 80.5 198.5c0 74.667 -21 136 -63 184s-124.333 72 -247 72h-321z" />
    <glyph glyph-name="afii10107" unicode="&#x153;" horiz-adv-x="1675" 
d="M805 606v438h156v-411h290c118 0 204 -26.667 258 -80c56 -56 84 -132.333 84 -229c0 -108.667 -34.667 -192.667 -104 -252c-54 -48 -124.333 -72 -211 -72h-473v479h-483v-479h-156v1044h156v-438h483zM961 506v-379h243c32 0 60.333 2.66699 85 8s47.667 17 69 35
c42 37.333 63 89.333 63 156s-23 115.667 -69 147c-34 22 -81.333 33 -142 33h-249z" />
    <glyph glyph-name="afii10058" unicode="&#x160;" horiz-adv-x="2015" 
d="M317 1405h818.002v-604h309c129.333 0 244.666 -25.167 345.999 -75.5s152 -159.833 152 -328.5c0 -96.667 -29.5 -187 -88.5 -271s-175.833 -126 -350.5 -126h-545v1253h-479c-2 -314 -20.333 -574.667 -55 -782c-21.333 -136 -57.833 -249.5 -109.5 -340.5
s-133.834 -136.5 -246.501 -136.5c-21.333 0 -42.666 2 -63.999 6v162l33 -4c64 0 115.333 33.5 154 100.5s67.167 155.667 85.5 266s29.666 221 33.999 332s6.5 246.833 6.5 407.5v77v64zM1135 649v-497.001h354c49.333 0 92.833 4.16699 130.5 12.5
s71.334 30.333 101.001 66s44.5 89.834 44.5 162.501c0 74.667 -20.833 136 -62.5 184s-123.834 72 -246.501 72h-321z" />
    <glyph glyph-name="afii10106" unicode="&#x161;" horiz-adv-x="1593" 
d="M250 1044l629.002 -0.000976562v-411h290c118 0 204 -26.667 258 -80c56 -56 84 -132.333 84 -229c0 -108.667 -34.667 -192.667 -104 -252c-54 -48 -124.333 -72 -211 -72h-473v918h-336c-4.66699 -139.333 -10.167 -257.5 -16.5 -354.5s-13 -170 -20 -219
s-16.5 -90.833 -28.5 -125.5c-30.667 -87.333 -74.5 -145.666 -131.5 -174.999s-114.5 -44 -172.5 -44h-8v135h17c46.667 2.66699 84.167 19.167 112.5 49.5s48.166 63.666 59.499 99.999s18.666 69.166 21.999 98.499c3.33301 28 6.5 61.333 9.5 100
s6.16699 96.834 9.5 174.501s6 167.834 8 270.501zM879.002 505.999v-379h243c32 0 60.333 2.66699 85 8s47.667 17 69 35c42 37.333 63 89.333 63 156c0 67.333 -23 116.333 -69 147c-34 22 -81.333 33 -142 33h-249z" />
    <glyph glyph-name="afii10193" unicode="&#x178;" horiz-adv-x="1012" 
d="M96 1040h156v-913h508v913h155v-1040h-337v-281h-144v281h-338v1040z" />
    <glyph glyph-name="afii10100" unicode="&#x192;" horiz-adv-x="819" 
d="M166 1044h631v-126h-475v-918h-156v1044zM662 1511l69 -133l-440 -192l-41 82z" />
    <glyph glyph-name="Accent" unicode="&#x2c6;" horiz-adv-x="778" 
d="M553 1511l70 -133l-441 -192l-41 82z" />
    <glyph glyph-name="accent" unicode="&#x2dc;" horiz-adv-x="778" 
d="M553 1841l70 -133l-441 -192l-41 81z" />
    <glyph glyph-name="emdash" unicode="&#x2013;" horiz-adv-x="1446" 
d="M1235 590v-127h-1024v127h1024z" />
    <glyph glyph-name="endash" unicode="&#x2014;" horiz-adv-x="2048" 
d="M1946 590v-127h-1844v127h1844z" />
    <glyph glyph-name="quoteleft" unicode="&#x2018;" horiz-adv-x="514" 
d="M362 1405l-102 -246h102v-209h-210v209l137 246h73z" />
    <glyph glyph-name="quoteright" unicode="&#x2019;" horiz-adv-x="514" 
d="M362 1405v-209l-137 -246h-73l102 246h-102v209h210z" />
    <glyph glyph-name="quotesinglbase" unicode="&#x201a;" horiz-adv-x="545" 
d="M393 203v-176l-164 -275h-77l120 248h-84v203h205z" />
    <glyph glyph-name="quotedblleft" unicode="&#x201c;" horiz-adv-x="854" 
d="M702 1405l-120 -246h84v-203h-205v177l164 272h77zM393 1405l-121 -246h84v-203h-204v177l163 272h78z" />
    <glyph glyph-name="quotedblright" unicode="&#x201d;" horiz-adv-x="856" 
d="M393 1405v-176l-164 -273h-77l120 246h-84v203h205zM705 1405v-176l-164 -275h-78l121 248h-84v203h205z" />
    <glyph glyph-name="quotedblbase" unicode="&#x201e;" horiz-adv-x="856" 
d="M393 203v-176l-164 -275h-77l120 248h-84v203h205zM705 203v-176l-164 -275h-78l121 248h-84v203h205z" />
    <glyph glyph-name="dagger" unicode="&#x2020;" horiz-adv-x="1225" 
d="M612 1380l119 24.998l-88 -440l434 75l-18 -92l18 -92l-434 51l88 -94c-26 -90 -47.167 -251.667 -63.5 -485s-24.5 -428 -24.5 -584v-94h-61v94c0 52.667 -2.16699 136.834 -6.5 252.501s-9.83301 222.334 -16.5 320.001s-15.667 193.167 -27 286.5s-24 163.333 -38 210
l88 94l-435 -51l19 92l-19 92l435 -75l-88 440z" />
    <glyph glyph-name="daggerdbl" unicode="&#x2021;" horiz-adv-x="1225" 
d="M612 1372l103 33l-72 -387l434 76l-18 -97l18 -96l-434 60l45 -105l-45 -131l434 76l-18 -96l18 -97l-434 60l90 -78c-17.333 -62 -33 -143.167 -47 -243.5s-24.667 -207.5 -32 -321.5s-11 -216.667 -11 -308v-67h-61v67c0 91.333 -3.66699 194 -11 308
s-18 221.167 -32 321.5s-29.667 181.5 -47 243.5l90 78l-435 -60l19 97l-19 96l435 -76l-45 131l45 105l-435 -60l19 96l-19 97l435 -76l-72 387z" />
    <glyph glyph-name="bullet" unicode="&#x2022;" 
d="M614 1051c47.333 0 92.1689 -9.00293 134.502 -27.0029s79.666 -43.167 111.999 -75.5s57.5 -69.666 75.5 -111.999s27 -87.166 27 -134.499c0 -63.333 -15.833 -121.666 -47.5 -174.999s-74.167 -95.5 -127.5 -126.5s-111.333 -46.5 -174 -46.5
c-63.333 0 -121.5 15.667 -174.5 47s-95.167 73.5 -126.5 126.5s-47 111.167 -47 174.5c0 62.667 15.5 120.667 46.5 174s73.167 95.833 126.5 127.5s111.666 47.5 174.999 47.5z" />
    <glyph glyph-name="ellipsis" unicode="&#x2026;" horiz-adv-x="1892" 
d="M377 231v-231h-225v231h225zM1059 231v-231h-225v231h225zM1741 231v-231h-225v231h225z" />
    <glyph glyph-name="perthousand" unicode="&#x2030;" horiz-adv-x="2212" 
d="M367 1425c61.333 0 113.498 -16.002 156.498 -48.002s75.333 -76.167 97 -132.5s32.5 -118.833 32.5 -187.5s-10.833 -131.167 -32.5 -187.5s-54 -100.666 -97 -132.999s-95.167 -48.5 -156.5 -48.5c-91.333 0 -162 34.333 -212 103s-75 157.334 -75 266.001
c0 68.667 10.833 131.167 32.5 187.5s54.334 100.5 98.001 132.5s95.834 48 156.501 48zM366.998 794.998c47.333 0 85.667 19.667 115 59s44 107 44 203c0 174.667 -53 262 -159 262c-106.667 0 -160 -87.333 -160 -262s53.333 -262 160 -262zM1243 1405l-850 -1405h-149
l850 1405h149zM833.999 347.998c0 52.667 5.99902 101.168 17.999 145.501s29.833 83.166 53.5 116.499s53.834 59.5 90.501 78.5s78 28.5 124 28.5c60.667 0 112.834 -16.167 156.501 -48.5s76.334 -76.666 98.001 -132.999s32.5 -118.833 32.5 -187.5
s-10.833 -131.167 -32.5 -187.5s-54.334 -100.5 -98.001 -132.5s-95.834 -48 -156.501 -48c-46 0 -87.167 9.5 -123.5 28.5s-66.5 45.167 -90.5 78.5s-42 72.166 -54 116.499s-18 92.5 -18 144.5zM960.998 347.999c0 -96 14.668 -163.667 44.001 -203
s67.666 -59 114.999 -59c106.667 0 160 87.333 160 262s-53.333 262 -160 262c-106 0 -159 -87.333 -159 -262zM1559 347.999c0 52.667 5.99902 101.168 17.999 145.501s29.833 83.166 53.5 116.499s53.834 59.5 90.501 78.5s78 28.5 124 28.5
c60.667 0 112.834 -16.167 156.501 -48.5s76.334 -76.666 98.001 -132.999s32.5 -118.833 32.5 -187.5s-10.833 -131.167 -32.5 -187.5s-54.334 -100.5 -98.001 -132.5s-95.834 -48 -156.501 -48c-46 0 -87.167 9.5 -123.5 28.5s-66.5 45.167 -90.5 78.5
s-42 72.166 -54 116.499s-18 92.5 -18 144.5zM1686 348c0 -96 14.668 -163.667 44.001 -203s67.666 -59 114.999 -59c106.667 0 160 87.333 160 262s-53.333 262 -160 262c-106 0 -159 -87.333 -159 -262z" />
    <glyph glyph-name="quilsinglleft" unicode="&#x2039;" horiz-adv-x="455" 
d="M246 526l108 -299h-90l-178 299l178 291h90z" />
    <glyph glyph-name="quilsinglright" unicode="&#x203a;" horiz-adv-x="455" 
d="M209 526l-109 291h90l179 -291l-179 -299h-90z" />
    <glyph glyph-name="trademark" unicode="&#x2122;" horiz-adv-x="1686" 
d="M393 588h-127v715h-246v102h619v-102h-246v-715zM1589 588h-127v649l-260 -649h-90l-262 649v-649h-113v817h181l249 -621l244 621h178v-817z" />
    <glyph glyph-name="periodcentered" unicode="&#x2219;" horiz-adv-x="528" 
d="M377 707v-232h-225v232h225z" />
    <glyph glyph-name=".null" horiz-adv-x="0" 
 />
    <glyph glyph-name="nonmarkingreturn" horiz-adv-x="0" 
 />
    </font>
</defs>
</svg>
